<?xml version="1.0" encoding="UTF-8"?>
<svg xmlns="http://www.w3.org/2000/svg" version="1.1" viewBox="0 0 572.4 413.4">
  <defs>
    <style>
      .cls-1 {
        fill: #00004e;
      }

      .cls-2 {
        fill: #00bf00;
      }
    </style>
  </defs>
  <!-- Generator: Adobe Illustrator 28.7.1, SVG Export Plug-In . SVG Version: 1.2.0 Build 142)  -->
  <g>
    <g id="Layer_1">
      <path class="cls-1" d="M474.7,257.5h-4.5c-2.1,0-3.3-.9-3.3-1.9s1.4-1.9,2.7-1.9,2.4.7,2.8,1.2l1.6-2.7c-.7-1.2-2.4-2.4-4.5-2.4-3.5,0-5.4,2.7-5.4,5.3s.4,2,.8,2.5h-1.9v3.4h11.5v-3.6h0ZM492.8,276.9c1.7,0,3-1.4,3-3.1s-1.4-3.1-3-3.1-3.2,1.4-3.2,3.1,1.4,3.1,3.2,3.1ZM344.5,273.9c0,1.7,1.4,3.1,3.2,3.1s3-1.4,3-3.1-1.4-3.1-3-3.1-3.2,1.4-3.2,3.1ZM300.9,304.4v-43.9h-5.3v43.9h5.3ZM237.5,304c-2,0-3.4,1.5-3.4,3.4s1.4,3.4,3.4,3.4,3.4-1.6,3.4-3.4-1.4-3.4-3.4-3.4ZM336.3,273.9c0,1.7,1.4,3.1,3.2,3.1s3-1.4,3-3.1-1.3-3.1-3-3.1-3.2,1.4-3.2,3.1ZM525.4,260.5h-5.3v43.9h5.3v-43.9ZM90.7,298.3c1.2,4.2,5,6.1,10.2,6.1h31.5v-6.7h-12.7c-4.8,0-9.7-2.7-9.7-8s3.4-7.5,8.2-7.5,7.3,2.5,8.7,4l3.1-4.5c-1.1-1.9-4.8-6.3-11.3-6.3s-13.7,6.9-13.7,13.8,1.3,6.5,3.5,8.4h-7.4c-5,0-7.3-.9-7.3-6.8v-8.7h-2.2c-1.6,0-3,1.3-3,3v5.9c0,5.8-2.9,6.7-7.3,6.7s-7.2-.9-7.2-6.6v-21.7h-5.1v4.4c-15,2.8-20.3,8.6-20.3,16s4.6,10.8,11.3,10.8,8.1-2.3,9.5-5.3c.9,5.9,4.2,9.1,11.6,9.2,5,0,8.4-2.3,9.6-6.1h0ZM60.7,293.8c-4.2,0-7.3-1.5-7.3-4.8s3.9-7.1,15.6-9.2v10.7c-.9,1.7-3.6,3.4-8.3,3.4ZM92.2,312.1c0,1.7,1.4,3.1,3.2,3.1s3-1.4,3-3.1-1.4-3.1-3-3.1-3.2,1.4-3.2,3.1ZM63.1,262.5c0,1.7,1.4,3.1,3.2,3.1s3-1.4,3-3.1-1.4-3.1-3-3.1-3.2,1.4-3.2,3.1ZM58.1,259.4c-1.7,0-3.2,1.4-3.2,3.1s1.4,3.1,3.2,3.1,3-1.4,3-3.1-1.3-3.1-3-3.1ZM84.1,312.1c0,1.7,1.4,3.1,3.2,3.1s3-1.4,3-3.1-1.3-3.1-3-3.1-3.2,1.4-3.2,3.1ZM70.2,188.9c8.1,4.6,17.2,6.9,27.4,6.9s13.6-1.3,19.7-4c6.1-2.7,10.9-6.3,14.3-10.8v10.7c0,8.1-2.6,14.5-7.7,19.3-5.1,4.8-12.2,7.2-21.1,7.2s-12.5-1.3-16.8-3.8c-3.7-2.2-6.4-5.2-8.2-8.9h-27.6c1.4,6.6,4.2,12.4,8.4,17.2,4.6,5.3,10.6,9.5,18.1,12.3,7.5,2.9,15.9,4.3,25.2,4.3s21.2-2,29.8-5.9c8.6-3.9,15.3-9.5,20.1-16.9s7.2-16.1,7.2-26.2v-104.1h-16.9c-5.8,0-10.5,4.7-10.5,10.5v1.8c-3.7-4.3-8.6-7.6-14.5-10.2-6-2.5-12.6-3.8-19.9-3.8s-19.2,2.3-27.2,7c-8,4.7-14.2,11.2-18.6,19.7-4.5,8.4-6.7,18.3-6.7,29.5s2.2,20.6,6.7,28.8c4.5,8.2,10.8,14.7,18.8,19.2h0ZM75.9,123.6c2.5-4.9,6.1-8.8,10.6-11.5,4.5-2.7,9.7-4.1,15.5-4.1s10.7,1.4,15.2,4.1c4.5,2.7,8.1,6.6,10.6,11.5,2.5,4.9,3.8,10.5,3.8,16.7s-1.2,11.5-3.7,16.5c-2.5,4.9-6,8.8-10.6,11.5-4.6,2.7-9.7,4.1-15.4,4.1s-10.9-1.3-15.5-4c-4.5-2.7-8.1-6.5-10.6-11.5s-3.8-10.6-3.8-16.8,1.3-11.5,3.8-16.5ZM207.3,273.8c0-1.7-1.4-3.1-3-3.1s-3.2,1.4-3.2,3.1,1.4,3.1,3.2,3.1,3-1.4,3-3.1ZM412.2,77.2c8.9,0,16.1-7.2,16.1-16.1s-7.2-16.1-16.1-16.1-16.1,7.2-16.1,16.1,7.2,16.1,16.1,16.1ZM398.4,103.8v96.5h27.4v-114h-9.9c-9.7,0-17.5,7.8-17.5,17.5h0ZM348.7,304.4c14.4,0,19.5-5.7,19.5-15.5s-1.1-9.5-2-13.1l-5.1,1.3c1,4,1.9,8.4,1.9,12.5s-4.4,8.1-14.5,8.1h-11.3c-9.3,0-13.8-2.9-13.8-9.2s.7-5.6,2-9l-4.5-1.6c-1.7,3.9-2.7,8.3-2.7,11.9,0,9.6,5.3,14.6,18.7,14.6h11.7ZM471.7,291.6v-27h-5.3v29c0,7.7,5.3,10.8,12.2,10.8h0c5,0,8.4-2.3,9.6-6.1,1.2,4.2,5,6.1,10.2,6.1s12.7-3.8,12.7-13.3v-30.7h-5.3v31.3c0,5-2.8,6-7.1,6s-7.3-.9-7.3-6.8v-8.7h-2.2c-1.6,0-3,1.3-3,3v5.9c0,5.8-2.9,6.7-7.3,6.7s-7.1-.9-7.1-6.1ZM484.7,276.9c1.8,0,3-1.4,3-3.1s-1.3-3.1-3-3.1-3.2,1.4-3.2,3.1,1.4,3.1,3.2,3.1ZM413.2,315.2c1.8,0,3-1.4,3-3.1s-1.3-3.1-3-3.1-3.2,1.4-3.2,3.1,1.4,3.1,3.2,3.1ZM397.4,276.9c1.9,0,3.4-1.6,3.4-3.4s-1.4-3.4-3.4-3.4-3.4,1.5-3.4,3.4,1.4,3.4,3.4,3.4ZM355.7,176.4c-3.2,2.4-7.5,3.6-13,3.6s-11.2-1.5-14.9-4.5-5.8-7.2-6.1-12.6h-26.6c.4,7.8,2.7,14.7,6.8,20.5,4.1,5.8,9.7,10.4,16.7,13.7,7,3.3,15,4.9,24.1,4.9s16.1-1.5,22.9-4.5c6.7-3,11.9-7.2,15.7-12.5,3.7-5.3,5.6-11.6,5.6-18.8s-2-15.2-5.9-20c-3.9-4.8-8.6-8.3-14-10.4-5.4-2.1-12.3-4.2-20.7-6.1-5.2-1.1-9.3-2.2-12.1-3.2-2.9-1-5.2-2.3-7.1-3.9-1.9-1.6-2.8-3.7-2.8-6.5s1.4-5.7,4.1-7.7c2.7-2,6.4-3,10.9-3s9.8,1.3,13.3,4c3.5,2.7,5.6,6.2,6.3,10.6h26c-.5-7.3-2.7-13.5-6.6-18.8-3.9-5.3-9.1-9.4-15.9-12.3-6.7-2.9-14.6-4.3-23.7-4.3s-14.9,1.4-21.1,4.2c-6.3,2.8-11,6.7-14.3,11.7-3.3,5-4.9,10.6-4.9,16.8s1.9,13.8,5.6,18.3c3.7,4.5,8.1,7.8,13.2,9.8,5.1,2,11.7,3.9,20,5.9,5.4,1.5,9.6,2.8,12.7,3.8,3.1,1,5.7,2.5,7.7,4.3,2.1,1.9,3.1,4.3,3.1,7.3s-1.6,7.2-4.7,9.6h0ZM448.5,279.1c-6.9,0-12,4.8-14.1,14-1.2,4-4.3,4.6-7.2,4.6-5,0-7.3-.9-7.3-6.8v-8.7h-2.2c-1.6,0-3,1.3-3,3v5.9c0,5.8-2.9,6.7-7.3,6.7s-7.3-.9-7.3-6.8v-8.7h-2.2c-1.6,0-3,1.3-3,3v5.9c0,5.8-2.8,6.7-7.3,6.7-4.4,0-7.4-.9-7.4-6.1v-31.1h-5.3v33.2c0,7.5,5,10.7,12.1,10.7,5.1,0,8.7-2.3,9.9-6.1,1.2,4.2,5,6.1,10.2,6.1s8.4-2.3,9.6-6.1c1.2,4.2,5,6.1,10.2,6.1s7.6-1.9,9.1-5.4c.7,1.7,2.3,3.3,4.6,4.4,1.7.8,3.8,1.3,6.2,1.3,8.1,0,13.2-5,13.2-12.3s-4.7-13.2-11.5-13.2h0ZM447.5,298.1c-5.1,0-7.8-1.9-8.9-3.7,1.4-5.3,4.7-8.6,9.3-8.6s7.4,3.2,7.4,7.2-2.8,5.1-7.7,5.1ZM238.9,283.4c-5.6-3.1-9.1-5.9-15.2-5.9s-10.1,2.9-11.5,4.9l2.2,4.4c1.7-1.1,4.5-2.7,8.7-2.7s8.1,2,13.4,4.5c.7.4,1.4.7,2,1.1-6.4,3.6-11.6,5.7-16.1,6.8-4.7,1.2-8.6,1.3-12.4,1.3s-7.3-.9-7.3-6.8v-8.7h-2.2c-1.6,0-3,1.3-3,3v5.9c0,.3,0,.6,0,.8-.3,5.1-3,5.9-7.3,5.9-4,0-5.9-1.4-7.2-6.4-2.2-8.1-6.3-12.2-12.4-12.2s-13.5,6.6-13.5,14.6,0,1.1,0,1.5c-1.3,1.8-3.9,2.5-7,2.4-4.2,0-7.2-1-7.2-6.1v-31.1h-5.3v33.2c0,7.5,5.1,10.8,12.3,10.7,3.9,0,7.3-1.5,9-4.3,2,2.9,5.5,4.5,10.2,4.5s9.6-2.8,11.2-5.7c1.6,3.6,5,5.5,9.4,5.4,4.4,0,7.6-1.8,9.1-4.7.2-.4.4-.9.6-1.4,1.2,4.2,5,6.1,10.2,6.1,10.4,0,18.6-2.1,32.4-11.8h10.8l.4-6.9h-6.7c-3.6,0-4.7-.5-8-2.3h0ZM169.9,298.1c-5,0-7.8-2-7.8-5,0-4.2,3.4-7.3,7.9-7.3s7.3,3.4,8.6,8.5c-1.1,1.8-3.8,3.7-8.7,3.7ZM421.3,309c-1.8,0-3.2,1.4-3.2,3.1s1.4,3.1,3.2,3.1,3-1.4,3-3.1-1.4-3.1-3-3.1ZM199.2,273.8c0-1.7-1.3-3.1-3-3.1s-3.2,1.4-3.2,3.1,1.4,3.1,3.2,3.1,3-1.4,3-3.1ZM260.9,92.2c-9-5-19.3-7.5-30.8-7.5s-21.8,2.5-30.8,7.5c-9,5-16,12-21.1,20.9-5.1,8.9-7.6,19-7.6,30.3s2.5,21.3,7.6,30.3c5.1,8.9,12.1,15.9,21.1,20.9,9,5,19.3,7.5,30.8,7.5s21.8-2.5,30.8-7.5c9-5,16-12,21.1-20.9,5.1-8.9,7.6-19,7.6-30.3s-2.5-21.3-7.6-30.3c-5.1-8.9-12.1-15.9-21.1-20.9ZM257.9,161.8c-2.7,5.3-6.5,9.4-11.2,12.3-4.7,2.9-10.4,4.4-16.6,4.4s-11.8-1.5-16.6-4.4c-4.7-2.9-8.5-7.1-11.2-12.3-2.7-5.3-4.1-11.4-4.1-18.4s1.4-13.1,4.1-18.4c2.7-5.3,6.5-9.4,11.2-12.3,4.7-2.9,10.4-4.4,16.6-4.4s11.8,1.5,16.6,4.4c4.7,2.9,8.5,7.1,11.2,12.3,2.7,5.3,4.1,11.4,4.1,18.4s-1.4,13.1-4.1,18.4ZM282.5,284.7c3.7-3.4,4.4-6.4,4.4-11.8v-12.4h-5.3v15.1c-.2,2.5-.8,4.2-2.7,6.2-4.7-3.6-12-8.6-20.7-14.9l-3,5.1c8.7,5.9,14.6,10,19.4,13.6l-15.8,12.5v6.4h16.4c7.9,0,12.8-3.3,12.8-10.2s-2.2-6.6-5.4-9.5ZM275.5,297.8h-9.9l12.6-9.5c2.9,2.1,5,4,5,6.3s-3.3,3.3-7.6,3.3h0ZM156.6,322.9c-2.1,0-3.9,1.6-3.9,3.9s1.8,3.9,3.9,3.9,4-1.7,4-3.9-1.8-3.9-4-3.9ZM136.8,340.8c3.9,0,6,1.1,8.3,2.7l1.7-5c-2.7-2.1-6-3-10.3-3-8.3,0-16.1,5.8-16.1,16.7s7.5,16,15.9,16,7.9-1.1,10.3-2.8l-1.3-4.6c-2.9,1.7-5.4,2.3-8.8,2.3-5.4,0-10-4.1-10-11.1s4.8-11.2,10.1-11.2h0ZM98,335.5c-8.3,0-16.6,5.7-16.6,16.5s8,16.2,16.5,16.2,17.1-5.7,17.1-16.5-8.7-16.2-16.9-16.2ZM98.1,363c-5.7,0-10.4-3.6-10.4-11.3s5.2-11.1,10.4-11.1,10.5,3.8,10.5,11.3-4.8,11-10.6,11ZM194.2,341.8c-2.7-4.1-6.5-6.3-11.6-6.3-8.5,0-15.3,5.9-15.3,16.4s7,16.3,15.3,16.3,8.9-2.3,11.6-6.8v6.1h6v-31.3h-6v5.5h0ZM194.2,352c-1.4,6.4-5.2,11-11,11s-9.6-4.1-9.6-11.1,4.1-11.1,9.6-11.1,9.8,4.5,11,11v.2ZM153.6,367.6h6v-31.3h-6v31.3ZM209.8,367.6h6v-41.9h-6v41.9ZM55.4,336.8c0-3.4,2.5-6.3,7.9-6.3s7.3,1.4,9.7,2.9l1.9-5.2c-2.4-1.9-7.3-3.1-11.7-3.1-8.2,0-14.1,5-14.1,12.4,0,14.9,20.7,9.8,20.7,18.8s-3,6.6-8.8,6.6-8-1.4-10.9-3.2l-1.4,5.6c3,1.8,8.1,3,12.4,3,8.3,0,15-4.8,15-12.5,0-13.9-20.6-8.8-20.6-19h0ZM412.3,341.8c-2.7-4.1-6.5-6.3-11.6-6.3-8.5,0-15.3,5.9-15.3,16.4s7,16.3,15.3,16.3,8.9-2.3,11.6-6.8v6.1h6v-31.3h-6v5.5h0ZM412.3,352c-1.4,6.4-5.2,11-11,11s-9.6-4.1-9.6-11.1,4.1-11.1,9.6-11.1,9.8,4.5,11,11v.2ZM242.7,367.6h6.2v-41.9h-6.2v41.9ZM480.5,340.8c3.9,0,6,1.1,8.3,2.7l1.7-5c-2.7-2.1-6-3-10.3-3-8.3,0-16.1,5.8-16.1,16.7s7.5,16,15.9,16,7.9-1.1,10.3-2.8l-1.3-4.6c-2.9,1.7-5.4,2.3-8.8,2.3-5.4,0-10-4.1-10-11.1s4.8-11.2,10.1-11.2h0ZM525.4,351.9c0-11.1-6.7-16.4-15-16.4s-15.6,6.2-15.6,16.6,6.1,16,16.5,16,9.5-1.2,12.6-3.3l-1.1-4.5c-3.8,2.1-7,2.7-10.7,2.7-6.6,0-10.3-3-10.9-9.3h24.2c.1-.5.2-1.3.2-2h0ZM501.2,349.6c.7-6,4.2-9,9.2-9s8.2,2.9,8.8,9h-18ZM446.1,335.6c-5,0-9.1,2.5-12.2,7.5v-6.7h-6v31.3h6v-16.8c2.6-6.7,5.9-10,10.8-10s6.3,2.5,6.3,8.3v18.5h6v-19.1c0-10-5-12.9-10.9-12.9ZM276.7,335.6c-5,0-9.1,2.5-12.2,7.5v-6.7h-6v31.3h6v-16.8c2.6-6.7,5.9-10,10.8-10s6.3,2.5,6.3,8.3v18.5h6v-19.1c0-10-5-12.9-10.9-12.9ZM301.2,344.8c0-2.7,2.8-4.2,6.4-4.2s6,1,8.8,2.6l1.3-5.1c-2.7-1.5-6.7-2.5-10.2-2.5-7.8,0-12.2,3.9-12.2,9.6,0,12.8,17.5,6.7,17.5,13.9s-2.8,4.3-6.9,4.3-7.2-1.1-9.8-2.7l-1.3,5.1c2.5,1.3,6.8,2.5,11,2.5,7.2,0,12.9-3.8,12.9-9.7,0-11.9-17.4-5.8-17.4-13.8h0ZM369.7,342.9v-6.6h-6v31.3h6v-16.9c2.2-5.8,5.8-9.8,10-9.8s1.8.2,2.6.5l1-5.2c-1-.4-2.1-.5-3.2-.5-4.5,0-8,3.1-10.5,7.2h0ZM348.2,353.2c-2.5,6.6-5.8,9.7-10.4,9.7s-6.2-2.5-6.2-8.2v-18.4h-6v18.9c0,10,5,12.9,10.7,12.9s8.9-2.3,11.9-7v6.4h6v-31.3h-6v16.9Z"/>
      <path class="cls-2" d="M527.7,143.3l-52,52c-2.8,3.2-6.8,5-11,5h-11.4c0-24.6,24-46,44.2-57-20.2-11-44.2-32.4-44.2-57h11.4c4.2,0,8.2,1.8,11,5l52,52h0Z"/>
    </g>
  </g>
</svg>