<?xml version="1.0" encoding="utf-8"?>
<!-- Generator: Adobe Illustrator 25.0.0, SVG Export Plug-In . SVG Version: 6.00 Build 0)  -->
<svg version="1.1" id="Layer_1" xmlns="http://www.w3.org/2000/svg" xmlns:xlink="http://www.w3.org/1999/xlink" x="0px" y="0px"
	 viewBox="0 0 728.8 491.5" style="enable-background:new 0 0 728.8 491.5;" xml:space="preserve">
<style type="text/css">
	.st0{fill:#158285;}
	.st1{fill:#F7941D;}
	.st2{fill:#2BB574;}
	.st3{fill:#FCB614;}
</style>
<g>
	<g>
		<g>
			<path class="st0" d="M33.9,260.4c1.7,0,3.2-1,3.2-2.9c0-1.7-1.4-2.9-3.2-2.9c-1.8,0-3.2,1.2-3.2,2.9
				C30.7,259.4,32.3,260.4,33.9,260.4z"/>
			<path class="st0" d="M42.4,260.4c1.7,0,3.2-1,3.2-2.9c0-1.7-1.4-2.9-3.2-2.9c-1.8,0-3.2,1.2-3.2,2.9
				C39.2,259.4,40.8,260.4,42.4,260.4z"/>
			<path class="st0" d="M49.9,292.1c-1.8,0-3.2,1.2-3.2,2.9c0,1.9,1.5,2.9,3.2,2.9c1.7,0,3.2-1,3.2-2.9
				C53.1,293.3,51.7,292.1,49.9,292.1z"/>
			<path class="st0" d="M58.5,292.1c-1.8,0-3.2,1.2-3.2,2.9c0,1.9,1.5,2.9,3.2,2.9c1.7,0,3.2-1,3.2-2.9
				C61.7,293.3,60.3,292.1,58.5,292.1z"/>
			<path class="st0" d="M78.4,276.2c0-4.1,2.6-6.5,6.2-6.5c2,0,3.9,0.6,6.2,1.7l1.7-4.7c-3-1.3-5.9-2-8.3-2
				c-6.3,0-10.7,3.8-10.7,10.7c0,2,0.5,4.5,1.6,7.6H64.3v-18h-5.1v18H45.4v-18h-8.3c-7.9,0-13.1,4.8-13.1,11.6v0
				c0,6.8,5,11.5,12.4,11.5h57v-5.1H80.7C79.2,280.7,78.4,278.3,78.4,276.2z M40.3,282.9H36c-4.1,0-7.2-2.6-7.2-6.4v0
				c0-3.9,3-6.5,7.2-6.5h4.3V282.9z"/>
			<path class="st0" d="M138.9,261.4c1.7,0,3.2-1,3.2-2.9c0-1.7-1.4-2.9-3.2-2.9c-1.8,0-3.2,1.2-3.2,2.9
				C135.7,260.4,137.2,261.4,138.9,261.4z"/>
			<path class="st0" d="M147.4,261.4c1.7,0,3.2-1,3.2-2.9c0-1.7-1.4-2.9-3.2-2.9c-1.8,0-3.2,1.2-3.2,2.9
				C144.2,260.4,145.7,261.4,147.4,261.4z"/>
			<path class="st0" d="M170.5,264.4c-2.9,0-5.6,0.9-8.4,2.4l1.8,4.7c2.4-1.4,4-1.9,6.3-1.9c6.2,0,7.4,7.2,10.8,13.4H155v-18H150v18
				h-13.8v-6.2c0-7.4-4.5-12.3-11.3-12.3h0c-6.8,0-11.3,4.9-11.3,12.3l0-0.1c0,4.4-2.1,6.4-6.2,6.4h-3.5v-27.3h-5.1v32.5h8.6
				c3.7,0,6.9-0.9,8.4-3.7c2,2.8,5.2,3.7,9.1,3.7h0c0,0,11.3,0,11.3,0h51.5v-5.1C182.9,280.8,182.8,264.4,170.5,264.4z M131.1,282.9
				h-6.2c-3.7,0-6.2-2.1-6.2-6.3v0c0-4.2,2.5-7,6.2-7h0c3.7,0,6.2,2.8,6.2,7V282.9z"/>
			<path class="st0" d="M173.7,292.1c-1.8,0-3.3,1.2-3.3,2.9c0,2,1.6,3,3.3,3c1.7,0,3.2-1,3.2-3
				C176.9,293.2,175.5,292.1,173.7,292.1z"/>
			<polygon class="st0" points="212.1,282.9 194,282.9 194,288.1 217.2,288.1 217.2,255.6 212.1,255.6 			"/>
			<rect x="199.4" y="258.8" class="st0" width="5.1" height="21.4"/>
			<rect x="223.8" y="255.6" class="st0" width="5.1" height="32.5"/>
		</g>
		<g>
			<path class="st0" d="M247,257.5c0,1.9,1.5,2.9,3.2,2.9c1.7,0,3.2-1,3.2-2.9c0-1.7-1.4-2.9-3.2-2.9
				C248.4,254.5,247,255.7,247,257.5z"/>
			<path class="st0" d="M255.5,257.5c0,1.9,1.5,2.9,3.2,2.9c1.7,0,3.2-1,3.2-2.9c0-1.7-1.4-2.9-3.2-2.9
				C256.9,254.5,255.5,255.7,255.5,257.5z"/>
			<path class="st0" d="M266.2,292.1c-1.8,0-3.2,1.2-3.2,2.9c0,1.9,1.5,2.9,3.2,2.9c1.7,0,3.2-1,3.2-2.9
				C269.4,293.3,268,292.1,266.2,292.1z"/>
			<path class="st0" d="M274.7,292.1c-1.8,0-3.2,1.2-3.2,2.9c0,1.9,1.5,2.9,3.2,2.9c1.7,0,3.2-1,3.2-2.9
				C277.9,293.3,276.5,292.1,274.7,292.1z"/>
			<path class="st0" d="M320.2,261.5c1.7,0,3.2-1,3.2-3c0-1.8-1.4-2.9-3.2-2.9c-1.8,0-3.3,1.2-3.3,2.9
				C317,260.5,318.5,261.5,320.2,261.5z"/>
			<path class="st0" d="M337.3,255.6c-1.8,0-3.2,1.2-3.2,2.9c0,1.9,1.5,2.9,3.2,2.9c1.7,0,3.2-1,3.2-2.9
				C340.5,256.8,339.1,255.6,337.3,255.6z"/>
			<path class="st0" d="M343.1,258.5c0,1.9,1.5,2.9,3.2,2.9c1.7,0,3.2-1,3.2-2.9c0-1.7-1.4-2.9-3.2-2.9
				C344.5,255.6,343.1,256.8,343.1,258.5z"/>
			<path class="st0" d="M365.4,282.9h-10.7v-18h-5.1v18h-15.4v-18h-5.1v18h-14.6v-6.2c0-7.4-4.5-12.3-11.3-12.3h0
				c-6.8,0-11.3,4.9-11.3,12.3l0-0.1c0,4.4-2.1,6.4-6.2,6.4h-5.2v-18h-5.1v18h-13.8v-18h-8.3c-7.9,0-13.1,4.8-13.1,11.6v0
				c0,6.8,5,11.5,12.4,11.5h33c3.7,0,6.9-0.9,8.4-3.7c2,2.8,5.2,3.7,9.1,3.7h0c0,0,11.3,0,11.3,0h55.9v-32.5h-5.1V282.9z
				 M256.6,282.9h-4.3c-4.1,0-7.2-2.6-7.2-6.4v0c0-3.9,3-6.5,7.2-6.5h4.3V282.9z M309.4,282.9h-6.2c-3.7,0-6.2-2.1-6.2-6.3v0
				c0-4.2,2.5-7,6.2-7h0c3.7,0,6.2,2.8,6.2,7V282.9z"/>
			<rect x="377" y="255.6" class="st0" width="5.1" height="32.5"/>
			<path class="st0" d="M399.5,264.9c-7.9,0-13.1,4.8-13.1,11.6v0c0,6.8,5,11.5,12.4,11.5h3.9c-0.1,2.8-2.1,3.7-4.9,3.7
				c-2.2,0-4.4-0.4-6.7-1.1l1,5.4c2,0.6,3.8,0.8,5.9,0.8c6.5,0,9.8-2.4,9.8-10.1v-21.8H399.5z M402.8,276.4L402.8,276.4l0,6.5h-4.3
				c-4.1,0-7.2-2.6-7.2-6.4v0c0-3.9,3-6.5,7.2-6.5h4.3V276.4z"/>
		</g>
		<g>
			<path class="st0" d="M290.9,224.5c0-7.3-3.4-11.1-10.9-11.1h-3.6v5.1h4.3c3.5,0,5.3,1.8,5.3,5.5v7.4h-14.1v5.1h18.9V224.5z"/>
			<path class="st0" d="M303.8,235.6v-22.2h-5.1v23c0,3.2-1.5,4.3-3.6,4.3c-1,0-1.9-0.1-3.2-0.2l-0.5,4.4c1,0.2,2.1,0.4,3.2,0.4
				C300,245.4,303.8,243.2,303.8,235.6z"/>
			<rect x="309.7" y="204.1" class="st0" width="5.1" height="32.5"/>
			<path class="st0" d="M331.6,236.5h3.9c-0.1,2.8-2.1,3.7-4.9,3.7c-2.2,0-4.4-0.4-6.7-1.1l1,5.4c2,0.6,2.8,0.8,4.9,0.8
				c6.1,0,10.4-2.1,10.8-8.8h10.9v0c3.5-0.1,6.5-1,7.9-3.7c2,2.8,5.2,3.7,9.1,3.7h0c0,0,11.3,0,11.3,0h15.7v-32.5h-5.1v27.3h-10.6
				v-6.2c0-7.4-4.5-12.3-11.3-12.3h0c-6.8,0-11.3,4.9-11.3,12.3l0-0.1c0,4.4-2.1,6.4-6.2,6.4h-10.4v-18h-8.3
				c-7.9,0-13.1,4.8-13.1,11.6v0C319.1,231.8,324.1,236.5,331.6,236.5z M362.2,225.1c0-4.2,2.5-7,6.2-7h0c3.7,0,6.2,2.8,6.2,7v6.3
				h-6.2C364.7,231.4,362.2,229.3,362.2,225.1L362.2,225.1z M324,225c0-3.9,3-6.5,7.2-6.5h4.3v6.4h0v6.5h-4.3
				C327,231.4,324,228.9,324,225L324,225z"/>
			<rect x="402.1" y="204.1" class="st0" width="5.1" height="32.5"/>
		</g>
		<g>
			<path class="st0" d="M128.6,208.9c1.7,0,3.2-1,3.2-2.9c0-1.7-1.4-2.9-3.2-2.9c-1.8,0-3.2,1.2-3.2,2.9
				C125.4,207.9,126.9,208.9,128.6,208.9z"/>
			<path class="st0" d="M120.1,208.9c1.7,0,3.2-1,3.2-2.9c0-1.7-1.4-2.9-3.2-2.9c-1.8,0-3.2,1.2-3.2,2.9
				C116.9,207.9,118.4,208.9,120.1,208.9z"/>
			<path class="st0" d="M122.6,236.5h27.8v-23.1h-5.1v18h-13.8v-18h-8.3c-7.9,0-13.1,4.8-13.1,11.6v0
				C110.2,231.8,115.2,236.5,122.6,236.5z M115,225c0-3.9,3-6.5,7.2-6.5h4.3v12.9h-4.3C118.1,231.4,115,228.9,115,225L115,225z"/>
			<path class="st0" d="M195.8,206.2c1.6,0,3-0.9,3-2.7c0-1.6-1.3-2.7-3-2.7c-1.7,0-3,1.1-3,2.7
				C192.8,205.3,194.3,206.2,195.8,206.2z"/>
			<path class="st0" d="M191.7,212.6c1.6,0,3.1-1,3.1-2.8c0-1.7-1.4-2.8-3.1-2.8c-1.7,0-3.1,1.1-3.1,2.8
				C188.6,211.7,190.1,212.6,191.7,212.6z"/>
			<path class="st0" d="M196.9,209.8c0,1.9,1.4,2.8,3.1,2.8c1.6,0,3.1-1,3.1-2.8c0-1.7-1.3-2.8-3.1-2.8
				C198.2,207,196.9,208.1,196.9,209.8z"/>
			<path class="st0" d="M248.4,204.1h-5.1v27.3h-10v-18h-5.1v18h-13.8v-18h-5.1v18h-10.7v-14.8h-5.1v14.8h-9.3v-14.8h-5.1v14.8
				h-13.1v-18.5h-5.1v23.5c0,3.2-1.5,4.3-3.6,4.3c-1,0-1.9-0.1-3.2-0.2l-0.5,4.4c1,0.2,2.1,0.4,3.2,0.4c5.2,0,9-2,9.2-8.8h82.3
				V204.1z"/>
			<rect x="255" y="204.1" class="st0" width="5.1" height="32.5"/>
			<path class="st0" d="M139,243.5c0-1.7-1.4-2.9-3.2-2.9c-1.8,0-3.2,1.2-3.2,2.9c0,1.9,1.5,2.9,3.2,2.9
				C137.5,246.4,139,245.4,139,243.5z"/>
			<path class="st0" d="M147.5,243.5c0-1.7-1.4-2.9-3.2-2.9c-1.8,0-3.2,1.2-3.2,2.9c0,1.9,1.5,2.9,3.2,2.9
				C146,246.4,147.5,245.4,147.5,243.5z"/>
			<path class="st0" d="M221.3,240.6c-1.8,0-3.2,1.2-3.2,2.9c0,1.9,1.5,2.9,3.2,2.9c1.7,0,3.2-1,3.2-2.9
				C224.5,241.8,223.2,240.6,221.3,240.6z"/>
		</g>
	</g>
	<g>
		<path class="st0" d="M543.1,195.6c1.1,0.2,2.1,0.4,3.2,0.5c5-9.1,10.6-17.6,17-25.5c-15.5-12.1-33.2-21.8-53.9-29L543.1,195.6z
			 M630,264l-55.5-18l65.2,104.3C643.6,318.9,639.9,290.7,630,264z"/>
		<path class="st1" d="M539.1,223.8c24-38.4,55.3-66.5,100.6-82.1L574.6,246l-65.2,104.3C503.6,302.7,515.1,262.3,539.1,223.8z"/>
		<path class="st2" d="M445.1,203.9l69.3,22.5c7.3-4,14.8-7.7,22.6-11c1-2.5,2.1-4.9,3.2-7.3c1.9-4.1,3.9-8.1,6-12
			C512.8,190.8,479.6,192.6,445.1,203.9z M634.7,226.5L574.6,246L704,288.1C684.7,261.3,661.5,241.4,634.7,226.5z"/>
		<path class="st3" d="M445.1,288.1l74-24c2.7-7.2,5.8-14.2,9.3-21.2c2.1-9.2,5-18.4,8.7-27.4C500.4,231.1,469.7,254,445.1,288.1z
			 M606.1,195.6L574.6,246L704,203.9C670.7,193,638.4,190.9,606.1,195.6z"/>
	</g>
</g>
</svg>
