<?xml version="1.0" encoding="utf-8"?>
<!-- Generator: Adobe Illustrator 24.2.3, SVG Export Plug-In . SVG Version: 6.00 Build 0)  -->
<svg version="1.1" id="Layer_1" xmlns="http://www.w3.org/2000/svg" xmlns:xlink="http://www.w3.org/1999/xlink" x="0px" y="0px"
	 viewBox="0 0 1000 1000" style="enable-background:new 0 0 1000 1000;" xml:space="preserve">
<style type="text/css">
	.st0{fill:#00524D;}
	.st1{fill:#FFFFFF;}
</style>
<g>
	<path class="st0" d="M621.4,620.6l-2.4,0.5l-9.7,9.7c31-6.6,75.8-10.7,125.5-10.7c49.7,0,94.5,4.2,125.5,10.7l10.4-10.4
		c-31.9-6.7-77.1-10.5-124.2-10.5C699.1,609.9,653.4,613.8,621.4,620.6"/>
	<path class="st0" d="M619.1,621.1l0.5-2.4c6.8-32,10.7-77.7,10.7-125.3c0-47.1-3.8-92.3-10.4-124.2l-10.4,10.4
		c6.6,31.1,10.7,75.8,10.7,125.6c0,49.7-4.1,94.5-10.7,125.6L619.1,621.1z"/>
	<path class="st0" d="M780.9,537.8c-9.7,6.5-19.3,14.1-27.4,21c4.5,4.2,9.1,8.7,13.7,13.6l0.4-0.4h0.9l0.2,0.6l0.7-1
		c-0.4-1.1-0.1-2.4,0.9-3.2c1.2-1.1,3-1.1,4,0c1,1.1,0.7,2.9-0.5,3.9c-0.8,0.7-1.8,1-2.7,0.7c-0.6,1-0.2,2-0.2,2
		c1.2,2.7,6.4,5.1,10.6,5c3.1,0,5.3-1,8.5-4.2c3.6-3.7,6.8,0.1,6.8,0.1c5.1,7.3-5.3,14-12.6,14.1c-8.9,0.2-17-5.3-19.1-7.8
		c-0.8-0.9-1.3-1.2-2-0.9c-0.4,0.2-0.6,0.8-0.7,1.4c0.1,1-0.3,2-1.1,2.6c-1.2,1.1-3,1.1-4,0c-1-1.1-0.8-2.9,0.5-4
		c0.6-0.6,1.5-0.8,2.2-0.8l0.3-0.1l-0.3-0.2v-0.9l1-1c-1.9-1.8-7.2-7-14.5-13.6c-7.3,6.5-12.6,11.7-14.5,13.6l1,1v0.9l-0.3,0.2
		l0.2,0.1c0.8,0,1.6,0.2,2.2,0.8c1.3,1.1,1.5,2.9,0.5,4c-1,1.1-2.8,1.1-4,0c-0.8-0.7-1.2-1.7-1.1-2.6c-0.1-0.6-0.4-1.2-0.7-1.4
		c-0.7-0.4-1.2,0-2,0.9c-2.1,2.5-10.2,8-19.1,7.8c-7.3-0.1-17.7-6.8-12.6-14.1c0,0,3.2-3.7,6.9-0.1c3.2,3.2,5.4,4.2,8.5,4.2
		c4.1,0.1,9.3-2.3,10.5-5c0,0,0.4-1-0.3-2c-0.9,0.2-1.9,0-2.7-0.7c-1.2-1.1-1.4-2.9-0.5-3.9c1-1.1,2.7-1.1,4,0
		c1,0.9,1.3,2.2,0.9,3.2l0.7,1l0.2-0.6h0.9l0.4,0.4c4.6-4.9,9.2-9.4,13.7-13.6c-8.1-6.9-17.7-14.5-27.4-21
		c-30.4-20.2-53.3-18.3-53.3-18.3c17.2-6.4,38.8-0.2,48.6,5.4c7,3.9,22,13.2,39,27.7c16.9-14.5,31.9-23.8,39-27.7
		c9.8-5.6,31.4-11.8,48.6-5.4C834.2,519.6,811.3,517.6,780.9,537.8 M697.9,441.3c0.5-2.1,3.4-3.8,3.4-3.8l0.3-0.2V437
		c-0.2-4.2,3.1-4.6,3.2-4.6l0.5-0.1l0-0.5c-0.1-0.6,0-1.1,0.4-1.5c0.6-0.8,2-1.2,3.9-1.2c1.2,0,2.3,0.2,2.3,0.2l0.8,0.1l-0.2-0.8
		c-0.1-0.5-0.1-0.9,0.1-1.1c0.2-0.3,0.7-0.5,1.4-0.5c2.2,0,5.6,1.4,5.6,1.4l0.8,0.3l-0.1-0.9c-0.1-0.5,0-0.9,0.2-1.2
		c0.3-0.4,0.9-0.5,1.8-0.5c2,0,4.6,1,4.6,1l0.2,0.1c0.7,0.5,1.8,0.8,3.3,0.8c0.2,1,1,3,4.6,4.8l0.1,0c0,0,1.9,0.5,4.2,1.1
		c1.4,0.4,2.9,0.9,4.2,1.4l0.1,0.1l-1.4,0.2c-4.2,0.9-9,2.8-9.7,3c-0.7,0.1-1.3,0.1-1.9,0.1c-3.8,0-4.5-1.8-4.6-1.8l-0.2-0.6
		l-0.5,0.4c-1.5,1.1-2.8,1.6-3.9,1.6h-0.1l-0.5-0.1l-0.5-0.1c-0.6-0.2-0.9-0.6-0.9-0.6l-0.3-0.4l-0.4,0.3c-1.4,1.2-2.9,1.8-4.4,1.8
		c-1.4,0-2.3-0.5-2.3-0.5l-0.3-0.2l-0.3,0.2c-3.1,2.6-6.5,3.5-6.5,3.5l-0.1,0l-0.1,0.1c-0.6,0.7-2,1-4,1c-1.1,0-2-0.1-2.4-0.1
		C697.9,442.5,697.8,442,697.9,441.3 M708.9,417.5c1-1.1,3.1-1.2,3.7-1.2h0.2l0.3,0l0.1-0.3c0.7-1.4,1.6-2.1,2.8-2.1
		c0.7,0,1.3,0.3,1.3,0.3l0.5,0.2l0.2-0.5c0.3-0.6,0.7-1,1.3-1c1.8,0,4.3,2.3,4.3,2.3l0.6,0.6l0.2-0.9c0.2-0.8,0.5-0.8,0.6-0.8
		c1.1,0,3.3,2.5,4.4,4.1l0.5,0.7l0.4-0.8c0.3-0.7,0.6-0.7,0.9-0.7l0.1,0c0.5,0.7,1.3,1.3,2.5,1.8c0,0.9,0.3,2.6,2.9,4
		c-0.2,0.9-0.2,2.7,2,5.5l0.1,0.1c0,0,2.9,2.3,5.1,4.6l1.2,1.3l0.1,0.1l0,0.1c-0.8-0.4-1.7-0.8-2.7-1.1c-3.2-1.2-6.9-2-7.4-2.1
		c-3.8-1.9-3.9-3.8-3.9-4.1v-0.1l0.1-0.5v-0.2l-0.4,0l-0.3,0c-0.6,0-1.2,0-1.7-0.1l-0.5-0.1l-1.2-0.5l-0.5-0.3
		c-0.6-0.6-0.7-1.2-0.7-1.2l-0.1-0.5l-0.5,0.1l-1.1,0.1c-3,0-4.3-2.2-4.3-2.3l-0.2-0.3l-0.3,0.1c-0.5,0-1.1,0.1-1.7,0.1
		c-2.5,0-4.4-0.6-4.4-0.6l-0.1,0l-0.1,0l-0.4,0.1c-1.4,0-3.6-1.6-4.5-2.4C708.4,418.2,708.6,417.8,708.9,417.5 M725,406.6
		c1.2,0,2.6,0.8,2.6,0.8l0.3,0.2l0.3-0.2c0.6-0.5,1.2-0.7,1.7-0.7c1.1,0,1.9,1,1.9,1l0.3,0.5l0.4-0.4l0.7-0.3c1.2,0,2.6,2.6,3,3.6
		l0.4,0.8l0.5-0.7l0.5-0.4c0.7,0,1.7,2.5,2.2,4.9l0.2,0.9l0.6-0.6l0.6-0.3c0.9,5.2,3.2,13.2,4.4,17.6l0.2,0.6l-1.1-1.2l-1.2-1.2
		c-1.7-1.7-3.5-3.2-3.8-3.4c-2.5-3.1-1.6-4.7-1.6-4.7l0.3-0.5l0-0.1l-0.1,0l-0.5-0.2c-0.9-0.4-1.5-0.9-1.9-1.3
		c-0.7-0.7-0.9-1.4-0.9-1.8V419l0.1-0.4l0-0.2l-0.3-0.1l-0.1-0.1c-1.3-0.4-2.1-1.2-2.6-1.9c-0.6-0.9-0.7-1.8-0.7-1.9l0-0.4l-0.3-0.1
		c-2.7-1-4.5-2.8-4.5-2.8l-0.1-0.1l-0.1,0c-1-0.2-2.2-2.2-2.9-3.6C723.7,406.8,724.2,406.6,725,406.6 M741.8,411.7h0.4l-0.1-0.6
		c-0.4-3.9-0.1-7.1,0.7-8l0.4-0.2l0.4,0.1l0.6,0.3l0.1-0.7c0.6-3.1,1.7-4.8,2.3-5.7c0.7,0.9,1.8,2.6,2.4,5.7l0.1,0.7l0.6-0.3
		l0.4-0.1l0.4,0.2c0.7,0.9,1,4.2,0.6,8l0,0.6h0.4c0.1,0.4,0,1.5-0.3,3l-0.1,0.9l-0.3,1.4c-0.8,3.7-2.1,8.7-3.6,13.8l-0.1,0.3
		l-0.4,1.5l-0.1,0.2l0-0.2l-0.4-1.5l-0.1-0.3c-1.5-5.1-2.7-10.2-3.5-13.8l-0.3-1.4l-0.1-0.9C741.8,413.1,741.7,412.1,741.8,411.7
		 M752.6,415.8l0.7,0.6l0.2-0.9c0.5-2.3,1.5-4.9,2.3-4.9l0.4,0.4l0.5,0.7l0.3-0.8c0.4-1,1.8-3.6,3.1-3.6l0.7,0.3l0.4,0.4l0.3-0.5
		c0,0,0.7-1,1.9-1c0.6,0,1.2,0.3,1.8,0.7l0.3,0.2l0.2-0.2c0,0,1.4-0.8,2.6-0.8c0.7,0,1.2,0.3,1.5,0.9c-0.7,1.4-1.9,3.5-2.9,3.6
		l-0.1,0l-0.1,0.1c0,0-1.9,1.8-4.5,2.8l-0.3,0.1l0,0.4c0,0-0.1,0.9-0.7,1.9c-0.5,0.7-1.3,1.5-2.6,1.9l-0.1,0.1l-0.3,0.1l0.1,0.2
		l0.1,0.4l0,0.3c0,0.4-0.2,1.1-0.9,1.8c-0.5,0.4-1,0.9-1.9,1.3l-0.4,0.2l-0.1,0v0.1l0.3,0.5c0,0,0.8,1.6-1.6,4.7
		c-0.3,0.2-2.1,1.7-3.9,3.4l-1.2,1.2l-1.1,1.2l0.2-0.6c1.3-4.4,3.6-12.4,4.5-17.6L752.6,415.8z M775.1,413.9l0.2,0.5l0.5-0.2
		c0,0,0.5-0.3,1.3-0.3c1.2,0,2.1,0.7,2.8,2.1l0.2,0.3l0.3,0h0.2c0.6,0,2.7,0.1,3.7,1.2c0.3,0.3,0.5,0.8,0.5,1.3
		c-0.9,0.8-3.2,2.4-4.5,2.4l-0.3-0.1l-0.1,0l-0.1,0c0,0-1.9,0.6-4.4,0.6c-0.6,0-1.2,0-1.7-0.1l-0.4-0.1l-0.1,0.3
		c0,0.1-1.3,2.3-4.3,2.3l-1.1-0.1l-0.5-0.1l-0.1,0.5c0,0-0.1,0.6-0.7,1.2l-0.5,0.3l-1.2,0.5l-0.5,0.1c-0.5,0.1-1.1,0.1-1.8,0.1h-0.3
		l-0.3,0v0.1l0.1,0.5v0.1c0,0.4-0.1,2.3-3.9,4.1c-0.5,0.1-4.2,0.9-7.4,2.1c-1,0.4-1.9,0.7-2.8,1.1l0.1-0.1l0.1-0.1l1.2-1.3
		c2.2-2.3,5-4.6,5.1-4.6l0.1-0.1c2.2-2.7,2.2-4.6,2-5.5c2.6-1.4,2.9-3.1,2.9-4c1.1-0.5,1.9-1.1,2.5-1.8l0.1,0c0.3,0,0.6,0.1,0.9,0.7
		l0.4,0.8l0.5-0.7c1.1-1.6,3.3-4.1,4.4-4.1c0.1,0,0.4,0,0.6,0.8l0.2,0.9l0.6-0.6c0.7-0.6,2.8-2.3,4.3-2.3
		C774.4,412.9,774.8,413.2,775.1,413.9 M771.3,451.3l-0.3-0.5l-0.5,0.4c0,0-0.3,0.2-0.8,0.2c-0.5,0-1.3-0.2-2.3-1.2l-0.5-0.5
		c-0.5-0.6-1.1-1.3-1.6-2.3l-0.4-0.7l-0.2,0.4l-0.2,0.3c-0.1,0-0.5,0.7-1.6,0.7c-1.2,0-2.7-0.6-4.4-1.9c-0.5-0.6-4.6-5.1-8.1-8.1
		c-0.5-0.5-1-0.8-1.5-1.2l-1-0.6l0.1,0l0.8,0.1c4.5,0.5,11.5,3.3,11.6,3.3l0.1,0c0.7,0.1,1.4,0.1,2.1,0.1c3.2,0,4.6-1.2,5.2-2
		c1.5,0.9,2.8,1.4,4.2,1.4l0.2,0L772,440l-0.2,0.7h0.7c1.5,0,5.5,0.4,6.4,2c0.3,0.5,0.2,1.1-0.1,1.8l-0.3,0.6l0.6,0.2
		c0,0,4,1.2,5.2,3.7c0.4,0.8,0.5,1.6,0.2,2.5l-0.1,0.4l0.3,0.2c0.1,0.1,3.1,2.2,1.9,7l0,0.2l0.1,0.2c0,0.1,3.6,5.3,1.6,8
		c-1.5-0.5-4.7-2.1-5.5-4l0-0.1l-0.1-0.1c0,0-2.8-2.7-5.1-7.2l-0.2-0.4l-0.4,0.1l-0.3,0C775.8,456,773.3,455.5,771.3,451.3
		 M730.3,518.4h14l-3-12.9l2.3-2.3l-3-11.7l2.3-1.1l-3.1-12.7l2.8-2l-2.5-10.9l2.8-1.5l-1.7-9.7l2.3-1.5l-0.4-10.4v0
		c0.1-0.4,1.1-3.4,3.3-5.2c2.4,2,3.3,5.2,3.3,5.2l-0.4,10.4l2.3,1.5l-1.7,9.7l2.8,1.5l-2.4,10.9l2.8,2l-3,12.7l2.3,1.1l-3,11.7
		l2.3,2.3l-2.6,12.8H763c0,0,1.8,0.8,1.2,2.1c-0.6,1.4-7.8,8.5-8.4,8.2c-0.6-0.3-0.6-3.1-1-3.6c-0.3-0.3-3.3,2.9-4.7,3.6
		c0,0-1.5-1.7-3.6-3c-2.1,1.4-4.4,3-4.4,3c-1.4-0.8-3.5-3.9-3.7-3.6c-0.4,0.5-0.4,3.2-1,3.6c-0.6,0.4-7.8-6.8-8.3-8.2
		C728.5,519.1,730.3,518.4,730.3,518.4 M706.6,459.2c-1.1-4.8,1.8-6.9,1.9-7l0.3-0.2l-0.1-0.4c-0.3-0.9-0.2-1.7,0.1-2.5
		c1.2-2.5,5.2-3.7,5.2-3.7l0.6-0.2l-0.3-0.6c-0.3-0.7-0.4-1.3-0.1-1.8c0.9-1.6,4.9-2,6.4-2h0.7l-0.2-0.7l-0.1-0.8l0.3,0
		c1.2,0,2.6-0.5,4.1-1.4c0.5,0.7,1.9,2,5.2,2c0.6,0,1.3,0,2.1-0.1l0.1,0c0.1,0,7.1-2.8,11.6-3.3l0.8-0.1l0.1,0l-1,0.6l-1.5,1.2
		c-3.6,3-7.7,7.5-8.2,8.1c-1.7,1.2-3.2,1.9-4.4,1.9c-1.2,0-1.6-0.7-1.6-0.7l-0.2-0.3l-0.3-0.4l-0.4,0.7c-0.6,1-1.1,1.8-1.7,2.3
		l-0.4,0.5c-1,1-1.8,1.2-2.3,1.2l-0.8-0.2l-0.5-0.4l-0.3,0.6c-2,4.3-4.5,4.7-5.4,4.7l-0.3,0l-0.4-0.1l-0.1,0.4
		c-2.3,4.5-5.1,7.1-5.1,7.2l-0.1,0.1l-0.1,0.1c-0.7,1.9-3.9,3.5-5.4,4c-2-2.6,1.6-7.9,1.6-8l0.1-0.2L706.6,459.2z M722.6,468.7
		c-2.5-2.1-1-4.6-1-4.7l0.3-0.5l-0.5-0.3l-0.7-1.2c-0.1-1.6,2-4,2.8-4.7l0.6-0.6l-0.7-0.4l-0.6-0.7c0-1.1,2.6-3.2,4.4-4.3l0.8-0.5
		l-0.7-0.5l-0.2-0.2c0.5-0.5,0.9-1.1,1.3-1.8c0.4,0.3,1,0.6,2,0.6c1.4,0,3.1-0.7,5-2.1l0.1-0.1c0.1-0.1,5-5.6,8.9-8.7
		c-1.9,3.5-3.7,8.7-4,9.4c-2.5,4.2-4.4,3.5-4.4,3.5l-0.6-0.2l-0.1,0.7c-0.5,4.5-2.7,4.6-2.8,4.6h-0.5v0.5c-0.1,4.2-2.8,5.4-2.9,5.4
		l-0.3,0.1l0,0.4c-0.2,3.6-1.5,6.5-1.5,6.5l0,0.2v0.1c0.1,1.3-1.6,3.6-2.9,4.9l-1.1-0.8c-1-1.5-0.4-4.4-0.4-4.4l0-0.4L722.6,468.7z
		 M771.6,464c0.1,0.1,1.6,2.6-1,4.7l-0.2,0.2l0.1,0.4c0.1,0.8,0.4,3.2-0.4,4.4l-1.1,0.8c-1.3-1.3-3-3.6-2.9-4.9l0-0.1l-0.1-0.2
		c0,0-1.2-2.9-1.4-6.5l-0.1-0.4l-0.3-0.1c-0.1-0.1-2.8-1.2-2.9-5.4v-0.5h-0.5c-0.1,0-2.3-0.1-2.8-4.6l-0.1-0.6l-0.6,0.2
		c0,0-1.9,0.6-4.4-3.5c-0.2-0.7-2-5.9-4-9.4c3.8,3,8.8,8.6,8.9,8.7l0.1,0.1c1.9,1.4,3.6,2.1,5,2.1c0.9,0,1.6-0.3,2-0.6
		c0.5,0.7,0.9,1.3,1.3,1.8l-0.2,0.2l-0.7,0.5l0.7,0.5c1.9,1.1,4.5,3.2,4.4,4.3l-0.6,0.7l-0.7,0.4l0.6,0.6c0.8,0.8,2.9,3.1,2.8,4.7
		l-0.7,1.2l-0.4,0.3L771.6,464z M788,431.8l-0.1,0.5l0.5,0.1c0.1,0,3.4,0.4,3.2,4.6v0.4l0.3,0.2c0,0,2.9,1.7,3.3,3.8
		c0.2,0.6,0.1,1.2-0.2,1.8c-0.4,0-1.3,0.1-2.4,0.1c-2,0-3.4-0.3-4-1l-0.1-0.1l-0.1,0c0,0-3.4-1-6.5-3.5l-0.3-0.2l-0.3,0.2
		c0,0-0.9,0.5-2.4,0.5c-1.5,0-3-0.6-4.4-1.8l-0.4-0.3l-0.3,0.4c0,0-0.3,0.4-0.9,0.6l-0.5,0.1l-0.5,0.1h-0.1c-1.1,0-2.5-0.5-3.9-1.6
		l-0.5-0.3l-0.3,0.6c0,0-0.8,1.8-4.5,1.8c-0.6,0-1.2-0.1-1.9-0.1c-0.6-0.2-5.5-2.1-9.6-3l-1.4-0.2l0.1-0.1c1.3-0.5,2.8-1,4.2-1.4
		c2.3-0.6,4.2-1.1,4.2-1.1l0.1,0c3.6-1.7,4.4-3.7,4.6-4.8c1.5,0,2.6-0.4,3.4-0.8l0.2-0.1c0.1,0,2.6-1,4.6-1c0.9,0,1.5,0.2,1.8,0.5
		c0.2,0.3,0.3,0.7,0.2,1.2l-0.1,0.9l0.8-0.3c0,0,3.4-1.4,5.6-1.4c0.7,0,1.2,0.2,1.4,0.5c0.1,0.2,0.2,0.6,0,1.1l-0.2,0.8l0.8-0.1
		c0,0,1-0.2,2.3-0.2c1.9,0,3.3,0.4,3.9,1.2C787.9,430.6,788,431.1,788,431.8 M870.1,369.9c-32.1,6.5-76.9,10.3-123.5,10.3
		c-46.6,0-91.4-3.7-123.5-10.3c6.5,32.1,10.3,76.9,10.3,123.5c0,46.7-3.7,91.5-10.3,123.6c32.1-6.5,76.9-10.3,123.5-10.3
		c46.6,0,91.4,3.7,123.5,10.3c-6.5-32-10.3-76.9-10.3-123.6C859.8,446.8,863.6,402,870.1,369.9"/>
	<path class="st0" d="M152.4,479.9c-0.1-2.6-2.8-5.5-8.1-8.8c-1.7,2-3.6,4.5-5.7,7.7c-0.4,0.8-0.5,1.6-0.5,2.3
		c0,2.4,1.4,3.6,4.3,3.6c2.6,0,5.3-0.6,8.3-1.8C151.9,482.1,152.5,481,152.4,479.9 M155.6,449.6l-3.5,5.8l-8.3-5l-2.5,4.7l-8.8-5.1
		l3.6-6.2l8,5.1l2.8-4.6L155.6,449.6z M158.1,475.4c0,1.8-1,4.7-3,8.9c-1.4,1.9-2.8,3.4-4.2,4.4c-2.6,2.1-5.8,3.3-9.5,3.8
		c-2.3,0.3-4.4,0-6.3-0.8c-2.2-1-3.4-2.6-3.4-4.8c0-3.4,2.7-8.6,8-15.6l6.9-9c0.8,1,2.2,2.2,4.3,3.8c2.3,1.6,3.7,2.7,4.3,3.3
		C157.2,470.9,158.1,473,158.1,475.4"/>
	<path class="st0" d="M191.8,488.6c0,5.3-2.1,11-6.4,17c-3.9,5.6-7.9,8.3-12.2,8.3c-2.1,0-5.6-0.9-10.6-2.8c-5.3-2-8-3.7-8-5.1
		l0.6-0.6c0.2,0,1.8,0.6,4.7,1.8c2.9,1.2,5.2,1.8,7,1.8c3.9,0,8.5-2.6,13.9-7.9c5.4-5.2,8.1-9.8,8.1-13.6c0-2.8-3.3-6.5-9.9-11.3
		c0.4-1.6,1-4.6,2-9c3.5,2.7,6,5.3,7.4,7.6C190.7,478.5,191.8,483.1,191.8,488.6"/>
	<path class="st0" d="M219.8,492.4h-14.4c-1-17.9-2.2-35-3.7-51.2c1.1-1.4,2.7-3.6,4.9-6.6l2.4,28.1c1.2,12.6,2,19.4,2.4,20.3
		l0.7,0.7c0.7,0.8,2,1.2,4,1.2h3.8V492.4z"/>
	<rect x="217.2" y="484.9" class="st0" width="14.5" height="7.5"/>
	<rect x="229.8" y="484.9" class="st0" width="14.6" height="7.5"/>
	<path class="st0" d="M280.4,506.9l-3.6,6l-8.1-5.1l3.6-5.8L280.4,506.9z M303.6,492.4h-20.2c-1.7,0-3-1.4-3.7-4.1
		c-0.2-0.9-0.6-2.9-1-6.1c-0.9,0.9-2.4,2-4.5,3.4c-2.2,1.4-3.7,2.5-4.6,3.3c-2.3,2.2-5.2,3.4-8.7,3.4h-18.3v-7.5h18.5
		c5.4,0,11.5-2.7,18.2-8.1c-2.9-0.6-7.2-1.5-12.8-2.7l-4.1-0.9c-2.1,0-4.9,1.3-8.3,3.9l-0.1-0.3c0-0.9,0.3-1.9,0.8-3.3
		c2.4-5.6,5.7-8.3,10.1-8.3c2.5,0,6.5,0.8,11.9,2.4c8.2,2.4,14.2,3.6,17.9,3.6h2.5c2.4-0.1,3.3-0.1,2.6-0.1
		c-0.6,1.7-1.7,4.3-3.2,7.7c-0.7-0.1-1.5-0.1-2.6-0.1c-5.2,0-9.2,0.7-12.1,2.1c0,1.5,0.6,2.7,1.9,3.6l0.8,0.5h19V492.4z"/>
	<path class="st0" d="M327.3,452.5l-3.6,5.9l-8.3-5l-2.6,4.6l-8.5-5l3.6-6.2l8.1,5.1l2.8-4.6L327.3,452.5z M330.2,492.4H326
		c-1,0-2-0.3-3-1c-0.4-0.3-0.8-0.9-1.3-1.9c-0.5-1-0.8-1.5-1-1.6c-0.3,0-0.8,0.7-1.7,2.3c-0.9,1.5-1.5,2.2-2,2.2h-15.1v-7.5h19.5
		l0.2-9.8c1.6-2.3,3.9-5,6.8-8.2l0.1,0.9c0,3.2-0.6,7.9-1.7,14c-0.2,1.4-0.3,2.1-0.3,2.2c0.1,0.6,0.6,0.9,1.5,0.9h2.3V492.4z"/>
	<path class="st0" d="M353.9,445l-4.3,8.4l-1.1-0.3l2.5,25c0,1.9-0.3,4.7-1,8.3c-0.7,3.9-1.5,5.9-2.2,5.9h-19.6v-7.5h18.4
		c0.2,0,0.3-0.6,0.3-1.8c0-5-1.5-16.2-4.4-33.5l-0.5-0.2c-0.9-0.6-1.4-1.3-1.4-2.2c0-0.6,0.2-1.2,0.5-1.8l3.9-6.8
		c0.7-1.3,1.3-1.8,1.6-1.5l0.7,0.7l-0.4,1.3l-0.4,1.2c0,0.4,0.3,0.8,0.9,1.2C349.6,442.8,351.8,443.9,353.9,445"/>
	<path class="st0" d="M372.7,482.5c0,2.6-1.2,6.9-3.5,12.8c-1.1-13.2-2.7-29.1-4.7-47.8c-0.2-2.1,1.6-6.4,5.6-12.9
		c0.3,0.5,0.8,8.5,1.6,24.1L372.7,482.5z"/>
	<path class="st0" d="M425.9,479.9c-0.2-2.6-2.9-5.5-8.1-8.8c-1.7,2-3.6,4.5-5.7,7.7c-0.4,0.8-0.5,1.6-0.5,2.3
		c0,2.4,1.4,3.6,4.3,3.6c2.6,0,5.3-0.6,8.3-1.8C425.3,482.1,425.9,481,425.9,479.9 M429,449.6l-3.5,5.8l-8.3-5l-2.5,4.7l-8.8-5.1
		l3.6-6.2l8,5.1l2.8-4.6L429,449.6z M431.5,475.4c0,1.8-1,4.7-2.9,8.9c-1.4,1.9-2.8,3.4-4.2,4.4c-2.6,2.1-5.8,3.3-9.5,3.8
		c-2.3,0.3-4.4,0-6.3-0.8c-2.2-1-3.4-2.6-3.4-4.8c0-3.4,2.7-8.6,8-15.6l6.9-9c0.8,1,2.3,2.2,4.3,3.8c2.3,1.6,3.7,2.7,4.3,3.3
		C430.6,470.9,431.5,473,431.5,475.4"/>
	<path class="st0" d="M465.3,488.6c0,5.3-2.1,11-6.4,17c-3.9,5.6-7.9,8.3-12.2,8.3c-2.1,0-5.6-0.9-10.6-2.8c-5.3-2-8-3.7-8-5.1
		l0.6-0.6c0.2,0,1.8,0.6,4.7,1.8c2.9,1.2,5.2,1.8,7,1.8c3.9,0,8.5-2.6,13.9-7.9c5.4-5.2,8.1-9.8,8.1-13.6c0-2.8-3.3-6.5-9.9-11.3
		c0.4-1.6,1-4.6,2-9c3.5,2.7,6,5.3,7.4,7.6C464.2,478.5,465.3,483.1,465.3,488.6"/>
	<path class="st0" d="M484.7,482.5c0,2.6-1.2,6.9-3.5,12.8c-1.1-13.2-2.7-29.1-4.7-47.8c-0.2-2.1,1.6-6.4,5.6-12.9
		c0.3,0.5,0.8,8.5,1.6,24.1L484.7,482.5z"/>
	<path class="st0" d="M513.8,451.4l-3.6,6.1l-8.5-5.1l3.7-6L513.8,451.4z M523.1,488.6c0,5.3-2.1,11-6.4,17
		c-3.9,5.6-7.9,8.3-12.2,8.3c-2.1,0-5.6-0.9-10.6-2.8c-5.3-2-8-3.7-8-5.1l0.6-0.6c0.2,0,1.8,0.6,4.7,1.8c2.9,1.2,5.2,1.8,7,1.8
		c3.9,0,8.5-2.6,13.9-7.9c5.4-5.2,8.1-9.8,8.1-13.6c0-2.8-3.3-6.5-9.9-11.3c0.4-1.6,1-4.6,2-9c3.5,2.7,6,5.3,7.4,7.6
		C522,478.5,523.1,483.1,523.1,488.6"/>
	<path class="st0" d="M553.3,481c0-1.6-0.5-3.3-1.5-5.1c-1.2-2-2.5-3-4-3.1c-1.1-0.1-2.4,0.7-3.8,2.2c-1.5,1.5-2.2,2.8-2.1,3.9
		c0.1,1.2,1,2.1,2.7,2.8c1.4,0.5,2.7,0.8,4.1,0.8C551.1,482.4,552.6,482,553.3,481 M558.8,481.9c0,7-1.5,13.5-4.4,19.6
		c-1.5,3.1-3.5,5.9-5.9,8.4c-3.1,3-6,4.4-8.9,4.2c-2.5-0.2-6-0.8-10.4-1.7c-5.6-1.2-8.5-2.3-8.5-3.3c0-0.5,0.4-0.8,1.1-0.8
		c1,0,2.7,0.3,4.9,0.8c2.2,0.6,3.9,0.8,5,0.8c1.2,0,2.3-0.2,3.3-0.5c4.7-1.8,9.3-4.8,13.8-9.1c4.8-4.6,7.1-8.9,7-12.8
		c0-1.9-0.2-3.4-0.6-4.6c-1.6,3.6-3.2,5.8-5,6.8c-1.1,0.6-2.9,0.8-5.2,0.6c-2-0.2-3.5-1.4-4.6-3.5c-0.8-1.7-1.3-3.7-1.3-5.9
		c0-2.4,1.3-5.8,3.9-10.1c2.9-4.6,5.4-6.9,7.5-6.9c1.5,0,3.2,1.9,5.2,5.8C557.7,473.6,558.8,477.7,558.8,481.9"/>
	<polygon class="st0" points="138.3,529.1 147.4,553.1 156.6,529.1 162.7,529.1 162.7,561 157.4,561 157.4,539 149,561 145.5,561 
		137.5,539 137.5,561 132.2,561 132.2,529.1 	"/>
	<path class="st0" d="M166.9,561h5.2v-23h-5.2V561z M166.9,533.7h5.2v-4.6h-5.2V533.7z"/>
	<path class="st0" d="M175.8,538h5.3v1.9c1-0.8,2.1-1.3,3.3-1.7c1.2-0.4,2.3-0.6,3.6-0.6c1.2,0,2.3,0.2,3.3,0.5
		c0.9,0.3,1.7,0.8,2.4,1.4c0.7,0.6,1.2,1.3,1.5,2.2c0.4,0.9,0.5,1.8,0.5,2.9V561h-5.2V545c0-1.4-0.3-2.4-0.8-2.9
		c-0.5-0.6-1.3-0.9-2.3-0.9c-0.9,0-1.7,0.2-2.4,0.5c-0.7,0.4-1.4,0.8-2,1.4c-0.6,0.5-1,1.2-1.3,1.9c-0.3,0.7-0.5,1.5-0.5,2.2V561
		h-5.3V538z"/>
	<path class="st0" d="M199.7,561h5.2v-23h-5.2V561z M199.7,533.7h5.2v-4.6h-5.2V533.7z"/>
	<path class="st0" d="M214,553.4c0,0.8,0.1,1.5,0.4,2c0.2,0.6,0.5,1,0.9,1.4l1.3,0.8c0.5,0.2,1,0.2,1.6,0.2c0.5,0,1-0.1,1.5-0.1
		c0.5-0.1,1-0.3,1.5-0.5l1.1-0.9c0.3-0.4,0.4-0.9,0.4-1.5c0-0.5-0.1-1-0.4-1.4l-1.1-1c-0.4-0.3-1-0.5-1.6-0.8
		c-0.6-0.2-1.2-0.5-1.9-0.7c-1-0.4-2-0.7-3-1.1c-1-0.4-1.8-0.8-2.6-1.4c-0.8-0.5-1.4-1.2-1.9-1.9c-0.5-0.8-0.7-1.6-0.7-2.7
		c0-1,0.2-1.9,0.7-2.7c0.5-0.8,1.1-1.4,1.9-1.9c0.8-0.5,1.7-0.9,2.8-1.1c1-0.3,2.1-0.4,3.3-0.4c1.3,0,2.5,0.1,3.6,0.4
		c1.1,0.3,2.1,0.7,2.9,1.2c0.8,0.5,1.5,1.3,2,2.1c0.5,0.9,0.7,1.9,0.8,3.1H227l-0.6,0h-0.6h-0.4h-3.3c-0.1-0.6-0.2-1.1-0.5-1.5
		l-0.9-1l-1.2-0.5l-1.4-0.1c-1.1,0-1.9,0.2-2.5,0.7c-0.6,0.5-0.9,1.1-0.9,1.8l0.4,1.3l1.1,1c0.5,0.3,1,0.6,1.6,0.8
		c0.6,0.2,1.2,0.5,1.9,0.7c1,0.4,1.9,0.7,2.9,1.1c1,0.4,1.9,0.9,2.7,1.4c0.8,0.5,1.4,1.1,1.9,1.8c0.5,0.7,0.7,1.5,0.7,2.4
		c0,1.3-0.3,2.4-0.8,3.3c-0.5,0.9-1.3,1.6-2.2,2.2c-0.9,0.6-1.9,1-3.1,1.3c-1.2,0.3-2.4,0.4-3.7,0.4c-1.3,0-2.5-0.2-3.6-0.5
		c-1.1-0.3-2.1-0.9-3-1.5c-0.9-0.7-1.5-1.5-2.1-2.5c-0.5-1-0.8-2.2-0.9-3.5H214z"/>
	<path class="st0" d="M238.5,531.4v6.6h3.4v3.6h-3.4v14c0,0.9,0.1,1.4,0.4,1.7l1.1,0.5l0.8-0.1c0.4,0,0.9-0.1,1.7-0.3v3.5
		c-0.6,0.2-1.3,0.3-2,0.4c-0.7,0.1-1.3,0.1-1.8,0.1c-0.7,0-1.4-0.1-2.1-0.3c-0.7-0.2-1.3-0.4-1.8-0.8c-0.5-0.4-0.9-0.9-1.2-1.4
		c-0.3-0.6-0.4-1.3-0.4-2.2v-15.2h-3.5V538h3.5v-6.6H238.5z"/>
	<path class="st0" d="M245.5,538h4.7l0.3,2.1c0.6-0.8,1.4-1.4,2.2-1.8c0.9-0.4,1.8-0.6,2.7-0.6l1.1,0.1l1.4,0.4v4.3
		c-1.4-0.5-2.3-0.8-2.6-0.8c-0.7,0-1.3,0.1-1.9,0.5c-0.6,0.3-1,0.7-1.4,1.2c-0.4,0.5-0.7,1.1-0.9,1.8c-0.2,0.7-0.3,1.4-0.3,2.1V561
		h-5.2V538z"/>
	<path class="st0" d="M269.4,553.7l5.4-15.7h5.4l-9.7,27.7c-0.3,0.9-0.7,1.7-1.2,2.3c-0.4,0.6-1,1.1-1.5,1.5
		c-0.5,0.4-1.1,0.7-1.7,0.9c-0.6,0.2-1.1,0.3-1.7,0.3c-0.5,0-1,0-1.5-0.1c-0.5-0.1-1.1-0.3-1.9-0.5v-3.9l0.8,0.3l0.8,0.3l0.8,0.2
		l0.5,0.1l0.6-0.3l0.5-0.8l0.4-1l0.3-0.9l1-3.1l-8.4-22.9h5.6L269.4,553.7z"/>
	<path class="st0" d="M296.7,549.5c0,1.2,0.1,2.2,0.4,3.2c0.3,1,0.6,1.9,1.2,2.6c0.5,0.8,1.1,1.3,1.8,1.8c0.7,0.4,1.5,0.6,2.4,0.6
		c0.9,0,1.7-0.2,2.4-0.6c0.7-0.4,1.4-1,1.8-1.8c0.5-0.7,0.9-1.6,1.2-2.6c0.3-1,0.4-2,0.4-3.2c0-1.1-0.1-2.2-0.4-3.2
		c-0.3-1-0.7-1.9-1.2-2.6c-0.5-0.8-1.1-1.4-1.8-1.8c-0.7-0.4-1.5-0.7-2.4-0.7c-0.9,0-1.7,0.2-2.4,0.7c-0.7,0.4-1.3,1-1.8,1.8
		c-0.5,0.7-0.9,1.6-1.2,2.6C296.9,547.3,296.7,548.4,296.7,549.5 M291.5,549.5c0-1.6,0.2-3.2,0.7-4.6c0.5-1.4,1.2-2.7,2.1-3.8
		c0.9-1.1,2.1-1.9,3.4-2.5c1.4-0.6,3-1,4.7-1c1.8,0,3.4,0.3,4.7,1c1.4,0.6,2.6,1.5,3.5,2.5c0.9,1.1,1.7,2.4,2.2,3.8
		c0.5,1.4,0.7,3,0.7,4.6c0,1.6-0.2,3.2-0.7,4.6c-0.5,1.4-1.2,2.7-2.2,3.8c-1,1.1-2.1,1.9-3.5,2.5c-1.4,0.6-3,1-4.7,1
		c-1.8,0-3.4-0.3-4.7-1c-1.4-0.6-2.5-1.5-3.4-2.5c-1-1.1-1.7-2.3-2.1-3.8C291.8,552.7,291.5,551.2,291.5,549.5"/>
	<path class="st0" d="M319.8,538v-5.1c0-0.7,0.1-1.3,0.4-1.8c0.3-0.6,0.6-1.1,1.1-1.5c0.5-0.4,1.1-0.8,1.8-1
		c0.7-0.3,1.5-0.4,2.4-0.4c0.5,0,1.1,0.1,1.8,0.3c0.7,0.2,1.3,0.5,2,0.9v3.5c-0.8-0.3-1.4-0.5-1.9-0.7l-0.8-0.3l-1.1,0.4
		c-0.3,0.2-0.5,0.7-0.5,1.3v4.5h3.9v3.7h-3.9V561h-5.3v-19.3H316V538H319.8z"/>
	<path class="st0" d="M347,544.6c0,2.3,0.3,4.3,0.8,6c0.6,1.7,1.3,3.1,2.2,4.2c0.9,1.1,1.9,1.9,3.1,2.5c1.1,0.5,2.3,0.8,3.5,0.8
		c1.2,0,2.3-0.2,3.3-0.7c1-0.5,1.8-1.1,2.6-1.9c0.8-0.8,1.4-1.7,1.9-2.8c0.5-1,0.8-2.1,1.1-3.2h5.3c-0.3,1.7-0.9,3.3-1.6,4.8
		c-0.8,1.5-1.7,2.8-2.9,3.9c-1.2,1.1-2.6,2-4.2,2.6c-1.6,0.6-3.4,1-5.4,1c-2.3,0-4.3-0.4-6.1-1.2c-1.8-0.8-3.4-1.9-4.7-3.4
		c-1.3-1.5-2.3-3.3-3-5.4c-0.7-2.1-1-4.6-1-7.3c0-1.4,0.1-2.8,0.4-4.1c0.3-1.4,0.8-2.6,1.3-3.9c0.6-1.2,1.3-2.3,2.1-3.3
		c0.9-1,1.8-1.9,2.9-2.7c1.1-0.7,2.3-1.3,3.7-1.8c1.4-0.4,2.8-0.6,4.4-0.6c2,0,3.8,0.3,5.4,0.8c1.6,0.5,2.9,1.3,4.1,2.2
		c1.2,0.9,2.2,2.1,2.9,3.3c0.8,1.3,1.4,2.7,1.8,4.2h-5.4c-0.8-2.3-1.9-4.1-3.4-5.2c-1.4-1.1-3.2-1.7-5.4-1.7c-1.4,0-2.7,0.3-3.9,1
		c-1.2,0.7-2.2,1.6-3,2.8c-0.9,1.2-1.5,2.5-2,4.1C347.3,541.3,347,542.9,347,544.6"/>
	<path class="st0" d="M379.4,549.5c0,1.2,0.1,2.2,0.4,3.2c0.3,1,0.7,1.9,1.2,2.6c0.5,0.8,1.1,1.3,1.8,1.8c0.7,0.4,1.5,0.6,2.4,0.6
		c0.9,0,1.7-0.2,2.4-0.6c0.7-0.4,1.4-1,1.8-1.8c0.5-0.7,0.9-1.6,1.2-2.6c0.3-1,0.4-2,0.4-3.2c0-1.1-0.1-2.2-0.4-3.2
		c-0.3-1-0.7-1.9-1.2-2.6c-0.5-0.8-1.1-1.4-1.8-1.8c-0.7-0.4-1.5-0.7-2.4-0.7c-0.9,0-1.7,0.2-2.4,0.7c-0.7,0.4-1.3,1-1.8,1.8
		c-0.5,0.7-0.9,1.6-1.2,2.6C379.5,547.3,379.4,548.4,379.4,549.5 M374.2,549.5c0-1.6,0.2-3.2,0.7-4.6c0.5-1.4,1.2-2.7,2.1-3.8
		c0.9-1.1,2.1-1.9,3.4-2.5c1.4-0.6,3-1,4.7-1c1.8,0,3.4,0.3,4.8,1c1.4,0.6,2.5,1.5,3.5,2.5c0.9,1.1,1.7,2.4,2.2,3.8
		c0.5,1.4,0.7,3,0.7,4.6c0,1.6-0.2,3.2-0.7,4.6c-0.5,1.4-1.2,2.7-2.2,3.8c-0.9,1.1-2.1,1.9-3.5,2.5c-1.4,0.6-3,1-4.8,1
		c-1.8,0-3.4-0.3-4.7-1c-1.4-0.6-2.5-1.5-3.4-2.5c-0.9-1.1-1.7-2.3-2.1-3.8C374.4,552.7,374.2,551.2,374.2,549.5"/>
	<path class="st0" d="M399.9,538h5.2v1.7c0.9-0.8,1.9-1.3,3-1.6c1.1-0.3,2.1-0.5,3-0.5c1.1,0,2.2,0.2,3.2,0.7c1,0.4,1.9,1.2,2.7,2.3
		c0.5-0.5,1-1,1.5-1.4c0.6-0.4,1.2-0.7,1.8-1c0.6-0.2,1.3-0.4,1.9-0.5c0.6-0.1,1.3-0.2,1.9-0.2c1.2,0,2.2,0.2,3.2,0.5
		c1,0.4,1.8,0.9,2.5,1.5c0.7,0.6,1.2,1.4,1.6,2.3c0.4,0.9,0.6,1.8,0.6,2.8V561H427v-15.4c0-0.9-0.1-1.6-0.3-2.1
		c-0.2-0.6-0.5-1-0.8-1.4l-1.1-0.7l-1.2-0.2c-0.6,0-1.2,0.1-1.7,0.4c-0.6,0.3-1.1,0.7-1.5,1.2c-0.5,0.5-0.8,1.1-1.1,1.8
		c-0.3,0.7-0.4,1.4-0.4,2.2V561h-5.2v-15.4c0-0.9-0.1-1.6-0.3-2.1c-0.2-0.6-0.4-1-0.8-1.4l-1-0.7l-1.1-0.2c-0.7,0-1.4,0.2-2,0.6
		c-0.6,0.4-1.2,0.9-1.6,1.4c-0.5,0.6-0.9,1.2-1.1,1.9c-0.3,0.7-0.4,1.4-0.4,2V561h-5.2V538z"/>
	<path class="st0" d="M436.2,538h5.2v1.7c0.9-0.8,1.9-1.3,3-1.6c1.1-0.3,2.1-0.5,3-0.5c1.1,0,2.2,0.2,3.2,0.7c1,0.4,1.9,1.2,2.7,2.3
		c0.4-0.5,1-1,1.5-1.4c0.6-0.4,1.2-0.7,1.8-1c0.6-0.2,1.3-0.4,1.9-0.5c0.6-0.1,1.3-0.2,1.9-0.2c1.2,0,2.2,0.2,3.2,0.5
		c1,0.4,1.8,0.9,2.5,1.5c0.7,0.6,1.2,1.4,1.6,2.3c0.4,0.9,0.6,1.8,0.6,2.8V561h-5.2v-15.4c0-0.9-0.1-1.6-0.3-2.1
		c-0.2-0.6-0.5-1-0.8-1.4l-1.1-0.7l-1.2-0.2c-0.6,0-1.2,0.1-1.7,0.4c-0.6,0.3-1.1,0.7-1.5,1.2c-0.5,0.5-0.8,1.1-1.1,1.8
		c-0.3,0.7-0.4,1.4-0.4,2.2V561h-5.2v-15.4c0-0.9-0.1-1.6-0.3-2.1c-0.2-0.6-0.5-1-0.8-1.4l-1-0.7l-1.1-0.2c-0.7,0-1.4,0.2-2,0.6
		c-0.6,0.4-1.2,0.9-1.6,1.4c-0.5,0.6-0.9,1.2-1.1,1.9c-0.3,0.7-0.4,1.4-0.4,2V561h-5.2V538z"/>
	<path class="st0" d="M488.9,547.2c-0.1-0.9-0.2-1.7-0.5-2.4c-0.3-0.7-0.7-1.4-1.2-1.9c-0.5-0.5-1.1-1-1.7-1.3
		c-0.7-0.3-1.4-0.5-2.3-0.5c-0.8,0-1.5,0.2-2.1,0.5c-0.6,0.3-1.2,0.8-1.7,1.3c-0.5,0.5-0.9,1.2-1.2,1.9c-0.3,0.7-0.5,1.5-0.5,2.3
		H488.9z M477.7,550.5c0,1,0.2,1.9,0.5,2.8c0.3,0.9,0.7,1.7,1.2,2.3c0.5,0.7,1.1,1.2,1.8,1.6c0.7,0.4,1.4,0.6,2.2,0.6
		c2.6,0,4.5-1.5,5.5-4.4h4.9c-0.3,1.3-0.7,2.4-1.4,3.4c-0.7,1-1.4,1.8-2.4,2.5c-0.9,0.7-2,1.2-3.1,1.6c-1.1,0.4-2.3,0.5-3.5,0.5
		c-1.7,0-3.3-0.3-4.6-1c-1.4-0.7-2.6-1.5-3.5-2.7c-0.9-1.1-1.7-2.4-2.2-3.9c-0.5-1.5-0.8-3-0.8-4.7c0-1.5,0.3-3,0.8-4.4
		c0.5-1.4,1.3-2.6,2.2-3.7c0.9-1.1,2.1-1.9,3.5-2.5c1.4-0.6,2.9-0.9,4.6-0.9c1.7,0,3.2,0.3,4.5,0.9c1.3,0.5,2.5,1.3,3.4,2.3
		c0.9,1,1.7,2.2,2.2,3.6c0.5,1.4,0.8,2.8,0.8,4.5v1.7H477.7z"/>
	<path class="st0" d="M497.6,538h4.7l0.3,2.1c0.6-0.8,1.4-1.4,2.2-1.8c0.9-0.4,1.8-0.6,2.7-0.6l1.1,0.1l1.4,0.4v4.3
		c-1.4-0.5-2.3-0.8-2.6-0.8c-0.7,0-1.3,0.1-1.9,0.5c-0.6,0.3-1,0.7-1.4,1.2c-0.4,0.5-0.7,1.1-0.9,1.8c-0.2,0.7-0.3,1.4-0.3,2.1V561
		h-5.2V538z"/>
	<path class="st0" d="M527.8,545.6c-0.4-1.6-1-2.7-1.8-3.3c-0.8-0.7-1.7-1-2.9-1c-0.9,0-1.6,0.2-2.3,0.6c-0.7,0.4-1.3,1-1.7,1.7
		c-0.5,0.7-0.8,1.6-1.1,2.5c-0.2,1-0.4,1.9-0.4,3c0,1.1,0.1,2.2,0.4,3.2c0.3,1,0.6,2,1.1,2.8c0.5,0.8,1,1.4,1.7,1.9
		c0.7,0.5,1.4,0.7,2.3,0.7c0.6,0,1.2-0.1,1.7-0.4l1.4-1.2c0.4-0.5,0.7-1.1,1-1.7c0.3-0.7,0.5-1.4,0.6-2.1h5.5
		c-0.2,1.4-0.5,2.7-1,3.8c-0.5,1.1-1.3,2.1-2.1,2.8c-0.9,0.8-1.9,1.4-3.1,1.8c-1.2,0.4-2.5,0.6-4,0.6c-1.8,0-3.4-0.4-4.7-1.1
		c-1.3-0.7-2.4-1.7-3.3-2.8c-0.9-1.2-1.5-2.5-1.9-4c-0.4-1.5-0.6-2.9-0.6-4.4c0-1.6,0.3-3.1,0.8-4.5c0.5-1.4,1.2-2.6,2.2-3.7
		c0.9-1,2.1-1.8,3.4-2.4c1.3-0.6,2.8-0.9,4.4-0.9c1.4,0,2.7,0.2,3.9,0.6c1.1,0.4,2.1,0.9,2.9,1.7c0.8,0.7,1.5,1.5,2,2.5
		c0.5,1,0.9,2,1.1,3.2H527.8z"/>
	<path class="st0" d="M553.2,547.2c-0.1-0.9-0.2-1.7-0.5-2.4c-0.3-0.7-0.7-1.4-1.1-1.9c-0.5-0.5-1.1-1-1.8-1.3
		c-0.7-0.3-1.4-0.5-2.3-0.5c-0.8,0-1.5,0.2-2.1,0.5c-0.6,0.3-1.2,0.8-1.7,1.3c-0.5,0.5-0.9,1.2-1.2,1.9c-0.3,0.7-0.5,1.5-0.5,2.3
		H553.2z M542,550.5c0,1,0.2,1.9,0.5,2.8c0.3,0.9,0.7,1.7,1.2,2.3c0.5,0.7,1.1,1.2,1.8,1.6c0.7,0.4,1.4,0.6,2.2,0.6
		c2.7,0,4.5-1.5,5.5-4.4h4.9c-0.3,1.3-0.7,2.4-1.4,3.4c-0.7,1-1.4,1.8-2.4,2.5c-0.9,0.7-2,1.2-3.1,1.6c-1.1,0.4-2.3,0.5-3.5,0.5
		c-1.7,0-3.3-0.3-4.6-1c-1.4-0.7-2.6-1.5-3.5-2.7c-1-1.1-1.7-2.4-2.3-3.9c-0.5-1.5-0.8-3-0.8-4.7c0-1.5,0.3-3,0.8-4.4
		c0.5-1.4,1.3-2.6,2.2-3.7c0.9-1.1,2.1-1.9,3.5-2.5c1.4-0.6,2.9-0.9,4.6-0.9c1.7,0,3.2,0.3,4.5,0.9c1.3,0.5,2.5,1.3,3.4,2.3
		c1,1,1.7,2.2,2.2,3.6c0.5,1.4,0.8,2.8,0.8,4.5v1.7H542z"/>
	<path class="st1" d="M788,431.8l-0.1,0.5l0.5,0.1c0.1,0,3.4,0.4,3.2,4.6v0.4l0.3,0.2c0,0,2.9,1.7,3.4,3.8c0.1,0.6,0,1.2-0.3,1.8
		c-0.4,0-1.3,0.1-2.3,0.1c-2,0-3.4-0.3-4-1l-0.1-0.1l-0.1,0c0,0-3.4-1-6.5-3.6l-0.3-0.2l-0.3,0.2c0,0-0.9,0.6-2.4,0.6
		c-1.5,0-3-0.6-4.4-1.8l-0.4-0.3l-0.4,0.4c0,0-0.3,0.4-0.9,0.6l-0.5,0.1l-0.5,0.1h-0.1c-1.1,0-2.5-0.5-3.9-1.5l-0.5-0.3l-0.2,0.6
		c0,0-0.8,1.8-4.5,1.8c-0.6,0-1.2,0-1.9-0.1c-0.6-0.2-5.5-2.1-9.6-3l-1.4-0.2l0.1,0c1.3-0.5,2.8-1,4.2-1.4c2.3-0.6,4.2-1.1,4.2-1.1
		l0.1,0c3.6-1.8,4.4-3.7,4.6-4.8c1.5,0,2.6-0.4,3.4-0.8l0.2-0.1c0.1,0,2.6-1,4.6-1c0.9,0,1.5,0.2,1.8,0.6c0.2,0.3,0.3,0.7,0.3,1.2
		l-0.1,0.9l0.8-0.3c0,0,3.4-1.4,5.6-1.4c0.7,0,1.2,0.2,1.5,0.5c0.1,0.2,0.2,0.6,0,1.1l-0.2,0.8l0.8-0.1c0,0,1-0.2,2.3-0.2
		c1.9,0,3.3,0.4,3.9,1.2C787.9,430.6,788.1,431.1,788,431.8"/>
	<path class="st1" d="M771.6,464c0.1,0.1,1.6,2.6-1,4.7l-0.2,0.2l0.1,0.4c0.2,0.8,0.4,3.2-0.4,4.4l-1.1,0.8c-1.3-1.3-3-3.6-2.9-4.9
		l0-0.2l-0.1-0.1c0,0-1.3-2.9-1.4-6.6l0-0.4l-0.3-0.1c-0.1,0-2.8-1.3-2.9-5.4v-0.5l-0.5,0c-0.1,0-2.3-0.1-2.8-4.6L758,451l-0.6,0.2
		c0,0-1.9,0.6-4.4-3.6c-0.2-0.7-2-5.8-4-9.4c3.8,3,8.8,8.6,8.9,8.6l0.1,0.1c1.9,1.4,3.6,2.1,5,2.1c1,0,1.6-0.3,2-0.6
		c0.5,0.7,0.9,1.3,1.3,1.8l-0.2,0.2l-0.7,0.5l0.7,0.5c1.9,1.1,4.5,3.2,4.4,4.3l-0.6,0.7l-0.7,0.4l0.6,0.6c0.8,0.8,2.9,3.1,2.8,4.7
		l-0.7,1.1l-0.4,0.3L771.6,464z"/>
	<path class="st1" d="M722.6,468.7c-2.5-2.1-1-4.6-1-4.7l0.3-0.5l-0.4-0.3l-0.7-1.1c-0.1-1.6,2-4,2.8-4.7l0.6-0.6l-0.7-0.4l-0.6-0.7
		c0-1.1,2.6-3.2,4.4-4.3l0.8-0.5l-0.7-0.5l-0.2-0.2c0.4-0.5,0.9-1.1,1.3-1.8c0.4,0.3,1,0.6,2,0.6c1.4,0,3.1-0.7,5-2.1l0.1-0.1
		c0.1-0.1,5-5.6,8.9-8.6c-1.9,3.5-3.7,8.7-4,9.4c-2.5,4.2-4.4,3.6-4.4,3.6l-0.6-0.2l-0.1,0.7c-0.5,4.5-2.7,4.6-2.8,4.6h-0.5v0.5
		c-0.1,4.2-2.8,5.4-2.9,5.4l-0.3,0.1l0,0.4c-0.2,3.7-1.5,6.5-1.5,6.6l0,0.1v0.2c0.1,1.3-1.6,3.6-2.9,4.9l-1.1-0.8
		c-1-1.5-0.4-4.4-0.4-4.4l0-0.4L722.6,468.7z"/>
	<path class="st1" d="M706.6,459.2c-1.1-4.8,1.8-6.9,2-7l0.3-0.2l-0.1-0.4c-0.3-0.9-0.2-1.7,0.1-2.5c1.2-2.5,5.2-3.7,5.2-3.7
		l0.6-0.2l-0.3-0.6c-0.3-0.7-0.3-1.3-0.1-1.8c0.9-1.6,4.9-2,6.4-2h0.7l-0.2-0.8l-0.1-0.8l0.3,0.1c1.2,0,2.6-0.5,4-1.4
		c0.6,0.7,1.9,2,5.2,2c0.6,0,1.3,0,2-0.1l0.1,0c0.1,0,7.1-2.8,11.6-3.3l0.8-0.1l0.1,0.1l-1,0.6l-1.5,1.2c-3.6,3-7.7,7.5-8.1,8.1
		c-1.7,1.2-3.2,1.8-4.4,1.8c-1.2,0-1.6-0.6-1.6-0.7l-0.2-0.3l-0.2-0.4l-0.4,0.7c-0.6,1-1.1,1.8-1.6,2.3l-0.5,0.5
		c-1,1-1.8,1.1-2.2,1.1l-0.8-0.2l-0.5-0.4l-0.3,0.6c-2,4.3-4.5,4.7-5.4,4.7l-0.3,0l-0.4,0l-0.1,0.3c-2.3,4.5-5.1,7.1-5.1,7.2
		l-0.1,0.1l-0.1,0.1c-0.7,1.9-3.9,3.5-5.4,4c-2-2.6,1.6-7.9,1.6-8l0.2-0.2L706.6,459.2z"/>
	<path class="st1" d="M730.3,518.4h14l-3-12.9l2.3-2.3l-3-11.6l2.3-1.2l-3.1-12.7l2.8-2l-2.5-10.9l2.8-1.5l-1.7-9.7l2.3-1.5
		l-0.4-10.4v0c0.1-0.4,1.1-3.4,3.3-5.2c2.4,2,3.3,5.2,3.3,5.2l-0.4,10.4l2.3,1.5l-1.7,9.7l2.8,1.5l-2.4,10.9l2.8,2l-3,12.7l2.3,1.2
		l-3,11.6l2.3,2.3l-2.6,12.8H763c0,0,1.8,0.8,1.2,2.1c-0.6,1.4-7.8,8.5-8.4,8.2c-0.6-0.4-0.6-3.1-1-3.6c-0.3-0.3-3.3,2.9-4.7,3.6
		c0,0-1.5-1.7-3.6-3c-2.1,1.4-4.4,3-4.4,3c-1.4-0.8-3.5-3.9-3.7-3.6c-0.4,0.5-0.4,3.2-1,3.6c-0.6,0.4-7.8-6.8-8.4-8.2
		C728.5,519.1,730.3,518.4,730.3,518.4"/>
	<path class="st1" d="M771.3,451.3l-0.3-0.5l-0.5,0.4c0,0-0.3,0.2-0.8,0.2c-0.5,0-1.3-0.2-2.3-1.2l-0.5-0.5
		c-0.5-0.6-1.1-1.3-1.6-2.3l-0.4-0.7l-0.2,0.4l-0.2,0.3c0,0-0.5,0.7-1.6,0.7c-1.2,0-2.6-0.6-4.4-1.9c-0.5-0.6-4.5-5.1-8.1-8.1
		c-0.5-0.5-1.1-0.8-1.5-1.2l-1-0.6l0.1-0.1l0.8,0.1c4.5,0.6,11.5,3.3,11.6,3.3l0.1,0c0.7,0.1,1.4,0.1,2.1,0.1c3.2,0,4.6-1.2,5.2-2
		c1.4,0.9,2.8,1.4,4.2,1.4l0.2,0L772,440l-0.2,0.7h0.7c1.5,0,5.5,0.4,6.4,2c0.3,0.5,0.3,1.1-0.1,1.8l-0.3,0.6l0.6,0.2
		c0,0,4,1.2,5.2,3.7c0.4,0.8,0.5,1.6,0.2,2.5l-0.1,0.4l0.3,0.2c0.2,0.1,3.1,2.2,2,7l-0.1,0.2l0.2,0.2c0,0,3.6,5.3,1.6,8
		c-1.5-0.5-4.8-2.1-5.5-4l0-0.1l-0.1-0.1c0,0-2.8-2.7-5.1-7.2l-0.2-0.4l-0.4,0.1h-0.3C775.8,456,773.4,455.5,771.3,451.3"/>
	<path class="st1" d="M775.1,413.9l0.2,0.5l0.5-0.2c0,0,0.5-0.3,1.3-0.3c1.2,0,2.1,0.7,2.8,2.1l0.1,0.3l0.4,0h0.2
		c0.6,0,2.7,0.1,3.7,1.2c0.3,0.3,0.5,0.8,0.5,1.3c-1,0.8-3.2,2.4-4.5,2.4l-0.4,0l-0.1-0.1l-0.1,0.1c0,0-1.9,0.6-4.4,0.6
		c-0.6,0-1.2,0-1.7-0.1l-0.3-0.1l-0.2,0.3c0,0-1.3,2.3-4.3,2.3l-1.1-0.1l-0.5,0l-0.1,0.5c0,0-0.1,0.6-0.7,1.2l-0.5,0.4l-1.2,0.5
		l-0.5,0.1c-0.5,0.1-1.1,0.1-1.8,0.1h-0.3h-0.3v0.1l0.1,0.5v0.1c0,0.3-0.1,2.3-3.9,4.2c-0.5,0.1-4.2,0.9-7.4,2.1
		c-1,0.4-1.9,0.7-2.8,1.1l0.1-0.1l0.1-0.1l1.2-1.3c2.2-2.3,5-4.6,5.1-4.6l0.1-0.1c2.2-2.7,2.2-4.6,2-5.5c2.6-1.4,2.9-3.2,2.9-4.1
		c1.1-0.5,1.9-1.1,2.5-1.8l0.1,0c0.3,0,0.6,0.1,0.9,0.7l0.4,0.8l0.5-0.7c1.1-1.6,3.3-4.1,4.5-4.1c0.1,0,0.4,0,0.6,0.8l0.2,0.8
		l0.6-0.5c0.7-0.6,2.8-2.3,4.3-2.3C774.4,412.9,774.8,413.2,775.1,413.9"/>
	<path class="st1" d="M752.6,415.8l0.6,0.6l0.2-0.9c0.5-2.3,1.5-4.9,2.3-4.9l0.3,0.4l0.5,0.7l0.3-0.8c0.4-0.9,1.8-3.6,3.1-3.6
		l0.7,0.3l0.4,0.4l0.3-0.5c0,0,0.7-1,1.9-1c0.6,0,1.2,0.3,1.8,0.7l0.2,0.2l0.3-0.2c0,0,1.4-0.8,2.6-0.8c0.8,0,1.3,0.3,1.5,0.9
		c-0.7,1.4-2,3.5-2.9,3.6l-0.1,0l-0.1,0.1c0,0-1.9,1.8-4.5,2.8l-0.3,0.1l0,0.4c0,0-0.1,0.9-0.7,1.9c-0.5,0.7-1.3,1.5-2.6,1.9l-0.2,0
		l-0.3,0.1l0.1,0.2l0.1,0.3l0,0.3c0,0.4-0.2,1.1-0.9,1.8c-0.5,0.5-1,0.9-1.9,1.3l-0.5,0.2l-0.1,0l0,0l0.3,0.5c0,0,0.8,1.6-1.6,4.7
		c-0.3,0.3-2.1,1.7-3.9,3.4l-1.2,1.2l-1.1,1.1l0.2-0.6c1.3-4.4,3.6-12.5,4.5-17.6L752.6,415.8z"/>
	<path class="st1" d="M741.8,411.7h0.4l-0.1-0.6c-0.4-3.9-0.1-7.1,0.7-8l0.4-0.2l0.4,0.1l0.6,0.3l0.1-0.7c0.6-3,1.7-4.8,2.3-5.6
		c0.7,0.9,1.8,2.6,2.4,5.6l0.1,0.7l0.6-0.3l0.4-0.1l0.4,0.2c0.7,0.9,1,4.2,0.6,8l-0.1,0.6h0.4c0.1,0.4,0,1.5-0.3,3l-0.1,0.9
		l-0.3,1.4c-0.8,3.7-2.1,8.7-3.6,13.8l-0.1,0.3l-0.4,1.5l-0.1,0.2l0-0.2l-0.4-1.5l-0.1-0.3c-1.5-5.1-2.7-10.2-3.5-13.8l-0.3-1.4
		l-0.1-0.9C741.8,413.2,741.7,412.1,741.8,411.7"/>
	<path class="st1" d="M725,406.6c1.2,0,2.6,0.8,2.6,0.8l0.3,0.2l0.3-0.2c0.6-0.5,1.2-0.7,1.8-0.7c1.1,0,1.9,1,1.9,1l0.3,0.5l0.4-0.4
		l0.7-0.3c1.2,0,2.6,2.6,3,3.6l0.4,0.8l0.5-0.7l0.5-0.4c0.7,0,1.7,2.5,2.2,4.9l0.2,0.9l0.6-0.6l0.6-0.3c0.9,5.2,3.1,13.2,4.4,17.6
		l0.2,0.7l-1.1-1.2l-1.2-1.2c-1.8-1.7-3.5-3.2-3.8-3.4c-2.5-3.1-1.6-4.7-1.6-4.7l0.3-0.5l0-0.1l-0.1,0l-0.5-0.2
		c-0.9-0.4-1.5-0.9-1.9-1.3c-0.7-0.7-0.9-1.4-0.9-1.8V419l0.1-0.4l0.1-0.2l-0.3-0.1l-0.1-0.1c-1.3-0.5-2.1-1.2-2.6-1.9
		c-0.6-0.9-0.7-1.8-0.7-1.9l0-0.4l-0.3-0.1c-2.7-1-4.5-2.8-4.5-2.8l-0.1-0.1l-0.1,0c-1-0.2-2.2-2.2-2.9-3.7
		C723.7,406.9,724.2,406.6,725,406.6"/>
	<path class="st1" d="M708.9,417.5c1-1.1,3.1-1.2,3.7-1.2h0.2l0.4,0l0.1-0.3c0.7-1.4,1.7-2.1,2.8-2.1c0.7,0,1.3,0.3,1.3,0.3l0.5,0.2
		l0.2-0.5c0.3-0.6,0.7-1,1.3-1c1.8,0,4.3,2.3,4.3,2.3l0.6,0.6l0.2-0.9c0.2-0.8,0.5-0.8,0.6-0.8c1.1,0,3.3,2.5,4.4,4.1l0.5,0.7
		l0.4-0.9c0.3-0.7,0.6-0.7,0.9-0.7l0.1,0c0.5,0.7,1.3,1.3,2.5,1.8c0,0.9,0.3,2.6,2.9,4c-0.2,0.9-0.2,2.7,2,5.5l0.1,0.1
		c0,0,2.9,2.3,5.1,4.6l1.2,1.3l0.1,0.1l0,0.1c-0.8-0.4-1.7-0.8-2.7-1.1c-3.2-1.2-6.9-2-7.4-2.1c-3.8-1.9-3.9-3.8-3.9-4.2v0l0.1-0.5
		v-0.2l-0.4,0l-0.3,0c-0.6,0-1.2,0-1.7-0.1l-0.5-0.1l-1.2-0.5l-0.5-0.3c-0.6-0.6-0.7-1.2-0.7-1.2l-0.1-0.5l-0.5,0.1l-1.1,0.1
		c-3,0-4.3-2.2-4.3-2.3l-0.2-0.3l-0.3,0.1c-0.6,0-1.2,0.1-1.7,0.1c-2.5,0-4.4-0.6-4.4-0.6l-0.1,0l-0.1,0l-0.4,0
		c-1.4,0-3.6-1.6-4.5-2.4C708.4,418.2,708.6,417.8,708.9,417.5"/>
	<path class="st1" d="M697.9,441.3c0.5-2.1,3.4-3.8,3.4-3.8l0.3-0.2V437c-0.2-4.2,3.1-4.6,3.2-4.6l0.5-0.1l0-0.5
		c-0.1-0.6,0-1.1,0.4-1.5c0.6-0.7,2-1.2,3.9-1.2c1.2,0,2.3,0.2,2.3,0.2l0.8,0.1l-0.2-0.8c-0.1-0.5-0.1-0.9,0-1.1
		c0.2-0.3,0.7-0.5,1.4-0.5c2.2,0,5.6,1.4,5.6,1.4l0.8,0.3l-0.1-0.9c-0.1-0.5,0-0.9,0.2-1.2c0.3-0.4,1-0.6,1.8-0.6c2,0,4.6,1,4.6,1
		l0.2,0.1c0.7,0.5,1.8,0.8,3.3,0.8c0.2,1,1,3,4.6,4.8l0.1,0c0,0,1.9,0.5,4.2,1.1c1.4,0.4,2.9,0.9,4.2,1.4l0.1,0.1l-1.4,0.3
		c-4.2,0.9-9,2.8-9.7,3c-0.7,0.1-1.3,0.1-1.9,0.1c-3.8,0-4.5-1.8-4.6-1.8l-0.2-0.6l-0.5,0.4c-1.5,1-2.8,1.5-3.9,1.5h-0.1l-0.5-0.1
		l-0.5-0.1c-0.6-0.2-0.9-0.6-0.9-0.6l-0.3-0.4l-0.4,0.3c-1.4,1.2-2.9,1.9-4.4,1.9c-1.4,0-2.4-0.6-2.4-0.6l-0.3-0.2l-0.3,0.2
		c-3.1,2.6-6.5,3.5-6.5,3.5l-0.1,0l-0.1,0.1c-0.5,0.7-2,1-4,1c-1.1,0-2-0.1-2.4-0.1C697.9,442.5,697.8,442,697.9,441.3"/>
	<path class="st1" d="M780.9,537.8c-9.7,6.5-19.3,14.1-27.4,21c4.5,4.2,9.1,8.7,13.7,13.6l0.5-0.4h0.9l0.2,0.6l0.7-1
		c-0.4-1.1-0.1-2.4,0.9-3.2c1.3-1.1,3-1.1,4,0c1,1.1,0.7,2.9-0.5,4c-0.8,0.7-1.8,1-2.7,0.7c-0.6,1-0.3,2-0.3,2
		c1.2,2.7,6.4,5.1,10.6,5c3.1,0,5.3-1.1,8.5-4.2c3.6-3.7,6.9,0,6.9,0c5.1,7.3-5.3,14-12.6,14.1c-8.9,0.2-17-5.3-19.1-7.8
		c-0.8-0.9-1.3-1.2-2-0.9c-0.4,0.2-0.6,0.8-0.7,1.4c0.1,1-0.3,1.9-1.1,2.6c-1.2,1.1-3,1.1-4,0c-1-1.1-0.8-2.9,0.5-4
		c0.6-0.6,1.5-0.9,2.2-0.8l0.3-0.1l-0.3-0.2v-0.9l1-1c-1.8-1.8-7.2-7-14.5-13.6c-7.3,6.5-12.6,11.7-14.5,13.6l1,1v0.9l-0.3,0.2
		l0.2,0.1c0.8,0,1.6,0.2,2.2,0.8c1.2,1.1,1.5,2.9,0.5,4c-1,1.1-2.8,1.1-4,0c-0.8-0.7-1.2-1.7-1.1-2.6c-0.1-0.6-0.4-1.2-0.8-1.4
		c-0.7-0.4-1.2,0-2,0.9c-2.1,2.5-10.2,8-19.1,7.8c-7.3-0.1-17.7-6.8-12.6-14.1c0,0,3.2-3.7,6.9,0c3.2,3.1,5.4,4.2,8.5,4.2
		c4.1,0.1,9.3-2.3,10.5-5c0,0,0.4-1-0.2-2c-0.9,0.2-1.9,0-2.7-0.7c-1.2-1.1-1.4-2.9-0.5-4c1-1.1,2.7-1.1,4,0c1,0.9,1.3,2.2,0.9,3.2
		l0.7,1l0.2-0.6h0.9l0.4,0.4c4.6-4.9,9.2-9.4,13.7-13.6c-8.1-6.9-17.7-14.5-27.4-21c-30.4-20.2-53.3-18.3-53.3-18.3
		c17.2-6.4,38.8-0.2,48.6,5.4c7,4,22,13.2,39,27.7c16.9-14.5,32-23.8,39-27.7c9.8-5.5,31.4-11.8,48.6-5.4
		C834.2,519.6,811.3,517.6,780.9,537.8"/>
</g>
</svg>
