<?xml version="1.0" encoding="utf-8"?>
<!-- Generator: Adobe Illustrator 26.0.1, SVG Export Plug-In . SVG Version: 6.00 Build 0)  -->
<svg version="1.1" id="Layer_1" xmlns="http://www.w3.org/2000/svg" xmlns:xlink="http://www.w3.org/1999/xlink" x="0px" y="0px"
	 viewBox="0 0 339.1 254.7" style="enable-background:new 0 0 339.1 254.7;" xml:space="preserve">
<style type="text/css">
	.st0{fill:url(#SVGID_1_);}
	.st1{fill:#142A51;}
	.st2{fill:#1369B2;}
</style>
<g id="Layer_2_00000031198679221701532390000003780116343518243478_">
	<g id="Layer_1-2">
		
			<radialGradient id="SVGID_1_" cx="-518.2784" cy="153.0712" r="1" gradientTransform="matrix(68.95 0.1 -0.1 68.95 35828.4531 -10392.7715)" gradientUnits="userSpaceOnUse">
			<stop  offset="0" style="stop-color:#4A3F8D"/>
			<stop  offset="0.13" style="stop-color:#3F509C"/>
			<stop  offset="0.38" style="stop-color:#247DC2"/>
			<stop  offset="0.51" style="stop-color:#1497D9"/>
			<stop  offset="0.6" style="stop-color:#1A8ED1"/>
			<stop  offset="0.75" style="stop-color:#2976BC"/>
			<stop  offset="0.94" style="stop-color:#414E9A"/>
			<stop  offset="1" style="stop-color:#4A3F8D"/>
		</radialGradient>
		<path class="st0" d="M129.8,98h-12.7c-0.7,0-1.3,0.6-1.3,1.3c0,0,0,0,0,0v25.9c0,13.4-10.9,24.3-24.3,24.3c0,0-0.1,0-0.1,0H73.6
			c-0.3,0-0.7,0.1-0.9,0.4c-0.2,0.2-0.4,0.6-0.4,0.9v12.7c0,0.3,0.1,0.7,0.4,0.9c0.2,0.2,0.6,0.4,0.9,0.4h17.8
			c5.8,0.1,11.5-1,16.9-3.1v-12.1h15.5c4.6-6.4,7.2-14.7,7.2-24.4V99.3c0-0.2,0-0.3-0.1-0.5c-0.1-0.2-0.2-0.3-0.3-0.4
			c-0.1-0.1-0.3-0.2-0.4-0.3C130.1,98,130,98,129.8,98z"/>
		<path class="st1" d="M129.8,96.3h-12.7c-1.4,0-2.6,1.2-2.6,2.6v25.9c0,12.7-10.3,23-23,23c0,0,0,0-0.1,0H73.7
			c-0.3,0-0.7,0.1-1,0.2c-0.3,0.1-0.6,0.3-0.9,0.6c-0.2,0.2-0.4,0.5-0.6,0.8c-0.1,0.3-0.2,0.7-0.2,1v12.7c0,0.7,0.3,1.3,0.8,1.8
			c0.5,0.5,1.1,0.8,1.8,0.8h17.8c5.8,0.1,11.5-0.9,16.9-3v-2.8c-5.4,2.2-11.1,3.4-16.9,3.3l-17.8-0.1v-12.8h17.8
			c14.1,0,25.6-11.4,25.6-25.6l0.1-26h12.7v26c0,9.9-2.9,18.4-8,24.8h3.3c4.7-6.7,7.3-15.1,7.3-24.8v-26c0-0.7-0.3-1.3-0.8-1.8
			C131.1,96.5,130.5,96.3,129.8,96.3z"/>
		<path class="st2" d="M197.4,78.2l9.2-3.9c-0.5-1.1-1-2.3-1.3-3.5c-0.9-4.3,1.8-8.1,6.2-9c3.9-0.8,7,1.2,7.7,4.7
			c0.9,4-1.4,6.9-5.2,8.5l-15.1,6.5c-0.3,0.1-0.7,0.1-1,0c-0.3-0.1-0.6-0.4-0.7-0.7l-0.4-0.9c-0.1-0.2-0.1-0.3-0.1-0.5
			c0-0.2,0-0.3,0.1-0.5c0.1-0.2,0.2-0.3,0.3-0.4C197.1,78.3,197.2,78.2,197.4,78.2z M212.8,71.5c1.6-0.6,2.7-2.3,2.4-4
			c0-0.4-0.2-0.7-0.4-1c-0.2-0.3-0.5-0.6-0.8-0.8c-0.3-0.2-0.6-0.3-1-0.4c-0.4,0-0.7,0-1.1,0.1c-0.5,0.1-0.9,0.2-1.3,0.5
			c-0.4,0.3-0.7,0.6-1,1c-0.5,0.8-0.7,1.8-0.4,2.8c0.3,1,0.7,1.9,1.2,2.8L212.8,71.5z"/>
		<path class="st1" d="M124.2,178.5h-1.7c-0.1,0-0.2,0-0.2,0.1c-0.1,0-0.1,0.1-0.2,0.2l-3.5,8.7l-3.8-8.8c0-0.1-0.1-0.1-0.2-0.2
			c-0.1-0.1-0.2-0.1-0.2-0.1h-1.8c-0.1,0-0.1,0-0.2,0c-0.1,0-0.1,0.1-0.2,0.1c0,0-0.1,0.1-0.1,0.1c0,0.1,0,0.1,0,0.2v13.7
			c0,0.1,0,0.2,0.1,0.3c0.1,0.1,0.2,0.1,0.3,0.1h1.4c0.1,0,0.2,0,0.3-0.1c0.1-0.1,0.1-0.2,0.1-0.3v-7.9l2.6,6c0,0.1,0.1,0.2,0.2,0.2
			c0.1,0,0.2,0.1,0.2,0.1h1.8c0.1,0,0.2,0,0.2-0.1c0.1-0.1,0.1-0.1,0.2-0.2l2.5-6.1v8c0,0.2,0.2,0.4,0.4,0.4c0,0,0,0,0,0h1.6
			c0.1,0,0.2,0,0.3-0.1c0.1-0.1,0.1-0.2,0.1-0.3v-13.7c0-0.1-0.1-0.2-0.1-0.3C124.4,178.5,124.3,178.5,124.2,178.5z"/>
		<path class="st1" d="M148.9,178.5h-1.6c-0.1,0-0.1,0-0.2,0c-0.1,0-0.1,0.1-0.2,0.1c0,0-0.1,0.1-0.1,0.1c0,0.1,0,0.1,0,0.2v7.7
			c0.1,1,0,2-0.3,2.9c-0.2,0.4-0.5,0.7-0.9,0.9c-1,0.4-2,0.4-3,0c-0.4-0.2-0.8-0.4-1-0.8c-0.3-0.8-0.4-1.6-0.3-2.4v-8.3
			c0-0.1-0.1-0.2-0.1-0.3c-0.1-0.1-0.2-0.1-0.3-0.1h-1.8c-0.1,0-0.1,0-0.2,0c-0.1,0-0.1,0.1-0.1,0.1c0,0-0.1,0.1-0.1,0.1
			c0,0.1,0,0.1,0,0.2v8.6c-0.1,1.2,0.1,2.4,0.7,3.4c0.5,0.7,1.2,1.3,2,1.6c0.9,0.3,1.9,0.5,2.8,0.5c1,0,1.9-0.2,2.8-0.6
			c0.7-0.4,1.4-1,1.8-1.7c0.5-1.1,0.7-2.4,0.6-3.6V179C149.4,178.7,149.2,178.5,148.9,178.5L148.9,178.5z"/>
		<path class="st1" d="M171.9,179.3c-1.3-0.6-2.8-0.9-4.2-0.8h-3.8c-0.2,0-0.4,0.2-0.4,0.4c0,0,0,0,0,0v13.6c0,0.1,0,0.2,0.1,0.3
			c0.1,0.1,0.2,0.1,0.3,0.1h4c1.4,0.1,2.9-0.3,4.1-1c0.9-0.6,1.7-1.6,2.1-2.6c1-2.5,1-5.2,0-7.7
			C173.7,180.7,172.9,179.9,171.9,179.3z M172.1,185.9c0,0.9-0.1,1.9-0.5,2.8c-0.2,0.6-0.7,1.2-1.3,1.5c-0.8,0.4-1.7,0.5-2.6,0.5
			h-1.6v-9.9h1.6c0.9-0.1,1.9,0.1,2.7,0.5c0.6,0.4,1,1,1.2,1.6C172,183.9,172.2,184.9,172.1,185.9L172.1,185.9z"/>
		<path class="st1" d="M195.9,178.8c0-0.1-0.1-0.2-0.2-0.2c-0.1-0.1-0.2-0.1-0.2-0.1h-1.8c-0.1,0-0.2,0-0.2,0.1
			c-0.1,0.1-0.1,0.1-0.2,0.2l-5.6,13.6c0,0.1,0,0.1,0,0.2c0,0.1,0,0.1,0.1,0.2c0.1,0.1,0.2,0.2,0.4,0.2h1.7c0.1,0,0.2,0,0.2-0.1
			c0.1,0,0.1-0.1,0.2-0.2l1.4-3.5h5.4l1.3,3.5c0,0.1,0.1,0.2,0.2,0.2c0.1,0.1,0.2,0.1,0.3,0.1h1.9c0.1,0,0.1,0,0.2-0.1
			c0.1,0,0.1-0.1,0.2-0.1c0-0.1,0.1-0.1,0.1-0.2c0-0.1,0-0.1,0-0.2L195.9,178.8z M196.2,187.1h-3.6l1.9-4.6L196.2,187.1z"/>
		<path class="st1" d="M225,181.9c-0.4-1-1.2-1.9-2.2-2.5c-1.3-0.6-2.8-0.9-4.2-0.8h-3.8c-0.1,0-0.2,0-0.3,0.1
			c-0.1,0.1-0.1,0.2-0.1,0.3v13.6c0,0.1,0.1,0.2,0.1,0.3c0.1,0.1,0.2,0.1,0.3,0.1h4c1.4,0.1,2.9-0.3,4.1-1c0.9-0.6,1.7-1.5,2.1-2.6
			c0.5-1.2,0.7-2.5,0.7-3.7C225.8,184.5,225.6,183.1,225,181.9z M222.6,183.1c0.3,0.9,0.5,1.9,0.4,2.9c0,0.9-0.1,1.9-0.5,2.8
			c-0.2,0.6-0.7,1.2-1.3,1.5c-0.8,0.4-1.7,0.5-2.6,0.5H217v-9.9h1.6c0.9-0.1,1.9,0.1,2.7,0.5C221.9,181.8,222.4,182.4,222.6,183.1
			L222.6,183.1z"/>
		<path class="st1" d="M254.1,98.2c-7.6-6.6-16.6-8.9-26.6-7.8c-7.8,0.8-15,4.1-20.6,9.6c-12.2,12-15.5,30.3-8.4,45.8
			c0.2,0.5,0.5,0.9,1,1.2c0.4,0.3,1,0.4,1.5,0.3c5.8,0,11.5,0,17.3,0c0.4,0,0.7,0,1.1,0c0.2,0,0.4-0.1,0.6-0.2
			c0.2-0.1,0.3-0.3,0.4-0.5c0.2-0.4,0.1-0.9-0.2-1.3c-0.3-0.4-0.7-0.8-1.1-1.2c-8.5-8.7-8.4-22.8,0.4-31.3c0.1-0.1,0.2-0.2,0.3-0.3
			c7-6.7,18.1-5.4,23.9,0c4.3,4,6.7,9.8,6.5,15.7c-0.2,9.2-7.5,21-21.7,21.1H196c-2.8,0-5.6,0.1-8.4-0.1
			c-8.8-0.8-16.9-8.1-18.6-16.7c-0.6-3.3-0.9-6.6-0.9-9.9c0-7.2,0.1-14.4,0.2-21.6c0.1-2.6-0.7-3.9-3.9-3.8c-2.7,0.1-5.4,0-8.1,0
			h-3.6c-1.3,0-2.4,0.9-2.5,2.2c0,0.3,0,0.7,0,1c0,7,0.1,14,0,21c0,2.8,0,5.6-0.3,8.4c-0.7,7.4-5.2,13.9-11.9,17.2
			c-2.8,1.3-5.9,2-9,2h-20.4c-0.3,0-0.7,0.1-0.9,0.4c-0.2,0.2-0.4,0.6-0.4,0.9v15.3c0,0.7,0.6,1.3,1.3,1.3h20.4
			c2.8-0.1,5.5-0.3,8.2-0.8l0.5-0.1l0.4-0.1c2.4-0.5,4.8-1.3,7-2.5c2.2-1,4.3-2.3,6.3-3.7c2.4-1.7,4.5-3.7,6.5-5.9l1.3-1.4
			c0.2,0.3,0.4,0.6,0.6,0.9c2.5,2.8,5.4,5.3,8.6,7.4c5.5,3.7,11.4,6.1,18.1,6.2c14.1,0.1,28.3,0.2,42.4,0.1c10.5,0,20.6-4.3,27.8-12
			c6.4-6.5,10.3-15,11-24.1C269,117.7,263.9,106.8,254.1,98.2z M265.6,129.4c-0.2,4.1-1.1,8.1-2.8,11.8c-2.5,6.1-6.5,11.5-11.7,15.6
			c-6.2,4.9-13.8,7.5-21.6,7.5c-13.4,0.1-26.9,0-40.3,0c-6.3,0.1-12.6-1.7-17.9-5.2c-4.1-2.4-7.7-5.5-10.6-9.2
			c-1-1.3-1.7-1.3-2.8,0.1c-2.8,3.7-6.3,6.8-10.2,9.2c-1.5,0.9-3,1.7-4.5,2.4c-4.4,1.8-9.2,2.7-14,2.6H110v-12.8h19.2
			c3.1,0,6.1-0.6,9-1.7c7.4-3.2,12.7-9.8,14.2-17.7c0.3-1.6,0.4-3.2,0.4-4.9c0-8.7,0-17.2,0.1-25.9c0-0.5,0-1,0.1-1.7h12.9v1.9
			c0,8.5,0,16.9,0,25.4c0,2,0.2,4,0.5,6c1,5.4,4.1,9.6,8.2,13.1c4.3,3.8,9.8,5.8,15.4,5.7c12.8-0.1,25.6-0.1,38.4,0
			c9.9,0.2,19-5.8,22.5-15.1c3.6-9,2-17.3-4.1-24.6c-7.7-9.3-22.7-8.9-30.5,0.5c-6.7,8-7.7,19.4-2.5,28.5c0.7,1.2,1.4,2.3,2.2,3.7
			c-5.1,0.1-10.1,0-15.1,0c-0.5-1.2-1-2.4-1.4-3.6c-4.8-13.9-0.9-30,9.7-39.8c5.3-4.8,11.9-7.7,19-8.4c4.2-0.5,8.4-0.2,12.4,0.8
			c5.4,1.3,10.3,4.1,14.1,8.1C262,109.7,266,118.7,265.6,129.4L265.6,129.4z"/>
		<path class="st1" d="M210,156.6h22.1c7.1,0.2,13.8-3,18.2-8.5c5.3-6.5,8.1-13.9,7.5-22.3c-0.7-11-8.1-21.6-19.3-24.6
			c-1.9-0.4-3.7-0.7-5.6-0.9c-0.3,0-0.6,0-1,0c-0.7,0-1.2-0.6-1.1-1.3c0-0.2,0-0.3,0.1-0.5c0.1-0.1,0.2-0.3,0.3-0.4
			c0.1-0.1,0.2-0.2,0.4-0.2c0.1-0.1,0.3-0.1,0.5-0.1c1.3,0,2.5,0,3.8,0.2c9.5,1.5,16.3,6.8,20.9,15.1c2.5,4.4,3.9,9.4,3.8,14.5
			c-0.3,9.9-3.8,18.6-11.3,25.4c-4.6,4.1-10.5,6.4-16.7,6.4c-12.3,0.1-24.4,0-36.7,0c-3,0-6,0-9-0.1c-3.9-0.1-7.8-1.2-11.1-3.3
			c-9.4-5.6-14.9-13.7-16.5-24.5c-0.2-1.9-0.3-3.9-0.2-5.9v-20.8c0.1-0.9,0.5-1.4,1.2-1.4c0.8,0.1,1.3,0.7,1.3,1.4v1.3
			c0,7.2-0.2,14.5,0.1,21.7c0.5,12.3,6.4,21.3,17.4,26.9c2.8,1.4,5.9,2.1,9,2C195.3,156.6,202.7,156.6,210,156.6z"/>
		<path class="st1" d="M206.7,134c0,0.7-0.2,1.2-0.9,1.4c-0.2,0-0.3,0.1-0.5,0.1c-0.2,0-0.3-0.1-0.4-0.2c-0.1-0.1-0.3-0.2-0.4-0.3
			c-0.1-0.1-0.2-0.3-0.2-0.4c-0.3-1.5-0.6-3-0.7-4.5c0-0.3,0.1-0.6,0.3-0.8c0.4-0.5,1.1-0.6,1.6-0.2c0.2,0.2,0.4,0.4,0.5,0.7
			C206.2,131.1,206.4,132.5,206.7,134z"/>
		<path class="st1" d="M206.8,136.9c0.1,0.1,0.5,0.1,0.6,0.4c0.4,0.8,0.7,1.6,0.9,2.5c0.1,0.3-0.5,0.9-0.9,1.1
			c-0.2,0.1-0.4,0.1-0.6,0c-0.2-0.1-0.4-0.2-0.6-0.3c-0.4-0.7-0.7-1.5-0.9-2.3C205.3,137.4,205.9,136.9,206.8,136.9z"/>
		<path class="st1" d="M226.4,99.1c0-0.2-0.1-0.3-0.2-0.4c-0.1-0.1-0.2-0.2-0.3-0.3c-0.1-0.1-0.3-0.1-0.4-0.2c-0.2,0-0.3,0-0.5,0
			c-1.2,0.2-2.5,0.6-3.7,1c-9,3.6-14.4,10.3-17,19.4c-0.2,0.6-0.3,1.2-0.5,1.8h0.1c-0.2,1.1-0.4,2.3-0.5,3.4v0.5
			c-0.1,1.4,0.2,2,1,2.2s1.4-0.5,1.5-2c0.1-2.2,0.6-4.4,1.3-6.5l0,0c2-6.4,6.4-11.9,12.3-15.1c1.7-0.8,3.5-1.5,5.3-2.1
			c0.3-0.1,0.6-0.1,0.9-0.3c0.2-0.1,0.3-0.1,0.4-0.2c0.1-0.1,0.2-0.2,0.3-0.4c0.1-0.1,0.1-0.3,0.1-0.5
			C226.5,99.3,226.5,99.2,226.4,99.1z"/>
	</g>
</g>
</svg>
