<?xml version="1.0" encoding="utf-8"?>
<svg version="1.1" id="Layer_1" xmlns="http://www.w3.org/2000/svg" xmlns:xlink="http://www.w3.org/1999/xlink" x="0px" y="0px" viewBox="0 0 512 512" style="enable-background:new 0 0 512 512;" xml:space="preserve">
<style type="text/css">.st0{fill:#2E2B7F}.st1{fill:#008FBB}</style>
<g><title>qiwa-logo-color-ar</title><g>
<path class="st0" d="M31.7,223v0.4c-0.3,3.2-0.5,6.3-0.4,9.5v39.7c-0.1,50.5,40.8,91.6,91.3,91.7c20.6,0,40.7-6.9,56.9-19.7c3.3-2.7,6.5-5.5,9.5-8.6c16.4-17,25.6-39.7,25.6-63.3v-39.7c0-26.7,21.6-48.3,48.2-48.3c11,0,21.6,3.7,30.2,10.6c4.8-13.8,12.1-26.7,21.7-37.8c-33-22.9-77-21.5-108.5,3.4c-3.4,2.6-6.6,5.5-9.5,8.6c-16.4,17-25.6,39.7-25.6,63.3v39.7c0,26.7-21.6,48.3-48.3,48.3s-48.3-21.6-48.3-48.3V233c0-1.8,0.1-3.5,0.3-5.3l0.2-2.4l0,0l0.2-3.3c0.7-6.4,2.5-12.6,5.3-18.3c2-4.2,4.4-8.1,7.4-11.7c2.9-3.5,6.1-6.6,9.7-9.3c0.4-0.3,0.8-0.7,1.2-1l0.2-0.2c0.9-0.7,1.7-1.6,2.3-2.7l0.1-0.2c0.1-0.1,0.2-0.3,0.3-0.4c0.4-0.7,0.7-1.4,0.8-2.2v-0.4c-0.2-2.7-1-5.3-2.3-7.6l-0.1-0.2c-2.8-4.6-6.3-8.7-10.5-12l-1-0.8l0,0l-0.3-0.6l0,0c-0.4-0.3-0.9-0.6-1.3-0.9c-6.2-3.8-11.9-3.8-18.2-0.1c-3.5,2.2-6.6,4.8-9.3,8c-10.9,11.2-24.5,30.6-27.7,61L31.7,223z"/>
<path class="st1" d="M294,394.2c-9.8,24.7-37.9,36.8-62.6,27c-5.8-2.3-11-5.7-15.5-10c-1-0.9-1.9-1.7-2.7-2.2c-0.9-0.6-1.9-1.2-3-1.5c-1.3-0.5-2.8-0.6-4.1-0.1c-0.2,0.2-0.5,0.3-0.8,0.3c-1.4,0.9-2.8,1.9-4.1,3c-2.4,2-4.7,4.2-6.7,6.6c-3.1,3.6-5.9,7.5-8.2,11.7c-0.2,0.4-0.6,0.9-0.8,1.4c-2,6.2,1.2,11.9,3.3,14.8l0.4,0.8c1.1,1.2,2.3,2.4,3.5,3.4c0.4,0.3,0.7,0.6,1,0.9c29.3,24.4,69.5,18,85.4,14c2.4-0.5,4.8-1.2,7.2-2.1l0.7-0.2c1.7-0.6,3.4-1.2,5-2l0.9-0.3c0.4-0.2,0.9-0.5,1.3-0.7l0.3-0.2c13.5-6.4,24.9-16.3,33.3-28.6c8.4-12.4,12.9-28.2,12.9-45.9v-28.7c-7.1-3.3-12.7-6.7-21.2-17.5c-8,8.4-13.9,12.6-22.1,16.6v15.4C297.5,370.2,296.9,387.1,294,394.2z"/>
<path class="st1" d="M400.7,87.7v33.3h35c9.8-0.4,15.6-6.7,15.6-17.3V70.3h-35C406.5,70.8,400.7,77.1,400.7,87.7z"/>
<path class="st1" d="M341.3,87.7v33.3h35c9.8-0.4,15.6-6.7,15.6-17.3V70.3h-35C346.9,70.8,341.3,77.1,341.3,87.7z"/>
<path class="st0" d="M389.2,136c-20.5,0-40.5,6.9-56.6,19.7c-3.4,2.6-6.6,5.5-9.5,8.6c-16.4,17-25.6,39.7-25.6,63.3v39.7c0,26.7-21.6,48.3-48.2,48.3c-11,0-21.6-3.7-30.2-10.6c-4.8,13.8-12.1,26.7-21.7,37.8c33,22.9,77,21.5,108.5-3.4c3.3-2.7,6.5-5.5,9.5-8.6l0,0c16.4-17,25.6-39.7,25.6-63.3v-39.8c0-26.7,21.6-48.3,48.3-48.3c26.7,0,48.3,21.6,48.3,48.3v39.7c0,26.7-21.6,48.3-48.2,48.3c-11,0-21.6-3.7-30.2-10.6c-4.6-3.6-8.9-7.5-12.9-11.7c0,0-3.5,19.4-20.9,39.6c3.8,3.6,7.9,6.9,12.2,9.9c15.2,10.6,33.4,16.3,51.9,16.2c50.6-0.1,91.6-41.1,91.6-91.7v-39.7C480.8,177,439.8,136.1,389.2,136z"/>
<path class="st1" d="M67.2,130.7l-8.8-8.8c-0.4,0-0.8,0.1-1.2,0.1H56c-3.7,0-7.3-0.6-10.7-1.9c-3-1.2-5.7-3.1-7.8-5.4c-2.2-2.4-3.8-5.3-4.8-8.4c-1.1-3.5-1.7-7.1-1.7-10.7c0-3.6,0.5-7.3,1.7-10.7c1-3,2.6-5.8,4.8-8.2c2.2-2.4,4.9-4.2,7.8-5.3c6.9-2.5,14.4-2.5,21.3,0c3,1.1,5.6,3,7.7,5.3c2.1,2.4,3.7,5.2,4.8,8.2c1.1,3.4,1.7,7,1.7,10.6c0,2.4-0.2,4.9-0.7,7.3c-0.4,2.3-1.2,4.5-2.2,6.5c-1,2-2.4,3.9-4,5.5c-1.7,1.7-3.7,3.2-5.9,4.3l11.5,11.6H67.2zM56,77.5c-2.3-0.1-4.5,0.5-6.5,1.7c-1.8,1-3.3,2.5-4.4,4.2c-1.2,1.8-2,3.8-2.5,5.9c-1,4.4-1,8.9,0,13.3c0.5,2.1,1.3,4.1,2.5,5.9c1.1,1.7,2.6,3.1,4.4,4.1c2,1.1,4.2,1.6,6.5,1.5c2.3,0.1,4.6-0.5,6.6-1.5c1.8-1,3.3-2.5,4.4-4.2c1.1-1.8,2-3.8,2.4-5.9c1-4.4,1-8.9,0-13.3c-0.5-2-1.3-4-2.4-5.7c-1.1-1.7-2.6-3.1-4.4-4.1C60.6,78.1,58.3,77.4,56,77.5z"/>
<path class="st1" d="M92,70.4h10.2v50.7H92V70.4z"/>
<path class="st1" d="M110.6,70.4h10.7l9.3,40.6h0.1l8.6-40.6h13.8l8.9,40.6h0.1l9.5-40.6h9.8l-13.3,50.7h-13l-9-40.6h-0.2l-8.9,40.6H124L110.6,70.4z"/>
<path class="st1" d="M202.8,70.4h11.5l19.9,50.7h-11.3l-4.3-11.6H198l-4.4,11.6h-10.5L202.8,70.4zM208.5,80.6h-0.1l-7.3,20.9h14.8L208.5,80.6z"/>
</g></g></svg>
