<?xml version="1.0" encoding="UTF-8"?>
<svg id="Layer_1" xmlns="http://www.w3.org/2000/svg" version="1.1" viewBox="0 0 342 195">
  <!-- Generator: Adobe Illustrator 30.1.0, SVG Export Plug-In . SVG Version: 2.1.1 Build 136)  -->
  <defs>
    <style>
      .st0 {
        fill: #026c68;
      }

      .st1 {
        fill: #7ebc00;
      }

      .st2 {
        fill: #88b925;
      }
    </style>
  </defs>
  <path class="st0" d="M23.16,104.85c0,1.12-.47,1.54-1.72,1.54h-1.84c-1.2,0-2.06-.3-2.53-.86-.43-.51-.6-1.33-.43-2.36l.51-3.56h-2.06l-.47,3.17c-.26,1.84.09,3.39,1.03,4.46.9,1.03,2.23,1.54,3.95,1.54h1.84c2.4,0,3.86-1.5,3.86-3.95v-8.06h-2.14v8.06Z"/>
  <path class="st0" d="M21.14,95.8h-2.27v2.45h2.27v-2.45Z"/>
  <path class="st0" d="M71.64,101.98c0,.43-.09.73-.3.86-.21.17-.56.21-1.12.09l-1.46-.3c-.73-.17-.86-.39-.86-.9v-4.46h-2.14v4.8c-.09.26-.3.47-1.29.47h-.69c-1.2,0-1.72-.43-1.72-1.54v-3.35h-2.14v3.35c0,.3,0,.64.09.99-.43.34-1.12.56-1.93.56h-1.76c-.69,0-1.03-.09-1.2-.26v-.81c0-3.35-1.93-5.28-5.28-5.28h-10.72v-.3c0-.86.26-1.33,1.03-1.89l3.39-2.4-1.03-1.8-3.43,2.4c-1.24.86-1.84,2.06-1.84,3.65v2.49h12.61c2.19,0,3.17.94,3.17,3.13v.56c0,.39-.09.51-.64.51h-21.71c-.6,0-.82-.13-.82-.94v-12.14h-2.14v12.14c0,2.06,1.16,3.35,2.96,3.35h21.71c1.12,0,1.8-.47,2.14-.94.43.64,1.03.94,1.8.94h1.76c1.2,0,2.1-.39,2.75-1.16.69.77,1.67,1.16,2.92,1.16h.69c.86,0,1.59-.3,2.06-.94.43.47.99.77,1.67.94l1.46.3c.34.09.69.13.99.13.69,0,1.33-.21,1.8-.6.77-.6,1.16-1.63,1.16-2.83v-5.79h-2.14v5.79l.21.04Z"/>
  <path class="st0" d="M78.2,108.33c0-.77.26-1.07.9-1.07h1.24v-1.24h-1.24c-1.29,0-2.06.86-2.06,2.32v.09h-.6v1.24h4.12v-1.24h-2.36v-.09Z"/>
  <path class="st0" d="M83.69,101.81c0,.39-.13.77-.94.77h-7.46v2.45h7.46c1.84,0,3.05-1.29,3.05-3.22v-12.4h-2.14v12.4h.04Z"/>
  <path class="st0" d="M80.9,101.59l-2.06-9.69-2.06.56,1.89,9.14h2.23Z"/>
  <path class="st0" d="M90.98,89.5h-2.14v15.53h2.14v-15.53Z"/>
  <path class="st0" d="M97.33,95.85h-.13c-2.45,0-4.12,1.72-4.12,4.29v.56c0,2.57,1.72,4.33,4.25,4.33h1.97v.21c0,.73-.17.94-1.46,1.2l-4.2.94.47,2.1,4.2-.94c1.33-.26,3.09-.9,3.09-3.35v-5.1c0-2.57-1.67-4.29-4.12-4.29l.04.04ZM95.23,100.13c0-1.29.69-2.02,1.97-2.02h.13c1.29,0,1.97.69,1.97,2.02v2.57h-1.97c-1.33,0-2.1-.73-2.1-2.02v-.56Z"/>
  <path class="st0" d="M123.15,102.58h-10.08c-1.89,0-2.7-.77-2.7-2.53v-2.96h-2.14v2.96c0,3.13,1.8,4.98,4.85,4.98h12.18v-9.22h-2.14v6.78h.04Z"/>
  <path class="st0" d="M119.64,94.34h-2.14v2.45h2.14v-2.45Z"/>
  <path class="st0" d="M116.85,94.34h-2.19v2.45h2.19v-2.45Z"/>
  <path class="st0" d="M137.78,106.83h-2.14v2.45h2.14v-2.45Z"/>
  <path class="st0" d="M134.95,106.83h-2.19v2.45h2.19v-2.45Z"/>
  <path class="st0" d="M136.67,102.07v-6.26h-2.14v6.26c0,.39-.09.51-.69.51h-3.09c-.6,0-.81-.13-.81-.94v-12.14h-2.14v12.14c0,2.06,1.16,3.35,2.96,3.35h3.09c2.06,0,2.83-1.54,2.83-2.96v.04Z"/>
  <path class="st0" d="M159.45,106.95h-2.27v2.44h2.27v-2.44Z"/>
  <path class="st0" d="M164.51,101.81c0,.39-.13.77-.94.77h-2.4c-1.2,0-1.72-.43-1.72-1.54v-3.35h-2.14v3.35c0,.34,0,.64.09.9-.39.43-1.03.64-1.89.64h-1.59c-1.03,0-1.54-.17-1.76-.56v-12.61h-2.14v12.4c0,.39-.13.77-.94.77h-1.5c-.86,0-1.37-.13-1.67-.43,0-.39,0-.81-.13-1.29l-.56-2.36c-.47-2.06-1.76-3.13-3.65-3.13h-2.36v2.44h2.36c.99,0,1.42.34,1.63,1.24l.56,2.36c.09.39.09.64-.09.81-.17.21-.51.3-1.12.3h-4.5v2.45h4.5c1.16,0,2.14-.43,2.7-1.2.47.77,1.24,1.2,2.27,1.2h1.5c1.07,0,2.02-.47,2.53-1.29.47.86,1.29,1.29,2.32,1.29h1.59c1.2,0,2.1-.39,2.79-1.12.69.73,1.67,1.12,2.87,1.12h2.4c1.84,0,3.09-1.29,3.09-3.22v-12.4h-2.14v12.4l.04.04Z"/>
  <path class="st0" d="M171.8,89.5h-2.14v15.53h2.14v-15.53Z"/>
  <path class="st0" d="M185.78,91.21h-2.14v2.45h2.14v-2.45Z"/>
  <path class="st0" d="M183,91.21h-2.19v2.45h2.19v-2.45Z"/>
  <path class="st0" d="M187.8,100.18l-.17-.94c-.47-2.36-1.72-3.47-3.9-3.47h-3.47l-.94,4.93c-.26,1.2,0,2.27.6,3.05.64.77,1.67,1.2,2.92,1.2h1.24c1.24,0,2.32-.47,3-1.29.73-.9.99-2.14.73-3.52v.04ZM185.44,102.28c-.3.34-.73.51-1.33.51h-1.24c-.64,0-1.03-.13-1.29-.43-.21-.26-.26-.69-.17-1.24l.64-3.17h1.72c1.16,0,1.54.39,1.8,1.72l.17.9c.13.73.04,1.33-.26,1.72h-.04Z"/>
  <path class="st0" d="M190.72,105.07c0,.9-.34,1.37-1.16,1.72l-1.89.73.82,2.02,1.84-.73c1.67-.64,2.53-1.89,2.53-3.73v-8.67h-2.14v8.67Z"/>
  <path class="st0" d="M197.37,89.5h-2.14v15.53h2.14v-15.53Z"/>
  <path class="st0" d="M203.03,91.68h-2.27v2.44h2.27v-2.44Z"/>
  <path class="st0" d="M201.01,105.07c0,.9-.34,1.37-1.16,1.72l-1.89.73.82,2.02,1.84-.73c1.67-.64,2.53-1.89,2.53-3.73v-8.67h-2.14v8.67Z"/>
  <path class="st0" d="M208.95,95.85h-.13c-2.45,0-4.12,1.72-4.12,4.29v.56c0,2.57,1.72,4.33,4.25,4.33h1.97v.21c0,.73-.17.94-1.46,1.2l-4.2.94.47,2.1,4.2-.94c1.33-.26,3.09-.9,3.09-3.35v-5.1c0-2.57-1.67-4.29-4.12-4.29l.04.04ZM206.85,100.13c0-1.29.69-2.02,1.97-2.02h.13c1.29,0,1.97.69,1.97,2.02v2.57h-1.97c-1.33,0-2.1-.73-2.1-2.02v-.56Z"/>
  <path class="st2" d="M281.43,139.84c-25.7,0-46.57-20.87-46.57-46.4l.38-6.4h7.28v-9.73h.81v-1.54h3.47l1.03,1.66h1.84v12.38h1.46v1.75h.56v-9.95h5.83v2.56h1.93v4.78h3.3v-4.65h4.41l1.54,2.01v5.29h9v1.32h-10.37v-6.19l-.86-1.11h-2.36v6.23h-1.84v-1.58h-4.11v-4.78h-1.93v-2.56h-3.17v9.99h-3.21v-1.75h-1.46v-12.38h-1.2l-1.03-1.66h-1.41v1.54h-.82v9.78h-7.32l-.26,5.12c0,24.8,20.31,44.99,45.24,44.99s45.15-20.11,45.24-44.82h-4.71v-7.9h-2.78v-4.1h-3.17v-1.75h-3.9v1.2l-.81.85v7.3h-3.98v-5.42l-1.03-1.11h-2.1v-1.84h-2.44v11.99h-4.03v-4.44h-3.6v4.44h-9.51v-1.32h8.14v-4.44h6.25v4.44h1.33v-11.99h5.18v1.84h1.45l1.71,1.92v4.65h1.2v-6.53l.81-.85v-2.01h6.6v1.75h3.17v4.1h2.74v7.9h4.63v1.2c.04,25.53-20.86,46.31-46.52,46.31"/>
  <path class="st2" d="M264.01,122.11c-.38,0-.76.09-1.1.26-.93.69-1.26,2.03-.67,3.07.25.52.76.82,1.43,1.04.21,0,.38.04.67.04,2.78,0,5.27-1.77,7.33-3.45l.38-.3.25.39c.93,1.6,2.61,2.81,4.34,3.15h.38c1.18,0,2.61-.6,2.87-1.94.17-.95-.38-2.03-1.31-2.5-.55-.22-1.26-.22-2.23.22-.21.09-.3.39-.38.82-.08.39-.25,1.12-.93,1.12s-1.26-.39-1.56-.95c-.17-.3-.17-.65,0-.91,1.43-2.2,3.33-3.8,5.1-5.22.84-.69,1.69-1.42,2.49-2.16l.29-.26.3.26c.8.78,1.64,1.47,2.49,2.12,1.9,1.55,3.92,3.15,5.1,5.48.04.09.17.3.04.56-.17.39-.93,1.12-1.52,1.21-.38.04-.59-.04-.67-.17-.21-.22-.21-.56-.21-.78s0-.39-.04-.52c-.25-.56-.84-.69-1.43-.86-1.06-.26-2.28.6-2.53,1.77-.08.56,0,1.08.25,1.55.63.82,1.43,1.21,2.36,1.21,1.9,0,3.96-1.6,4.93-3.2l.25-.39.38.3c1.9,1.55,4.38,3.32,6.87,3.32s1.31-.09,1.98-.39c.38-.22.8-.65.93-1.21.17-.6.04-1.21-.25-1.68-.38-.65-1.09-.95-1.81-.95s-1.47.39-1.81.95l-.21.3-.3-.09c-1.26-.52-2.87-1.21-3.62-2.68-.3-.52-.17-1.21.08-1.68.25-.52.55-.6.76-.6s.21,0,.25.04c.63.39,1.26.6,1.81.6,1.05,0,1.9-.65,2.15-1.73.08-.56,0-1.08-.3-1.6-.29-.52-.84-.86-1.43-1.04h-.38c-1.01,0-1.98.52-2.61,1.3-.38.52-.59,1.12-.8,1.77-.17.6-.38,1.12-.67,1.68l-.25.39-7.92-7.51.3-.3c8.56-8.42,20.06-11.4,29.46-12.31-1.18-.09-2.44-.17-3.62-.17-10.41,0-20.19,3.67-27.61,10.32l-.25.22-.25-.22c-3.83-2.94-9.1-6.56-15.09-8.33-5.61-1.68-11.21-2.33-16.56-1.86,9.4.86,20.91,3.84,29.5,12.31l.3.3-7.92,7.51-.25-.39c-.38-.56-.55-1.12-.67-1.68-.21-.65-.38-1.21-.8-1.77-.59-.6-1.18-.91-1.98-1.21-1.26-.26-2.44.52-2.7,1.77-.17.95.38,2.03,1.31,2.5.08.04.29.04.55.04.59,0,1.18-.26,1.73-.52l.25-.09c.08-.04.17-.04.25-.04.38,0,.67.26.89.65.25.52.38,1.12.04,1.6-.8,1.42-2.36,2.12-3.62,2.68l-.3.09-.21-.26c-.59-.69-1.31-1.12-2.07-1.12M264.34,127.47c-.25,0-.55,0-.84-.04-1.05-.26-1.68-.78-2.06-1.47-.8-1.42-.38-3.24,1.01-4.27,1.39-.82,2.99-.39,4.05.69,1.06-.39,2.32-1.08,2.91-2.16.04-.04.04-.26,0-.52-.04-.22-.17-.39-.21-.39l-.21.09c-.63.26-1.31.56-2.11.56s-.59-.04-.84-.17c-1.26-.65-1.98-2.12-1.81-3.45.29-1.55,1.52-2.59,2.99-2.59s.55.04.76.09h.04c.93.39,1.64.78,2.36,1.51.55.65.8,1.43,1.01,2.12.08.3.21.69.38.95l6.45-6.13c-9.82-9.41-23.35-11.75-33.09-12l-4.05-.09,3.88-.78c6.87-1.34,14.12-.95,21.45,1.21,5.99,1.77,11.21,5.35,15.09,8.25,7.58-6.65,17.41-10.32,27.94-10.32s5.61.26,8.3.82l4.05.78-4.13.09c-9.69.26-23.27,2.59-33.09,12l6.45,6.13c.17-.3.21-.65.38-.95.21-.69.38-1.47.93-2.12.89-1.12,2.45-1.77,3.84-1.55.8.22,1.52.69,1.98,1.34.5.69.63,1.55.5,2.33-.38,1.47-1.52,2.38-2.99,2.38s-1.43-.22-2.07-.6c-.08.22-.21.65-.08.82.59,1.08,1.81,1.73,2.91,2.16.59-.69,1.43-1.08,2.36-1.08s1.98.56,2.61,1.42c.5.69.63,1.55.38,2.42-.21.82-.76,1.47-1.43,1.73-.76.3-1.48.52-2.28.52-2.61,0-5.1-1.68-7.04-3.2-1.18,1.6-3.33,3.2-5.35,3.2s-2.32-.56-3.12-1.6c-.51-.69-.63-1.55-.38-2.33.38-1.47,1.65-2.55,2.95-2.55s.38.04.63.09c.76.17,1.56.39,1.98,1.3.21.26.17.69.17.95.21-.04.55-.3.67-.56-1.18-2.16-2.95-3.58-4.85-5.14-.76-.6-1.52-1.21-2.23-1.86-.76.69-1.48,1.3-2.24,1.94-1.81,1.51-3.58,2.98-4.93,5.1.04.17.55.52.8.56.04-.09.08-.3.17-.39.08-.52.25-1.21.93-1.47,1.18-.52,2.07-.56,2.91-.17,1.26.65,1.98,2.12,1.81,3.45-.38,2.03-2.53,2.85-4.26,2.68-1.81-.3-3.58-1.51-4.72-3.15-2.11,1.86-4.59,3.5-7.5,3.5"/>
  <path class="st2" d="M297.94,67.36l1.08.87-.79-1.13c-5.04-7.54-10.74-7.8-12.57-7.63.37-.39,1-1.04,1.87-1.34l.62-.26-.62-.17c-1.37-.39-3.29-.69-4.91.69-.25-1.43-.87-2.99-1.25-3.25-.08-.04-.21-.09-.25-.04-.37.09-1.17,1.3-1.54,3.34-1.17-.95-3.12-1.43-4.75-.56l-.5.26.54.17s1.08.39,1.71,1.34c-7.41.17-10.07,3.94-12.24,6.98-.17.22-.29.39-.5.65l.29.3c3.04-2.95,7.7-3.9,9.95-3.34-2.71,1.13-7.87,4.38-9.66,13.7l-.21,1.21.63-1.04c2.96-4.85,5.83-7.8,9.28-9.45-2.25,3.51-5.29,9.54-4.08,15l.17.95.21-1.04c1.17-5.37,4.16-9.8,6.16-11.83-1.62,5.98-1,11.7-.17,14l.37,1.04v-1.08c.37-4.94,1.71-10.23,2.66-12.74l.67,4.85-.37.09.29,6.72h-.5l.54,6.89-.58.17v.22s.37,4.33.58,6.81c-.79.39-1.54,1.21-1.79,1.52v.39h5.79v-.39c-.58-.82-1.46-1.3-1.79-1.52l.63-7.24h-.63s.37-7.07.37-7.07h-.5s.29-6.68.29-6.68h-.54c.08-.61.29-2.21.58-4.94,1.25,2.21,2.33,6.85,2.91,12.57l.17,1.73.25-1.69c1.08-6.98.04-12.35-.37-14.22,1.71,1.73,5.16,7.89,6.33,12.27l.29,1.3.08-1.34c.38-5.85-.87-10.32-4.41-15.17,1.46.39,3.21,1.69,5.12,3.64,1.79,1.78,3.46,4.16,4.37,5.89l.54,1.04-.08-1.21c-.67-7.15-5.83-12.22-9.53-13.7,3.33-.48,8.2,2.21,9.7,3.38"/>
  <path class="st1" d="M16.25,119.61h.13l-.34,6.43h-1.5s.39-7.64.39-7.64h1.33v1.2ZM21.7,119.61h-.17l-1.93,6.39h-1.5l-1.93-6.39h-.13v-1.2h1.07l1.93,6.39h-.34l1.93-6.39h1.07v1.2ZM21.74,126.04l-.34-6.43h.17v-1.2h1.33l.39,7.59h-1.5l-.04.04Z"/>
  <path class="st1" d="M24.83,119.18c-.17-.13-.26-.34-.26-.56,0-.26.09-.43.26-.56.17-.13.39-.21.6-.21s.43.09.6.21c.17.13.26.34.26.56,0,.26-.09.43-.26.56-.17.13-.39.21-.6.21s-.43-.09-.6-.21ZM24.66,126v-5.66h1.5v5.66h-1.5Z"/>
  <path class="st1" d="M27.58,126v-5.66h1.5v5.66h-1.5ZM28.86,121.97c.13-.47.34-.86.69-1.2.34-.34.77-.51,1.33-.51l-.39,1.33c-.39,0-.64.09-.86.26-.21.17-.34.39-.43.64-.09.26-.13.51-.13.77h-.39c0-.39.09-.82.21-1.29h-.04ZM30.92,120.25c.39,0,.69.09.99.3.3.21.51.51.69.9.17.39.26.86.26,1.42v3.13h-1.5v-3.13c0-.43-.09-.73-.21-.94-.13-.21-.34-.34-.64-.34l.39-1.33h.04Z"/>
  <path class="st1" d="M34.36,119.18c-.17-.13-.26-.34-.26-.56,0-.26.09-.43.26-.56.17-.13.39-.21.6-.21s.43.09.6.21c.17.13.26.34.26.56,0,.26-.09.43-.26.56-.17.13-.39.21-.6.21s-.43-.09-.6-.21ZM34.23,126v-5.66h1.5v5.66h-1.5Z"/>
  <path class="st1" d="M39.29,126.04h-.09c-.64,0-1.16-.17-1.59-.47-.43-.3-.69-.81-.77-1.42h1.24c.04.3.17.47.34.6.17.13.43.17.77.17h.09v1.12ZM39.16,121.37c-.26,0-.43.04-.6.13-.17.09-.26.17-.3.3-.04.13-.09.21,0,.34.04.13.17.21.34.26.17.04.43.09.77.13.39.04.64.13.9.17.26.04.47.17.69.3.21.13.39.34.47.6.17.39.21.77.09,1.12-.13.39-.39.69-.77.94-.39.26-.86.39-1.37.39v-1.12c.21,0,.43-.04.56-.13.17-.09.26-.21.3-.34.04-.13.04-.26,0-.39-.09-.13-.21-.26-.39-.3-.17-.04-.47-.13-.86-.17-.34-.04-.64-.09-.86-.17-.21-.04-.43-.17-.64-.3-.21-.13-.34-.34-.47-.56-.13-.39-.17-.73,0-1.12.13-.34.39-.64.77-.9.39-.21.86-.34,1.37-.34v1.16ZM39.85,121.54c-.17-.13-.39-.17-.69-.17v-1.12c.39,0,.73.09,1.03.21.34.13.6.34.81.6.21.26.34.6.39.94h-1.24c-.04-.21-.17-.39-.34-.47h.04Z"/>
  <path class="st1" d="M45.94,121.54h-3.73v-1.12h3.73v1.12ZM45.94,126h-.86c-.6,0-1.07-.13-1.42-.43-.34-.3-.51-.73-.51-1.33v-5.83h1.5v6.13s.04.09.09.13h1.16v1.33h.04Z"/>
  <path class="st1" d="M47.01,126v-5.66h1.5v5.66h-1.5ZM48.94,120.94c.43-.47,1.03-.69,1.72-.69v1.42c-.73,0-1.24.13-1.59.39-.34.26-.51.64-.56,1.12h-.3c.04-1.03.3-1.76.73-2.23Z"/>
  <path class="st1" d="M51.09,120.34h1.63l2.36,5.45-1.12.86-2.87-6.26v-.04ZM57.65,120.34l-3.26,8.06h-1.59l3.26-8.06h1.59Z"/>
  <path class="st1" d="M65.89,124.63c-.26.43-.6.77-1.07,1.03-.43.26-.94.39-1.46.39s-1.03-.13-1.5-.39c-.47-.26-.82-.6-1.07-1.03-.26-.43-.39-.94-.39-1.46s.13-1.03.39-1.46c.26-.43.6-.77,1.07-1.03.47-.26.94-.39,1.5-.39s1.03.13,1.46.39c.43.26.81.6,1.07,1.03.26.43.39.94.39,1.46s-.13,1.03-.39,1.46ZM64.56,122.35c-.13-.26-.3-.43-.51-.56-.21-.13-.43-.21-.69-.21s-.47.09-.69.21c-.21.13-.39.3-.51.56-.13.26-.17.51-.17.81s.04.56.17.81c.13.26.3.43.51.56.21.13.47.21.69.21s.47-.09.69-.21c.21-.13.39-.3.51-.56.13-.26.21-.51.21-.81s-.09-.56-.21-.81Z"/>
  <path class="st1" d="M70.39,121.54h-3.69v-1.12h3.69v1.12ZM67.56,126v-5.83c0-.6.21-1.07.6-1.46.39-.34.9-.56,1.59-.56v1.2c-.21,0-.39.04-.47.17-.09.13-.17.3-.17.6v5.83h-1.5l-.04.04ZM69.75,118.19c.26,0,.47,0,.64.09v1.2h-.09c-.17,0-.39-.04-.56-.04v-1.24Z"/>
  <path class="st1" d="M75.28,119.61h.13l-.34,6.43h-1.5s.39-7.64.39-7.64h1.33v1.2ZM80.73,119.61h-.17l-1.93,6.39h-1.5l-1.93-6.39h-.13v-1.2h1.07l1.93,6.39h-.34l1.93-6.39h1.07v1.2ZM80.77,126.04l-.34-6.43h.17v-1.2h1.33l.39,7.59h-1.5l-.04.04Z"/>
  <path class="st1" d="M85.58,126.04c-.39,0-.69-.09-.99-.3-.3-.21-.51-.51-.69-.9-.17-.39-.26-.86-.26-1.42v-3.13h1.5v3.13c0,.43.09.73.21.94.13.21.34.34.64.34l-.39,1.33h-.04ZM87.63,124.33c-.13.47-.34.86-.69,1.2-.34.34-.77.51-1.33.51l.39-1.33c.39,0,.64-.09.86-.26.21-.17.34-.39.43-.64.09-.26.13-.51.13-.77h.39c0,.39-.09.81-.21,1.29h.04ZM88.92,120.34v5.66h-1.5v-5.66h1.5Z"/>
  <path class="st1" d="M90.25,126v-5.66h1.5v5.66h-1.5ZM91.54,121.97c.13-.47.34-.86.69-1.2.34-.34.77-.51,1.33-.51l-.39,1.33c-.39,0-.64.09-.86.26-.21.17-.34.39-.43.64-.09.26-.13.51-.13.77h-.39c0-.39.09-.82.21-1.29h-.04ZM93.55,120.25c.39,0,.69.09.99.3.3.21.51.51.69.9.17.39.26.86.26,1.42v3.13h-1.5v-3.13c0-.43-.09-.73-.21-.94-.13-.21-.34-.34-.64-.34l.39-1.33h.04Z"/>
  <path class="st1" d="M97.03,119.18c-.17-.13-.26-.34-.26-.56,0-.26.09-.43.26-.56.17-.13.39-.21.6-.21s.43.09.6.21c.17.13.26.34.26.56,0,.26-.09.43-.26.56-.17.13-.39.21-.6.21s-.43-.09-.6-.21ZM96.9,126v-5.66h1.5v5.66h-1.5Z"/>
  <path class="st1" d="M104.36,125.06c-.26.34-.56.6-.94.73-.39.17-.73.26-1.12.26h-.13c-.51,0-.99-.13-1.37-.34-.39-.21-.69-.51-.9-.86-.26-.47-.43-.99-.47-1.54,0-.56.04-1.07.26-1.54.17-.43.47-.81.9-1.12.43-.3.94-.43,1.59-.43h.13c.39,0,.73.09,1.12.26.39.17.69.43.94.73.26.34.43.73.47,1.2h-1.54c-.04-.3-.17-.51-.39-.69-.21-.13-.39-.21-.6-.21h-.13c-.3,0-.51.04-.69.17-.17.13-.3.3-.39.56-.09.26-.13.6-.13.99s.09.69.21.9c.13.21.26.34.39.43.13.09.34.13.56.13h.13c.21,0,.43-.09.6-.21.21-.13.34-.39.39-.69h1.54c-.04.47-.21.86-.47,1.2l.04.09Z"/>
  <path class="st1" d="M105.99,119.18c-.17-.13-.26-.34-.26-.56,0-.26.09-.43.26-.56.17-.13.39-.21.6-.21s.43.09.6.21c.17.13.26.34.26.56,0,.26-.09.43-.26.56-.17.13-.39.21-.6.21s-.43-.09-.6-.21ZM105.86,126v-5.66h1.5v5.66h-1.5Z"/>
  <path class="st1" d="M108.78,120.34h1.5v8.02h-1.5v-8.02ZM111.53,124.84l.3,1.2c-.64,0-1.12-.21-1.46-.69-.3-.47-.51-1.12-.56-1.97l.47-.09c0,.47.13.86.34,1.12.21.26.51.43.94.43h-.04ZM111.87,120.25l-.3,1.2c-.43,0-.73.13-.94.34-.21.21-.34.56-.34.94l-.43-.09c.04-.77.26-1.37.6-1.8.34-.43.82-.64,1.46-.64l-.04.04ZM111.91,120.25c.43,0,.82.13,1.16.34.34.21.64.56.86.99.21.43.34.94.34,1.5s-.09,1.12-.3,1.54c-.21.43-.47.81-.86,1.03-.39.26-.77.39-1.24.39l-.3-1.2c.39,0,.69-.17.9-.47.21-.3.3-.73.3-1.24s-.09-.9-.3-1.2c-.21-.3-.47-.43-.86-.43l.3-1.2v-.04Z"/>
  <path class="st1" d="M116.33,125.7c-.34-.21-.64-.56-.86-.99-.21-.43-.34-.94-.34-1.5s.09-1.12.3-1.54c.21-.43.47-.81.86-1.03.39-.26.77-.39,1.24-.39l.3,1.2c-.39,0-.69.17-.9.47-.21.3-.3.73-.3,1.24s.09.9.3,1.2c.21.3.47.43.86.43l-.3,1.2c-.43,0-.82-.13-1.16-.34v.04ZM117.83,124.84c.43,0,.73-.13.94-.34.21-.21.34-.56.34-.94l.43.09c-.04.77-.26,1.37-.6,1.8-.34.43-.81.64-1.46.64l.3-1.2.04-.04ZM117.58,120.25c.64,0,1.12.21,1.46.69.3.47.51,1.12.56,1.97l-.47.09c0-.47-.13-.86-.34-1.12s-.51-.43-.94-.43l-.3-1.2h.04ZM119.12,126v-5.66h1.5v5.66h-1.5Z"/>
  <path class="st1" d="M122.38,125.53c-.3-.34-.47-.77-.47-1.37v-6.13h1.5v6.52c0,.09.04.13.13.13h.43v1.33c-.77,0-1.33-.17-1.63-.47h.04Z"/>
  <path class="st1" d="M125.17,119.18c-.17-.13-.26-.34-.26-.56,0-.26.09-.43.26-.56.17-.13.39-.21.6-.21s.43.09.6.21c.17.13.26.34.26.56,0,.26-.09.43-.26.56-.17.13-.39.21-.6.21s-.43-.09-.6-.21ZM125,126v-5.66h1.5v5.66h-1.5Z"/>
  <path class="st1" d="M131.17,121.54h-3.73v-1.12h3.73v1.12ZM131.17,126h-.86c-.6,0-1.07-.13-1.42-.43-.34-.3-.51-.73-.51-1.33v-5.83h1.5v6.13s.04.09.09.13h1.16v1.33h.04Z"/>
  <path class="st1" d="M132.42,119.18c-.17-.13-.26-.34-.26-.56,0-.26.09-.43.26-.56.17-.13.39-.21.6-.21s.43.09.6.21c.17.13.26.34.26.56,0,.26-.09.43-.26.56-.17.13-.39.21-.6.21s-.43-.09-.6-.21ZM132.29,126v-5.66h1.5v5.66h-1.5Z"/>
  <path class="st1" d="M137.74,126.04c-.56,0-1.03-.13-1.46-.34-.43-.21-.77-.56-.99-.99-.26-.43-.34-.94-.34-1.5s.09-.99.3-1.46c.21-.47.51-.81.94-1.12.43-.3.94-.43,1.59-.43s1.16.13,1.59.43c.43.3.69.64.86,1.07.17.43.26.9.26,1.42v.39h-1.42v-.39c0-.56-.09-1.03-.3-1.33-.21-.3-.51-.47-.94-.47s-.56.09-.77.26c-.21.17-.39.39-.47.64-.09.3-.17.6-.17.94s.04.69.17.94c.13.26.26.43.47.56.21.13.47.17.77.17v1.12l-.09.09ZM139.41,123.6h-3.77v-.81h3.77v.81ZM139.03,125.79c-.39.17-.82.3-1.2.3h-.13v-1.12h.13c.26,0,.47-.04.73-.17.26-.13.43-.26.56-.39l.86.73c-.21.26-.56.51-.94.69v-.04Z"/>
  <path class="st1" d="M143.49,126.04h-.09c-.64,0-1.16-.17-1.59-.47-.43-.3-.69-.81-.77-1.42h1.24c.04.3.17.47.34.6s.43.17.77.17h.09v1.12ZM143.4,121.37c-.26,0-.43.04-.6.13-.17.09-.26.17-.3.3-.04.13-.09.21,0,.34.04.13.17.21.34.26.17.04.43.09.77.13.39.04.64.13.9.17.26.04.47.17.69.3.21.13.39.34.47.6.17.39.21.77.09,1.12-.13.39-.39.69-.77.94-.39.26-.86.39-1.37.39v-1.12c.21,0,.43-.04.56-.13.17-.09.26-.21.3-.34.04-.13.04-.26,0-.39-.09-.13-.21-.26-.39-.3-.17-.04-.47-.13-.86-.17-.34-.04-.64-.09-.86-.17-.21-.04-.43-.17-.64-.3-.21-.13-.34-.34-.47-.56-.13-.39-.17-.73,0-1.12.13-.34.39-.64.77-.9.39-.21.86-.34,1.37-.34v1.16ZM144.09,121.54c-.17-.13-.39-.17-.69-.17v-1.12c.39,0,.73.09,1.03.21.34.13.6.34.82.6s.34.6.39.94h-1.24c-.04-.21-.17-.39-.34-.47h.04Z"/>
  <path class="st1" d="M171.5,126v-7.59h1.5v7.59h-1.5ZM177.12,122.65h-4.85v-1.33h4.85v1.33ZM176.34,126v-7.59h1.5v7.59h-1.5Z"/>
  <path class="st1" d="M184.41,124.63c-.26.43-.6.77-1.07,1.03-.43.26-.94.39-1.46.39s-1.03-.13-1.5-.39c-.43-.26-.82-.6-1.07-1.03-.26-.43-.39-.94-.39-1.46s.13-1.03.39-1.46c.26-.43.6-.77,1.07-1.03.43-.26.94-.39,1.5-.39s1.03.13,1.46.39c.43.26.81.6,1.07,1.03.26.43.39.94.39,1.46s-.13,1.03-.39,1.46ZM183.08,122.35c-.13-.26-.3-.43-.51-.56-.21-.13-.43-.21-.69-.21s-.47.09-.69.21c-.21.13-.39.3-.51.56-.13.26-.21.51-.21.81s.09.56.21.81c.13.26.3.43.51.56s.47.21.69.21.47-.09.69-.21c.21-.13.39-.3.51-.56.13-.26.21-.51.21-.81s-.09-.56-.21-.81Z"/>
  <path class="st1" d="M187.8,126.04c-.39,0-.69-.09-.99-.3-.3-.21-.51-.51-.69-.9-.17-.39-.26-.86-.26-1.42v-3.13h1.5v3.13c0,.43.09.73.21.94.13.21.34.34.64.34l-.39,1.33h-.04ZM189.86,124.33c-.13.47-.34.86-.69,1.2-.34.34-.77.51-1.33.51l.39-1.33c.39,0,.64-.09.86-.26s.34-.39.43-.64c.09-.26.13-.51.13-.77h.39c0,.39-.09.81-.21,1.29h.04ZM191.14,120.34v5.66h-1.5v-5.66h1.5Z"/>
  <path class="st1" d="M194.66,126.04h-.09c-.64,0-1.16-.17-1.59-.47-.43-.3-.69-.81-.77-1.42h1.24c.04.3.17.47.34.6.17.13.43.17.77.17h.09v1.12ZM194.53,121.37c-.26,0-.43.04-.6.13-.17.09-.26.17-.3.3-.04.13-.09.21,0,.34.04.13.17.21.34.26.17.04.43.09.77.13.39.04.64.13.9.17.26.04.47.17.69.3.21.13.39.34.47.6.17.39.21.77.09,1.12-.13.39-.39.69-.77.94-.39.26-.86.39-1.37.39v-1.12c.21,0,.43-.04.56-.13.17-.09.26-.21.3-.34s.04-.26,0-.39c-.09-.13-.21-.26-.39-.3-.17-.04-.47-.13-.86-.17-.34-.04-.64-.09-.86-.17-.21-.09-.43-.17-.64-.3-.21-.13-.34-.34-.47-.56-.13-.39-.17-.73,0-1.12.13-.34.39-.64.77-.9.39-.21.86-.34,1.37-.34v1.16ZM195.22,121.54c-.17-.13-.39-.17-.69-.17v-1.12c.39,0,.73.09,1.03.21.34.13.6.34.81.6s.34.6.39.94h-1.24c-.04-.21-.17-.39-.34-.47h.04Z"/>
  <path class="st1" d="M198.22,119.18c-.17-.13-.26-.34-.26-.56,0-.26.09-.43.26-.56.17-.13.39-.21.6-.21s.43.09.6.21c.17.13.26.34.26.56,0,.26-.09.43-.26.56-.17.13-.39.21-.6.21s-.43-.09-.6-.21ZM198.09,126v-5.66h1.5v5.66h-1.5Z"/>
  <path class="st1" d="M201.01,126v-5.66h1.5v5.66h-1.5ZM202.3,121.97c.13-.47.34-.86.69-1.2.34-.34.77-.51,1.33-.51l-.39,1.33c-.39,0-.64.09-.86.26-.21.17-.34.39-.43.64-.09.26-.13.51-.13.77h-.39c0-.39.09-.82.21-1.29h-.04ZM204.31,120.25c.39,0,.69.09.99.3.3.21.51.51.69.9.17.39.26.86.26,1.42v3.13h-1.5v-3.13c0-.43-.09-.73-.21-.94-.13-.21-.34-.34-.64-.34l.39-1.33h.04Z"/>
  <path class="st1" d="M208.6,125.7c-.34-.21-.64-.56-.86-.99-.21-.43-.34-.94-.34-1.5s.09-1.12.3-1.54c.21-.43.47-.81.86-1.03.39-.21.77-.39,1.24-.39l.3,1.2c-.39,0-.69.17-.9.47-.21.3-.3.73-.3,1.24s.09.9.3,1.2c.21.3.47.43.86.43l-.3,1.2c-.43,0-.81-.13-1.16-.34v.04ZM212.89,120.34v5.49c0,.43-.09.82-.3,1.16-.21.34-.51.6-.9.77-.39.17-.86.26-1.37.26h-2.14v-1.2h2.14c.39,0,.64-.09.81-.21.17-.13.26-.39.26-.73v-5.49h1.5v-.04ZM210.06,124.84c.43,0,.73-.13.94-.34.21-.21.34-.56.34-.94l.43.09c-.04.77-.26,1.37-.6,1.8-.34.43-.82.64-1.46.64l.3-1.2.04-.04ZM209.85,120.25c.64,0,1.12.21,1.46.69.3.47.51,1.12.56,1.97l-.47.09c0-.47-.13-.86-.34-1.12-.21-.26-.51-.43-.94-.43l-.3-1.2h.04Z"/>
  <path class="st1" d="M155.84,126v-5.66h1.5v5.66h-1.5ZM157.13,121.97c.13-.47.34-.86.69-1.2.34-.34.77-.51,1.33-.51l-.39,1.33c-.39,0-.64.09-.86.26s-.34.39-.43.64c-.09.26-.13.51-.13.77h-.39c0-.39.09-.82.21-1.29h-.04ZM159.19,120.25c.39,0,.69.09.99.3.3.21.51.51.69.9.17.39.26.86.26,1.42v3.13h-1.5v-3.13c0-.43-.09-.73-.21-.94-.13-.21-.34-.34-.64-.34l.39-1.33h.04Z"/>
  <path class="st1" d="M167.77,126h-1.5v-8.02h1.5v8.02ZM165.02,121.5l-.3-1.2c.64,0,1.12.21,1.46.69.3.47.51,1.12.56,1.97l-.47.09c0-.47-.13-.86-.34-1.12-.21-.26-.51-.43-.94-.43h.04ZM164.68,126.04l.3-1.2c.43,0,.73-.13.94-.34s.34-.56.34-.94l.43.09c-.04.77-.26,1.37-.6,1.8-.34.43-.81.64-1.46.64l.04-.04ZM164.63,126.04c-.43,0-.82-.13-1.16-.34-.34-.21-.64-.56-.86-.99-.21-.43-.34-.94-.34-1.5s.09-1.12.3-1.54c.21-.43.47-.81.86-1.03.39-.26.77-.39,1.24-.39l.3,1.2c-.39,0-.69.17-.9.47-.21.3-.3.73-.3,1.24s.09.9.3,1.2c.21.3.47.43.86.43l-.3,1.2v.04Z"/>
  <path class="st1" d="M150.31,125.7c-.34-.21-.64-.56-.86-.99-.21-.43-.34-.94-.34-1.5s.09-1.12.3-1.54c.21-.43.47-.81.86-1.03.39-.26.77-.39,1.24-.39l.3,1.2c-.39,0-.69.17-.9.47-.21.3-.3.73-.3,1.24s.09.9.3,1.2c.21.3.47.43.86.43l-.3,1.2c-.43,0-.81-.13-1.16-.34v.04ZM151.77,124.84c.43,0,.73-.13.94-.34.21-.21.34-.56.34-.94l.43.09c-.04.77-.26,1.37-.6,1.8-.34.43-.81.64-1.46.64l.3-1.2.04-.04ZM151.55,120.25c.64,0,1.12.21,1.46.69.3.47.51,1.12.56,1.97l-.47.09c0-.47-.13-.86-.34-1.12-.21-.26-.51-.43-.94-.43l-.3-1.2h.04ZM153.09,126v-5.66h1.5v5.66h-1.5Z"/>
</svg>