<?xml version="1.0" encoding="utf-8"?>
<!-- Generator: Adobe Illustrator 26.0.1, SVG Export Plug-In . SVG Version: 6.00 Build 0)  -->
<svg version="1.1" id="Layer_1" xmlns="http://www.w3.org/2000/svg" xmlns:xlink="http://www.w3.org/1999/xlink" x="0px" y="0px"
	 viewBox="0 0 231.1 65.8" style="enable-background:new 0 0 231.1 65.8;" xml:space="preserve">
<style type="text/css">
	.st0{fill:#6B6A6A;}
	.st1{fill:#404040;}
	.st2{fill:none;}
	.st3{fill:#9E9B9C;}
	.st4{fill:url(#SVGID_1_);}
	.st5{fill:url(#SVGID_00000084513764790248481280000012277212931369941632_);}
	.st6{fill:url(#SVGID_00000077313336393780720700000003382320208836232866_);}
	.st7{fill:url(#SVGID_00000133497644000546398340000000687170465335612596_);}
	.st8{fill:url(#SVGID_00000078723620384118218500000011647535528687658423_);}
	.st9{fill:url(#SVGID_00000057146921048679716050000002307008204733810593_);}
	.st10{fill:url(#SVGID_00000047759128904094896380000000091687181392385469_);}
</style>
<g id="Layer_1_00000158010294321888342020000015157657645832448146_">
</g>
<g id="Layer_2_00000067925379551708198100000001388276264718441624_">
	<g>
		<polygon class="st0" points="3.5,11.6 4.5,10.5 5.6,11.6 5.8,11.6 7,10.3 5.7,9 5.5,9 4.5,10.1 3.4,9 3.3,9 2,10.3 3.3,11.6 		"/>
		<path class="st0" d="M2.7,21.1c0.7,0,1.3-0.2,1.9-0.5c0.1-0.4,0.2-0.8,0.3-1.2l0,0l0,0c0.3,2.2,1.1,3.1,2.9,3.1h34.7
			c2.3,0,4.5-0.4,6.7-1l1.6-0.5l0.5-2l-0.1-0.1l-1.6,0.4c-2.5,0.6-5.1-0.2-5.1-1.7c0-1.2,1.3-1.8,2.5-1.8c1.1,0,2.2,0.3,3.1,1
			l0.4-0.5c-0.8-1.7-1.8-2.6-3.1-2.6c-1.9,0-3.6,2.1-3.6,4.3c0,0.9,0.4,1.8,1.1,2.4c-0.7,0.1-1.4,0.1-2.3,0.1H8.2
			c-1.6,0-2-0.6-2.2-2.4l-0.6-5.3H4.9l-0.7,1.7l-1.6,1.1C0.7,16.8,0,17.7,0,18.9S1.1,21.1,2.7,21.1z M2.1,17l2.2-1.1l0.4,2.8
			C4,19,3.3,19.1,2.6,19.1c-1.1,0-1.9-0.3-1.9-0.8S1.2,17.4,2.1,17z"/>
		<path class="st0" d="M57.3,22.5h14.9c0.7,0,1.4-0.3,2-0.7c0.1-0.4,0.2-0.7,0.3-1.1l0,0c0.3,1.1,1.3,1.8,2.9,1.8h4.3
			c0.9,0,1.7-0.4,2.2-1c1.4,0.9,3.1,1.4,4.8,1.4c1.9,0,3.8-0.3,5.6-1c0.9,0.5,2,0.7,3,0.7l0,0c1.2,0,2.4-0.4,3.4-1
			c0.4-0.9,0.5-1.8,0.5-2.8v-7.6l1-0.8v-0.1l-1-1.2V7.6H101c-1.3,0.9-1.6,1.9-0.9,2.9l0.3,9.5c-0.8,0.3-1.6,0.4-2.4,0.4
			c-0.6,0-1.2-0.1-1.8-0.1c0.3-0.7,0.4-1.4,0.4-2.1c0-1.8-1.3-3.2-3.1-3.3h-0.1c-2.1,0-4.1,1.6-6.8,5.5c-0.5-0.1-1-0.3-1.4-0.5
			l1-1.4l-0.5-0.4l-0.7,1c-0.7,1-1.9,1.6-3.1,1.4H78c-1.7,0-2.3-0.4-2.3-1.6v-1.8H75L74.5,20c-0.7,0.4-1.5,0.5-2.3,0.5H57.7
			c-1.7,0-2.3-0.5-2.3-1.8V7.6h-0.6l-1,1.9l0.3,9.2C54.1,21.5,55,22.5,57.3,22.5z M92.5,17c1.5,0.1,2.8,1.1,3.2,2.5
			c-2.1,0.9-4.4,1.3-6.8,1.3c-0.5,0-1.1-0.1-1.6-0.2C89.4,18.1,90.8,17,92.5,17z"/>
		<polygon class="st0" points="75.4,15.5 76.7,14.2 75.4,13 75.2,13 73.9,14.2 75.2,15.5 		"/>
		<polygon class="st0" points="106,22.5 106.6,20.2 106.6,7.6 105.9,7.6 105,9.5 105.3,22.5 		"/>
		<polygon class="st0" points="114.8,13.4 115.9,12.3 116.9,13.4 117.1,13.4 118.4,12.1 117.1,10.8 116.9,10.8 115.9,11.8 
			114.8,10.8 114.6,10.8 113.4,12.1 114.7,13.4 		"/>
		<path class="st0" d="M115.8,22.8c2,0,3.2-1.5,3.2-3.7c0-2-0.9-3.2-4.5-4.7l-0.1,0.1v2c-0.9,1-1.5,2.3-1.6,3.6
			c-0.1,1.5,1,2.7,2.5,2.8C115.5,22.8,115.6,22.8,115.8,22.8z M115.2,17.1c2.2,1,3,1.8,3,2.5s-0.8,1.2-2.3,1.2s-2.3-0.5-2.3-1.3
			C113.8,18.5,114.4,17.6,115.2,17.1z"/>
		<path class="st0" d="M118.9,25.4V26l3.8,1.2c1.7-2.1,2.7-4.6,2.8-7.3c-0.1-1.6-0.6-3.1-1.4-4.4h-0.6l-0.7,1.7
			c1.4,1.8,1.9,2.6,1.9,3.7C124.7,23,122.6,24.5,118.9,25.4z"/>
		<polygon class="st0" points="129,22.5 129.6,20.2 129.6,7.6 129,7.6 128,9.5 128.4,22.5 		"/>
		<path class="st0" d="M136.1,20c-0.1-1.6-0.6-3.1-1.4-4.4h-0.6l-0.7,1.7c1.4,1.8,1.9,2.6,1.9,3.7c0,1.8-2.1,3.4-5.8,4.3v0.6
			l3.8,1.2C135,25.2,135.9,22.7,136.1,20z"/>
		<polygon class="st0" points="134.2,14.1 135.4,12.8 134.1,11.5 134,11.5 132.7,12.8 134,14.1 		"/>
		<path class="st0" d="M144.1,19.8c0-2.7-1.3-4.9-3-4.9c-1.5,0-3,2.1-3,4.2c-0.1,1.3,0.8,2.5,2.2,2.7c0.2,0,0.3,0,0.5,0
			c0.6,0,1.3-0.1,1.9-0.4l0.6-1.5c0.1,0.3,0.1,0.7,0.1,1c0,2.3-2.4,3.9-6.7,4.6v0.6l3.8,1.2C142.6,25.4,143.9,22.7,144.1,19.8z
			 M141,19.7c-1.3,0-2.1-0.3-2.1-1c0-0.9,0.7-1.7,1.7-1.7s2.1,1.1,2.5,2.4C142.4,19.6,141.7,19.7,141,19.7z"/>
		<polygon class="st0" points="5.5,31.8 4.5,32.9 3.4,31.8 3.3,31.8 2,33.1 3.3,34.4 3.5,34.4 4.5,33.3 5.6,34.4 5.8,34.4 7,33.1 
			5.7,31.8 		"/>
		<polygon class="st0" points="29.3,47 29.1,47 28.1,48.1 27,47 26.9,47 25.6,48.3 26.9,49.6 27.1,49.6 28.1,48.5 29.2,49.6 
			29.4,49.6 30.6,48.3 		"/>
		<path class="st0" d="M38.9,45.2h4c1.3,0,2.5-0.3,3.7-0.9c0.4-0.9,0.5-1.9,0.5-2.8c0-1.1-0.4-2.2-1-3.1h-0.6l-0.7,1.7
			c0.7,0.7,1.2,1.5,1.5,2.5c-1.1,0.4-2.2,0.6-3.4,0.6H31.1c-1.7,0-2.3-0.4-2.3-1.6v-1.8h-0.6l-0.5,2.9c-0.7,0.4-1.5,0.5-2.3,0.5H8.2
			c-1.6,0-2-0.6-2.2-2.4l-0.6-5.3H4.9l-0.7,1.7l-1.6,1.1C0.7,39.6,0,40.4,0,41.7s1.1,2.2,2.7,2.2c0.7,0,1.3-0.2,1.9-0.5
			c0.1-0.4,0.2-0.8,0.3-1.2l0,0l0,0c0.3,2.2,1.1,3.1,2.9,3.1h17.6c0.7,0,1.5-0.3,2-0.7c0.1-0.4,0.2-0.7,0.3-1.1l0,0
			c0.3,1.1,1.3,1.8,2.9,1.8L38.9,45.2L38.9,45.2z M2.7,41.8c-1.1,0-1.9-0.3-1.9-0.8s0.4-0.9,1.3-1.3l2.2-1.1l0.4,2.8
			C4.1,41.7,3.4,41.8,2.7,41.8z"/>
		<polygon class="st0" points="44.2,35.6 45.5,36.9 45.7,36.9 47,35.6 45.7,34.3 45.5,34.3 		"/>
		<path class="st0" d="M88.4,30.3h-0.6c-1.3,0.9-1.6,1.9-0.9,2.9l0.3,9.5c-0.8,0.3-1.6,0.4-2.4,0.4c-0.9,0.1-1.8-0.4-2.1-1.3
			l-0.4-0.9c-0.8-1.5-1.3-2-2.2-2c-1.3,0-2.6,1.6-3,3.6c-0.6,0.3-1.3,0.5-1.9,0.5c-1.2,0.1-2.3-0.3-3.2-1c1-0.9,1.5-1.5,1.5-2.2
			c0-1.2-0.9-1.8-2.4-1.8c-0.9,0-1.8,0.3-2.5,0.7l-0.6,2l0.2,0.5c0.8,0,1.6,0.3,2,1l0.1,0.1c-1.1,0.6-2.2,0.9-3.4,0.9h-8
			c-1.5,0-2.3-0.7-3-3L54.4,36h-0.5l-0.7,1.7l1.4,3.5c0.2,0.6,0.5,1.1,0.7,1.5c-0.8,0.5-1.8,0.8-2.8,0.8c-1.8,0-2.3-0.3-2.4-1.6
			v-0.3h-0.6c-0.2,0.5-0.3,1.1-0.3,1.7c0,1.5,0.9,2.2,2.8,2.2c1.1,0,2.2-0.3,3.1-1c0.1-0.4,0.2-0.8,0.3-1.2h0.1c0.8,1.5,1.7,2,2.9,2
			h8.3c1.6-0.2,3.1-0.9,4.2-2c0.9,1.3,2.3,2,3.9,2l0,0c0.9,0,1.7-0.3,2.4-0.9c1.4,0.7,3,1.2,4.5,1.4c0.2-0.5,0.4-1,0.5-1.5
			c0.5,0.7,1.4,1,2.2,1l0,0c1.2,0,2.4-0.3,3.4-1c0.4-0.9,0.5-1.8,0.5-2.8v-7.6l1-0.8l0,0l-1-1.2L88.4,30.3z M77.9,42.6
			c0.1-0.8,0.8-1.4,1.6-1.5c0.6,0,1,0.3,1.6,1.3l0.5,0.9c0.1,0.2,0.2,0.3,0.3,0.5C80.5,43.5,79.2,43.1,77.9,42.6z"/>
		<polygon class="st0" points="92.8,45.2 93.4,43 93.4,30.3 92.8,30.3 91.8,32.3 92.2,45.2 		"/>
		<path class="st0" d="M102.6,45.6c2,0,3.2-1.5,3.2-3.7c0-2-0.9-3.2-4.5-4.7l-0.1,0.1v2c-0.9,1-1.5,2.2-1.6,3.6
			c-0.1,1.4,1,2.7,2.5,2.8C102.3,45.6,102.4,45.6,102.6,45.6z M102,39.8c2.2,1,3,1.8,3,2.5s-0.9,1.2-2.3,1.2s-2.3-0.5-2.3-1.3
			C100.6,41.3,101.2,40.4,102,39.8z"/>
		<polygon class="st0" points="101.5,33.5 100.2,34.8 101.5,36.1 101.7,36.1 102.7,35 103.8,36.1 104,36.1 105.2,34.8 103.9,33.5 
			103.8,33.5 102.7,34.6 101.6,33.5 		"/>
		<path class="st0" d="M110.8,37.7c-1.5,0-3,2.1-3,4.2c-0.1,1.3,0.9,2.5,2.2,2.6c0.1,0,0.3,0,0.5,0c0.6,0,1.3-0.1,1.9-0.4l0.6-1.5
			c0.1,0.3,0.1,0.7,0.1,1c0,2.3-2.4,3.9-6.7,4.6v0.6l3.8,1.2c2.2-1.9,3.5-4.6,3.7-7.5C113.8,39.9,112.5,37.7,110.8,37.7z
			 M110.7,42.4c-1.3,0-2.1-0.3-2.1-1c0-0.9,0.7-1.7,1.7-1.7s2.1,1.1,2.5,2.4C112.1,42.4,111.4,42.5,110.7,42.4z"/>
		<polygon class="st0" points="123.8,33.7 125,32.5 123.7,31.3 123.6,31.3 122.4,32.5 123.6,33.7 		"/>
		<polygon class="st0" points="124.8,33.6 123.7,34.6 122.6,33.6 122.5,33.6 121.2,34.9 122.5,36.2 122.7,36.2 123.7,35.1 
			124.8,36.2 125,36.2 126.2,34.9 124.9,33.6 		"/>
		<path class="st0" d="M126.6,45.2L126.6,45.2c1.2,0,2.4-0.3,3.4-1c0.4-0.9,0.5-1.8,0.5-2.8v-7.6l1-0.8l0,0l-1-1.2v-1.5H130
			c-1.3,0.9-1.6,1.9-0.9,2.9l0.3,9.5c-0.8,0.3-1.6,0.4-2.4,0.4c-1.5,0-2.1-0.6-2.4-2.4l-0.5-3.1h-0.5l-0.3,0.7
			c-0.6,1.7-1.3,2.1-2.1,2.1c-0.9-0.1-1.7-0.7-2.2-1.5h-0.6l-0.7,1.8c1.3,1.2,1.9,2.2,1.9,3.1c0,1.8-2.1,3.3-5.8,4.2v0.6l3.8,1.3
			c1.7-2.1,2.7-4.6,2.8-7.3v-0.2c0.2,0,0.4,0.1,0.6,0.1c1.1,0,1.9-0.7,2.3-2.3l0.2,1.3C124,44.4,124.7,45.3,126.6,45.2L126.6,45.2
			L126.6,45.2z"/>
		<polygon class="st0" points="135.6,43 135.6,30.3 135,30.3 134,32.3 134.4,45.2 135,45.2 		"/>
		<path class="st0" d="M136.9,48.2v0.6l3.8,1.2c2.2-1.9,3.5-4.6,3.7-7.5c0-2.7-1.3-4.9-3-4.9c-1.5,0-3,2.1-3,4.2
			c-0.1,1.3,0.9,2.5,2.2,2.6c0.1,0,0.3,0,0.4,0c0.6,0,1.3-0.1,1.9-0.4l0.6-1.5c0.1,0.3,0.1,0.7,0.1,1
			C143.6,45.8,141.1,47.4,136.9,48.2z M141.2,42.4c-1.3,0-2.1-0.3-2.1-1c0-0.9,0.7-1.7,1.7-1.7s2.1,1.1,2.5,2.4
			C142.6,42.4,141.9,42.5,141.2,42.4z"/>
		<polygon class="st0" points="5.8,55 6.4,54.9 6.4,54.6 4.7,54.6 4.7,54.9 3.3,58.2 1.7,54.6 0.1,54.6 0.1,54.9 0.7,55 0.7,59.2 
			0,59.4 0,59.7 2,59.7 2,59.4 1.1,59.1 1.1,55.3 2.8,59 3,59.4 3.3,59.4 3.4,59 5,55.2 5,59.2 4.3,59.4 4.3,59.7 6.5,59.7 
			6.5,59.4 5.8,59.2 		"/>
		<polygon class="st0" points="8.2,55.9 7,56.2 7,56.5 7.4,56.6 7.4,59.2 6.9,59.4 6.9,59.7 8.7,59.7 8.7,59.4 8.2,59.2 		"/>
		<path class="st0" d="M8.3,54.5c0-0.3-0.2-0.5-0.5-0.5s-0.5,0.2-0.5,0.5c0.1,0.3,0.4,0.4,0.6,0.4C8.1,54.8,8.2,54.6,8.3,54.5
			L8.3,54.5z"/>
		<path class="st0" d="M12.7,57.2c0-1-0.3-1.3-1.1-1.3c-0.5,0.1-0.9,0.3-1.2,0.7l0,0l-0.2-0.7l0,0l-1,0.4v0.2l0.5,0.1v2.6l-0.5,0.2
			v0.3H11v-0.3l-0.5-0.1v-2.4c0.2-0.2,0.5-0.4,0.9-0.4c0.5,0,0.7,0.3,0.7,0.8v1.9l-0.4,0.1v0.3h1.7v-0.3l-0.5-0.2L12.7,57.2z"/>
		<polygon class="st0" points="14.8,55.9 13.6,56.2 13.6,56.5 14.1,56.6 14.1,59.2 13.6,59.4 13.6,59.7 15.4,59.7 15.4,59.4 
			14.8,59.2 		"/>
		<path class="st0" d="M14.9,54.5c-0.1-0.3-0.4-0.4-0.6-0.4c-0.2,0-0.3,0.2-0.4,0.4c0.1,0.3,0.4,0.4,0.6,0.4
			C14.7,54.8,14.9,54.6,14.9,54.5z"/>
		<path class="st0" d="M17.6,57.6l-0.4-0.2c-0.5-0.2-0.6-0.4-0.6-0.7s0.2-0.5,0.5-0.5l0,0c0.2,0,0.4,0.1,0.5,0.2l0.3,0.7h0.2v-1
			c-0.3-0.2-0.7-0.2-1-0.2c-0.7-0.1-1.3,0.5-1.3,1.2l0,0c0,0.5,0.2,0.8,0.8,1l0.3,0.2c0.5,0.2,0.7,0.5,0.7,0.8s-0.3,0.6-0.6,0.6l0,0
			c-0.2,0-0.5-0.1-0.6-0.2L16,58.6h-0.3l0.1,1.1c0.3,0.2,0.7,0.3,1.1,0.3c0.7,0.1,1.4-0.4,1.5-1.2C18.5,58.2,18.3,57.9,17.6,57.6z"
			/>
		<path class="st0" d="M20.7,59.2c-0.3,0-0.5,0-0.5-0.6v-2.1h1v-0.4h-1v-1h-0.3l-0.4,1L19,56.2v0.3h0.5V59c0,0.5,0.2,0.9,0.8,0.9
			c0.4,0,0.8-0.1,1.1-0.4l-0.1-0.2C21.1,59.2,20.9,59.2,20.7,59.2z"/>
		<path class="st0" d="M23.9,55.9c-0.3,0-0.5,0.2-0.8,0.6l-0.3,0.4l0,0L22.7,56l0,0l-1.1,0.4v0.2l0.5,0.1v2.6l-0.5,0.2v0.3h1.9v-0.3
			l-0.7-0.1v-2.1c0.1-0.2,0.3-0.4,0.5-0.5l0.6,0.2c0.2-0.1,0.3-0.3,0.3-0.6c0-0.2-0.1-0.4-0.3-0.4C24,55.9,23.9,55.9,23.9,55.9z"/>
		<path class="st0" d="M26.9,56.3l0.5,0.2l-1,2.6l0,0l-0.9-2.6l0.5-0.1v-0.3h-1.8v0.3l0.4,0.1l1.4,3.6l-0.4,1l0,0
			c-0.1-0.2-0.2-0.3-0.4-0.3c-0.2,0-0.4,0.2-0.4,0.4l0,0c0,0.3,0.2,0.5,0.5,0.5l0,0c0.4,0,0.6-0.3,0.9-1l1.7-4.2l0.4-0.1v-0.3H27
			v0.2H26.9z"/>
		<path class="st0" d="M31.8,55.9c-1,0-1.9,0.9-1.8,2l0,0c-0.1,1,0.7,1.8,1.6,1.9c0.1,0,0.1,0,0.2,0c1,0,1.9-0.9,1.8-2l0,0
			c0.1-0.9-0.6-1.8-1.5-1.9C32,55.9,31.9,55.9,31.8,55.9z M31.9,59.4c-0.8,0-1.1-0.9-1.1-1.7s0.3-1.4,0.9-1.4s1.1,0.6,1.1,1.7
			C32.8,58.8,32.5,59.4,31.9,59.4z"/>
		<path class="st0" d="M36.3,53.9c-1,0.1-1.7,1-1.7,2l0,0l-0.5,0.2v0.3h0.5v2.8l-0.5,0.2v0.3H36v-0.3l-0.7-0.2v-2.8h1V56h-1v-0.6
			c0-0.8,0.3-1.1,0.8-1.1c0.1,0,0.2,0,0.3,0.1l0.2,0.7c0.1,0,0.1,0,0.2,0c0.2,0,0.4-0.1,0.4-0.4c0,0,0,0,0-0.1
			C37.3,54.3,36.9,53.9,36.3,53.9z"/>
		<polygon class="st0" points="39.9,55 40.5,54.9 40.5,54.6 38.4,54.6 38.4,54.9 39.1,55 39.1,59.2 38.4,59.4 38.4,59.7 40.6,59.7 
			40.6,59.4 39.9,59.2 		"/>
		<path class="st0" d="M44.6,57.2c0-1-0.3-1.3-1.1-1.3c-0.5,0.1-0.9,0.3-1.2,0.7l0,0l-0.2-0.7l0,0l-1,0.4v0.2l0.5,0.1v2.6l-0.5,0.2
			v0.3h1.7v-0.3l-0.5-0.1v-2.4c0.2-0.2,0.5-0.4,0.9-0.4c0.5,0,0.7,0.3,0.7,0.8v1.9l-0.4,0.1v0.3h1.7v-0.3l-0.5-0.2L44.6,57.2z"/>
		<path class="st0" d="M48.9,54l-1.5,0.2v0.3l0.7,0.1v1.5C47.9,56,47.7,56,47.5,56c-1.1,0-2,1-1.9,2.1l0,0c-0.1,0.9,0.5,1.6,1.4,1.7
			h0.1c0.4,0,0.8-0.2,1.1-0.5l0.2,0.5l1.1-0.2v-0.3l-0.6-0.2L48.9,54z M48.1,59.1c-0.2,0.1-0.4,0.2-0.6,0.2c-0.9,0-1.2-0.8-1.2-1.6
			s0.5-1.3,1-1.3c0.3,0,0.6,0.2,0.8,0.5V59.1z"/>
		<path class="st0" d="M53.4,56L52,56.1v0.3l0.6,0.1v2.4c-0.2,0.2-0.5,0.3-0.8,0.3c-0.5,0-0.8-0.3-0.8-0.9V56l-1.3,0.1v0.3l0.5,0.1
			v1.9c0,0.9,0.4,1.3,1,1.3c0.5,0,1-0.3,1.3-0.6l0.2,0.6l1.2-0.1v-0.3l-0.6-0.1L53.4,56z"/>
		<path class="st0" d="M56.2,57.6l-0.3-0.2c-0.5-0.2-0.6-0.4-0.6-0.7s0.2-0.5,0.5-0.5l0,0c0.2,0,0.4,0.1,0.5,0.2l0.3,0.7h0.2v-1
			c-0.3-0.2-0.7-0.2-1-0.2c-0.7-0.1-1.3,0.5-1.4,1.2l0,0c0,0.5,0.2,0.8,0.8,1l0.3,0.2c0.5,0.2,0.7,0.5,0.7,0.8s-0.3,0.6-0.6,0.6
			c0,0,0,0-0.1,0c-0.2,0-0.5-0.1-0.6-0.2l-0.4-0.9h-0.3l0.1,1.1c0.3,0.2,0.7,0.3,1.1,0.3c0.7,0.1,1.4-0.4,1.5-1.2
			C57.1,58.2,56.8,57.9,56.2,57.6z"/>
		<path class="st0" d="M59.2,59.2c-0.3,0-0.5,0-0.5-0.6v-2.1h1v-0.4h-1v-1h-0.3L58,56l-0.5,0.2v0.3H58V59c0,0.5,0.2,0.9,0.8,0.9
			c0.4,0,0.8-0.1,1.1-0.4v-0.2C59.6,59.2,59.4,59.2,59.2,59.2z"/>
		<path class="st0" d="M62.4,55.9c-0.3,0-0.5,0.2-0.8,0.6l-0.3,0.4l0,0L61.2,56l0,0l-1.1,0.4v0.2l0.5,0.1v2.6l-0.5,0.2v0.3H62v-0.3
			l-0.7-0.1v-2.1c0.1-0.2,0.3-0.4,0.5-0.5l0.6,0.2c0.2-0.1,0.3-0.3,0.3-0.6c0-0.2-0.1-0.4-0.3-0.4C62.5,55.9,62.4,55.9,62.4,55.9z"
			/>
		<path class="st0" d="M65.4,56.3l0.5,0.2l-1,2.6l0,0L64,56.5l0.6-0.1v-0.3h-1.8v0.3l0.3,0.1l1.4,3.6l-0.4,1l0,0
			c-0.1-0.2-0.2-0.3-0.4-0.3s-0.4,0.2-0.4,0.4l0,0c0,0.3,0.2,0.5,0.5,0.5l0,0c0.4,0,0.6-0.3,0.9-1l1.7-4.2l0.3-0.1v-0.2h-1.3
			C65.4,56.2,65.4,56.3,65.4,56.3z"/>
		<path class="st0" d="M71.4,59.1v-2c0-0.8-0.3-1.2-1.2-1.2s-1.5,0.6-1.5,1c0,0.2,0.1,0.3,0.4,0.3c0.1,0,0.2,0,0.3,0v-0.8
			c0.1-0.1,0.3-0.1,0.4-0.1c0.4,0,0.7,0.3,0.7,0.9v0.4l-0.8,0.2c-0.8,0.2-1.2,0.5-1.2,1.1c0,0.5,0.4,0.9,0.9,0.9l0,0
			c0.5,0,0.7-0.2,1.1-0.6l0,0c0,0.3,0.2,0.6,0.6,0.6c0.3,0,0.5-0.1,0.8-0.2v-0.2h-0.4C71.4,59.3,71.4,59.3,71.4,59.1z M70.6,58.9
			c-0.1,0.2-0.4,0.3-0.6,0.4c-0.3,0-0.6-0.2-0.6-0.5c0,0,0,0,0-0.1c0-0.3,0.2-0.5,0.6-0.6l0.7-0.2v1H70.6z"/>
		<path class="st0" d="M75.9,57.2c0-1-0.3-1.3-1.1-1.3c-0.5,0.1-0.9,0.3-1.2,0.7l0,0l-0.2-0.7l0,0l-1,0.4v0.2l0.5,0.1v2.6l-0.5,0.2
			v0.3H74v-0.3l-0.5-0.1v-2.4c0.2-0.2,0.5-0.4,0.9-0.4c0.5,0,0.7,0.3,0.7,0.8v1.9l-0.4,0.1v0.3h1.7v-0.3l-0.5-0.2V57.2z"/>
		<path class="st0" d="M80.2,54l-1.5,0.2v0.3l0.7,0.1v1.5C79.2,56,79,56,78.8,56c-1.1,0-2,1-1.9,2.1l0,0c-0.1,0.9,0.5,1.6,1.4,1.7
			h0.1c0.4,0,0.8-0.2,1.1-0.5l0.2,0.5l1.1-0.2v-0.3l-0.6-0.2V54z M79.4,59.1c-0.2,0.1-0.4,0.2-0.6,0.2c-0.9,0-1.2-0.8-1.2-1.6
			s0.5-1.3,1-1.3c0.3,0,0.6,0.2,0.8,0.5L79.4,59.1z"/>
		<polygon class="st0" points="88.6,55 89.2,54.9 89.2,54.6 87.5,54.6 87.5,54.9 86.1,58.2 84.5,54.6 82.8,54.6 82.8,54.9 83.5,55 
			83.5,59.2 82.8,59.4 82.8,59.7 84.8,59.7 84.8,59.4 83.9,59.1 83.9,55.3 85.6,59 85.7,59.4 86,59.4 86.2,59 87.8,55.2 87.8,59.2 
			87.1,59.4 87.1,59.7 89.2,59.7 89.2,59.4 88.6,59.2 		"/>
		<path class="st0" d="M90,54.5c0,0.3,0.2,0.5,0.5,0.5l0,0c0.3,0,0.5-0.2,0.5-0.5S90.8,54,90.5,54C90.2,53.9,90,54.2,90,54.5z"/>
		<polygon class="st0" points="90.9,55.9 89.8,56.2 89.8,56.5 90.2,56.6 90.2,59.2 89.7,59.4 89.7,59.7 91.5,59.7 91.5,59.4 
			90.9,59.2 		"/>
		<path class="st0" d="M95.4,57.2c0-1-0.3-1.3-1.1-1.3c-0.5,0.1-0.9,0.3-1.2,0.7l0,0L93,55.9l0,0l-1,0.4v0.2l0.5,0.1v2.6L92,59.4
			v0.3h1.7v-0.3l-0.5-0.1v-2.4c0.2-0.2,0.5-0.4,0.9-0.4c0.5,0,0.7,0.3,0.7,0.8v1.9l-0.4,0.1v0.3H96v-0.3l-0.5-0.2L95.4,57.2z"/>
		<path class="st0" d="M98.4,59.2c-0.8,0-1.3-0.6-1.3-1.5h2.5c0-1-0.5-1.7-1.4-1.7c-1,0-1.9,0.9-1.8,2v0.1c-0.1,0.9,0.6,1.7,1.5,1.8
			c0.7,0.1,1.4-0.4,1.7-1.1l-0.2-0.1C99.2,58.9,98.9,59.1,98.4,59.2z M98.1,56.3c0.5,0,0.7,0.5,0.7,1h-1.7
			C97.1,56.8,97.5,56.3,98.1,56.3z"/>
		<path class="st0" d="M102.5,55.9c-0.3,0-0.5,0.2-0.8,0.6l-0.3,0.4l0,0l-0.1-0.9l0,0l-1.1,0.4v0.2l0.5,0.1v2.6l-0.5,0.2v0.3h1.9
			v-0.3l-0.7-0.1v-2.1c0.2-0.2,0.3-0.3,0.5-0.5l0.6,0.2c0.2-0.1,0.3-0.3,0.3-0.6c0-0.2-0.1-0.4-0.3-0.4
			C102.6,55.9,102.5,55.9,102.5,55.9z"/>
		<path class="st0" d="M106,59.1v-2c0-0.8-0.3-1.2-1.2-1.2s-1.5,0.6-1.5,1c0,0.2,0.1,0.3,0.4,0.3c0.1,0,0.2,0,0.3,0v-0.8
			c0.1-0.1,0.3-0.1,0.4-0.1c0.4,0,0.7,0.3,0.7,0.9v0.4l-0.8,0.2c-0.8,0.2-1.2,0.5-1.2,1.1c0,0.5,0.4,0.9,0.9,0.9l0,0
			c0.5,0,0.7-0.2,1.1-0.6l0,0c0,0.3,0.2,0.6,0.6,0.6c0.3,0,0.5-0.1,0.8-0.2v-0.2h-0.4C106.1,59.3,106,59.3,106,59.1z M105.2,58.9
			c-0.1,0.2-0.4,0.3-0.6,0.4c-0.3,0-0.6-0.2-0.6-0.5c0,0,0,0,0-0.1c0-0.3,0.2-0.5,0.6-0.6l0.7-0.2v1H105.2z"/>
		<polygon class="st0" points="108.2,54 107,54.2 107,54.5 107.5,54.6 107.5,59.2 107,59.4 107,59.7 108.7,59.7 108.7,59.4 
			108.2,59.2 		"/>
		<path class="st0" d="M113.7,57.2L113.7,57.2c0.6-0.1,1.1-0.7,1.1-1.3c0-0.8-0.8-1.3-2.2-1.3h-1.8v0.3l0.7,0.2v4.2l-0.7,0.2v0.3
			h2.1v-0.3l-0.6-0.2v-1.8h0.6l0.3,0.5l1.3,1.8h1.3v-0.3l-0.7-0.2L113.7,57.2z M112.9,57.1h-0.6v-2.2c1.1,0,1.7,0.4,1.7,1.2
			C113.9,56.6,113.4,57,112.9,57.1L112.9,57.1z"/>
		<path class="st0" d="M117.9,59.2c-0.8,0-1.3-0.6-1.3-1.5h2.5c0-1-0.5-1.7-1.4-1.7c-1.1,0-1.9,0.9-1.8,2v0.1
			c-0.1,0.9,0.7,1.7,1.6,1.8c0.7,0,1.4-0.4,1.7-1l-0.2-0.1C118.7,58.9,118.3,59.1,117.9,59.2z M117.5,56.3c0.5,0,0.7,0.5,0.7,1h-1.7
			C116.6,56.8,117,56.3,117.5,56.3z"/>
		<path class="st0" d="M121.5,57.6l-0.3-0.2c-0.5-0.2-0.6-0.4-0.6-0.7s0.2-0.5,0.5-0.5l0,0c0.2,0,0.4,0.1,0.5,0.2l0.3,0.7h0.2v-1
			c-0.3-0.2-0.7-0.2-1-0.2c-0.7-0.1-1.3,0.4-1.4,1.1c0,0.5,0.2,0.8,0.8,1l0.3,0.2c0.6,0.2,0.7,0.5,0.7,0.8s-0.3,0.6-0.6,0.6l0,0
			c-0.2,0-0.5-0.1-0.6-0.2l-0.4-0.9h-0.3l0.1,1.1c0.3,0.2,0.7,0.3,1.1,0.3c0.7,0.1,1.4-0.4,1.5-1.2
			C122.4,58.2,122.2,57.9,121.5,57.6z"/>
		<path class="st0" d="M124.9,55.9c-1,0-1.9,0.9-1.8,2l0,0c-0.1,1,0.7,1.8,1.6,1.9c0.1,0,0.1,0,0.2,0c1,0,1.9-0.9,1.8-2l0,0
			c0.1-0.9-0.6-1.8-1.5-1.9C125,55.9,125,55.9,124.9,55.9z M125,59.4c-0.8,0-1.1-0.9-1.1-1.7s0.3-1.4,0.9-1.4s1.1,0.6,1.1,1.7
			C125.9,58.8,125.5,59.4,125,59.4L125,59.4z"/>
		<path class="st0" d="M130.6,56l-1.4,0.1v0.3l0.6,0.1v2.4c-0.2,0.2-0.5,0.3-0.8,0.3c-0.5,0-0.8-0.3-0.8-0.9V56l-1.3,0.1v0.3
			l0.5,0.1v1.9c0,0.9,0.4,1.3,1.1,1.3c0.5,0,1-0.3,1.3-0.6l0.2,0.6l1.1-0.2v-0.3l-0.6-0.1L130.6,56z"/>
		<path class="st0" d="M133.8,55.9c-0.3,0-0.5,0.2-0.8,0.6l-0.3,0.4l0,0l-0.1-0.9l0,0l-1.1,0.4v0.2l0.5,0.1v2.6l-0.5,0.2v0.3h1.9
			v-0.3l-0.7-0.1v-2.1c0.1-0.2,0.3-0.4,0.5-0.5l0.6,0.2c0.2-0.1,0.3-0.3,0.3-0.6c0-0.2-0.1-0.4-0.3-0.4
			C133.8,55.9,133.8,55.9,133.8,55.9z"/>
		<path class="st0" d="M136.5,59.2c-0.8-0.1-1.4-0.7-1.3-1.5l0,0c0-0.8,0.4-1.4,1.1-1.4c0.2,0,0.3,0,0.4,0.1l0.1,0.8
			c0.1,0,0.2,0,0.3,0c0.2,0,0.4-0.2,0.4-0.4l0,0c0-0.4-0.5-0.8-1.1-0.8c-1.1,0-2,1-1.9,2.1l0,0c-0.1,0.9,0.6,1.7,1.5,1.8
			c0.1,0,0.1,0,0.2,0c0.6,0,1.2-0.4,1.4-0.9l-0.2-0.1C137.2,59,136.8,59.2,136.5,59.2z"/>
		<path class="st0" d="M140.1,59.2c-0.8,0-1.3-0.6-1.3-1.5h2.5c0-1-0.5-1.7-1.4-1.7c-1.1,0-1.9,0.9-1.9,2v0.1
			c-0.1,0.9,0.7,1.7,1.6,1.8h0.1c0.7,0,1.3-0.4,1.6-1.1l-0.2-0.1C140.8,58.9,140.5,59.1,140.1,59.2z M139.7,56.3
			c0.5,0,0.7,0.5,0.7,1h-1.6C138.7,56.8,139.1,56.3,139.7,56.3z"/>
		<path class="st0" d="M143.7,57.6l-0.4-0.2c-0.5-0.2-0.6-0.4-0.6-0.7s0.2-0.5,0.5-0.5l0,0c0.2,0,0.4,0.1,0.5,0.2l0.3,0.7h0.2v-1
			c-0.3-0.2-0.7-0.2-1-0.2c-0.7-0.1-1.3,0.4-1.4,1.1l0,0c0,0.5,0.2,0.8,0.8,1l0.3,0.2c0.5,0.2,0.7,0.5,0.7,0.8s-0.3,0.6-0.6,0.6
			c0,0,0,0-0.1,0c-0.2,0-0.5-0.1-0.6-0.2l-0.4-0.9h-0.3l0.1,1.1c0.3,0.2,0.7,0.3,1.1,0.3c0.7,0.1,1.4-0.4,1.5-1.2
			C144.6,58.2,144.4,57.9,143.7,57.6z"/>
		<path class="st1" d="M164.3,21.5C164.3,21.5,164.3,21.6,164.3,21.5L164.3,21.5C164.3,21.6,164.3,21.6,164.3,21.5z"/>
		<path class="st2" d="M225.5,31.8L225.5,31.8"/>
		<path class="st2" d="M225.5,31.8L225.5,31.8"/>
		<path class="st3" d="M209.5,65.4c0.2-0.1,0.5-0.1,0.7-0.2L209.5,65.4z"/>
		
			<linearGradient id="SVGID_1_" gradientUnits="userSpaceOnUse" x1="184.7635" y1="783.1852" x2="94.2736" y2="786.3852" gradientTransform="matrix(0.9986 0.0523 -0.0523 0.9986 114.535 -740.4552)">
			<stop  offset="0.13" style="stop-color:#DDD9D7"/>
			<stop  offset="0.16" style="stop-color:#CECBC9"/>
			<stop  offset="0.24" style="stop-color:#A7A7A6"/>
			<stop  offset="0.25" style="stop-color:#A2A2A1"/>
			<stop  offset="0.28" style="stop-color:#A9A9A9"/>
			<stop  offset="0.32" style="stop-color:#BBBBBB"/>
			<stop  offset="0.35" style="stop-color:#ACACAC"/>
			<stop  offset="0.42" style="stop-color:#848585"/>
			<stop  offset="0.42" style="stop-color:#808181"/>
			<stop  offset="0.48" style="stop-color:#8D8E8E"/>
			<stop  offset="0.6" style="stop-color:#B1B1B1"/>
			<stop  offset="0.7" style="stop-color:#D6D6D6"/>
			<stop  offset="0.72" style="stop-color:#CCCDCD"/>
			<stop  offset="0.77" style="stop-color:#B2B4B4"/>
			<stop  offset="0.83" style="stop-color:#878B8C"/>
			<stop  offset="0.9" style="stop-color:#4D5455"/>
			<stop  offset="0.92" style="stop-color:#707475"/>
			<stop  offset="0.96" style="stop-color:#9FA1A1"/>
			<stop  offset="0.98" style="stop-color:#BDBDBD"/>
			<stop  offset="1" style="stop-color:#C8C7C7"/>
		</linearGradient>
		<path class="st4" d="M231.1,36.1c-0.3,4.6-2.2,12.9-4.7,16.8c-2.1,3.4-9.2,9.5-15.2,11.9h-0.1l0,0l0,0H211l0,0
			c-3,1.2-6.6-0.5-8.7-1.8h-0.1c-0.4-0.2-0.7-0.4-0.9-0.6c-0.4-0.3-0.7-0.5-0.7-0.5c-0.6-0.4-1.1-0.9-1.7-1.3l-0.4-0.4
			c-0.2-0.1-0.4-0.3-0.5-0.5l-0.8-0.7l-0.8-0.7l-0.8-0.8l-1.2-1.2c9-2,23.1-7.5,31-13.2c3.3-2.4,5.5-4.8,5.8-6.9
			C231.1,36.2,231.1,36.1,231.1,36.1z"/>
		<path class="st3" d="M231.1,36.1L231.1,36.1c0,0.1,0,0.1,0,0.2V36.1z"/>
		
			<linearGradient id="SVGID_00000135649882270786660880000001473337845361352588_" gradientUnits="userSpaceOnUse" x1="94.6946" y1="746.2947" x2="182.2046" y2="916.9448" gradientTransform="matrix(0.9986 0.0523 -0.0523 0.9986 114.535 -740.4552)">
			<stop  offset="0.03" style="stop-color:#4E4D4D"/>
			<stop  offset="0.04" style="stop-color:#636363"/>
			<stop  offset="0.06" style="stop-color:#737474"/>
			<stop  offset="0.08" style="stop-color:#7F7F80"/>
			<stop  offset="0.11" style="stop-color:#858687"/>
			<stop  offset="0.18" style="stop-color:#878889"/>
			<stop  offset="0.35" style="stop-color:#4E4D4D"/>
			<stop  offset="0.39" style="stop-color:#6B6A6A"/>
			<stop  offset="0.45" style="stop-color:#888787"/>
			<stop  offset="0.51" style="stop-color:#9F9E9E"/>
			<stop  offset="0.58" style="stop-color:#B2B1B1"/>
			<stop  offset="0.66" style="stop-color:#BEBDBD"/>
			<stop  offset="0.77" style="stop-color:#C6C5C5"/>
			<stop  offset="1" style="stop-color:#C8C7C7"/>
		</linearGradient>
		<path style="fill:url(#SVGID_00000135649882270786660880000001473337845361352588_);" d="M210.9,65c-0.2,0.1-0.4,0.2-0.7,0.2
			l-0.7,0.2c-0.2,0.1-0.4,0.1-0.5,0.2l-0.2,0.1l-0.3,0.1h-0.3c-0.1,0-0.3,0-0.4,0.1c-4.6,0.5-17.4-1.4-25.4-5.1l-0.3-0.2l-0.4-0.2
			c-2.1-1.1-4-2.5-5.6-4.3c-5.5-6.8-12.1-23.3-12-32.8l0,0c0.1-1.6,0.6-3.1,1.4-4.4l0.1-0.1c0.1-0.1,0.1-0.2,0.2-0.3
			c1.5-2.2,3.4-4.1,5.7-5.6c2.6,12.7,11,31.7,22.6,43.5c0.4,0.4,0.8,0.8,1.2,1.2s1.1,1,1.6,1.5l0.8,0.7c0.2,0.2,0.4,0.3,0.5,0.5
			l0.4,0.4c0.6,0.5,1.1,0.9,1.7,1.3c0,0,0.2,0.2,0.7,0.5c0.3,0.2,0.6,0.4,1,0.6c0,0,0,0,0.1,0C204.4,64.4,208,66.1,210.9,65z"/>
		
			<linearGradient id="SVGID_00000024699630116105445550000011258913083639840168_" gradientUnits="userSpaceOnUse" x1="148.016" y1="789.5186" x2="75.046" y2="751.5786" gradientTransform="matrix(0.9986 0.0523 -0.0523 0.9986 114.535 -740.4552)">
			<stop  offset="0" style="stop-color:#DDD9D7"/>
			<stop  offset="0.04" style="stop-color:#B3B2B1"/>
			<stop  offset="0.12" style="stop-color:#6A6F6F"/>
			<stop  offset="0.16" style="stop-color:#4D5455"/>
			<stop  offset="0.73" style="stop-color:#7D8386"/>
			<stop  offset="0.82" style="stop-color:#868B8F"/>
			<stop  offset="0.84" style="stop-color:#8B9093"/>
			<stop  offset="0.86" style="stop-color:#9A9DA0"/>
			<stop  offset="0.88" style="stop-color:#B3B4B5"/>
			<stop  offset="0.9" style="stop-color:#C8C7C7"/>
		</linearGradient>
		<path style="fill:url(#SVGID_00000024699630116105445550000011258913083639840168_);" d="M164.3,21.6c-0.1,0.5-0.1,1-0.1,1.4
			C164.2,22.6,164.2,22.1,164.3,21.6z"/>
		
			<linearGradient id="SVGID_00000117671299766163999350000016764562687707785120_" gradientUnits="userSpaceOnUse" x1="143.5792" y1="788.1631" x2="70.6092" y2="750.2231" gradientTransform="matrix(0.9986 0.0523 -0.0523 0.9986 114.535 -740.4552)">
			<stop  offset="0" style="stop-color:#DDD9D7"/>
			<stop  offset="0.04" style="stop-color:#B3B2B1"/>
			<stop  offset="0.12" style="stop-color:#6A6F6F"/>
			<stop  offset="0.16" style="stop-color:#4D5455"/>
			<stop  offset="0.3" style="stop-color:#767C7C"/>
			<stop  offset="0.59" style="stop-color:#D6D7D7"/>
			<stop  offset="0.67" style="stop-color:#D4D5D5"/>
			<stop  offset="0.71" style="stop-color:#CBCDCD"/>
			<stop  offset="0.75" style="stop-color:#BDC0C1"/>
			<stop  offset="0.78" style="stop-color:#AAADAF"/>
			<stop  offset="0.81" style="stop-color:#909598"/>
			<stop  offset="0.82" style="stop-color:#868B8F"/>
			<stop  offset="0.84" style="stop-color:#8B9093"/>
			<stop  offset="0.86" style="stop-color:#9A9DA0"/>
			<stop  offset="0.88" style="stop-color:#B3B4B5"/>
			<stop  offset="0.9" style="stop-color:#C8C7C7"/>
			<stop  offset="0.92" style="stop-color:#C3C2C3"/>
			<stop  offset="0.95" style="stop-color:#B4B4B6"/>
			<stop  offset="0.98" style="stop-color:#9B9EA0"/>
			<stop  offset="1" style="stop-color:#868B8F"/>
		</linearGradient>
		<path style="fill:url(#SVGID_00000117671299766163999350000016764562687707785120_);" d="M164.2,23.2v0.1V23.2z"/>
		
			<linearGradient id="SVGID_00000046315501252270759730000012066734960130501045_" gradientUnits="userSpaceOnUse" x1="89.5835" y1="758.4286" x2="89.5835" y2="758.4286" gradientTransform="matrix(0.9986 0.0523 -0.0523 0.9986 114.535 -740.4552)">
			<stop  offset="0" style="stop-color:#DDD9D7"/>
			<stop  offset="0.04" style="stop-color:#B3B2B1"/>
			<stop  offset="0.12" style="stop-color:#6A6F6F"/>
			<stop  offset="0.16" style="stop-color:#4D5455"/>
			<stop  offset="0.3" style="stop-color:#767C7C"/>
			<stop  offset="0.59" style="stop-color:#D6D7D7"/>
			<stop  offset="0.67" style="stop-color:#D4D5D5"/>
			<stop  offset="0.71" style="stop-color:#CBCDCD"/>
			<stop  offset="0.75" style="stop-color:#BDC0C1"/>
			<stop  offset="0.78" style="stop-color:#AAADAF"/>
			<stop  offset="0.81" style="stop-color:#909598"/>
			<stop  offset="0.82" style="stop-color:#868B8F"/>
			<stop  offset="0.84" style="stop-color:#8B9093"/>
			<stop  offset="0.86" style="stop-color:#9A9DA0"/>
			<stop  offset="0.88" style="stop-color:#B3B4B5"/>
			<stop  offset="0.9" style="stop-color:#C8C7C7"/>
			<stop  offset="0.92" style="stop-color:#C3C2C3"/>
			<stop  offset="0.95" style="stop-color:#B4B4B6"/>
			<stop  offset="0.98" style="stop-color:#9B9EA0"/>
			<stop  offset="1" style="stop-color:#868B8F"/>
		</linearGradient>
		<path style="fill:url(#SVGID_00000046315501252270759730000012066734960130501045_);" d="M164.3,21.6L164.3,21.6z"/>
		
			<linearGradient id="SVGID_00000109749342551395484890000015830944762043099015_" gradientUnits="userSpaceOnUse" x1="154.0855" y1="767.9672" x2="81.1155" y2="730.0272" gradientTransform="matrix(0.9986 0.0523 -0.0523 0.9986 114.535 -740.4552)">
			<stop  offset="0" style="stop-color:#DDD9D7"/>
			<stop  offset="0.04" style="stop-color:#B3B2B1"/>
			<stop  offset="0.12" style="stop-color:#6A6F6F"/>
			<stop  offset="0.16" style="stop-color:#4D5455"/>
			<stop  offset="0.3" style="stop-color:#767C7C"/>
			<stop  offset="0.59" style="stop-color:#D6D7D7"/>
			<stop  offset="0.67" style="stop-color:#D4D5D5"/>
			<stop  offset="0.71" style="stop-color:#CBCDCD"/>
			<stop  offset="0.75" style="stop-color:#BDC0C1"/>
			<stop  offset="0.78" style="stop-color:#AAADAF"/>
			<stop  offset="0.81" style="stop-color:#909598"/>
			<stop  offset="0.82" style="stop-color:#868B8F"/>
			<stop  offset="0.84" style="stop-color:#8B9093"/>
			<stop  offset="0.86" style="stop-color:#9A9DA0"/>
			<stop  offset="0.88" style="stop-color:#B3B4B5"/>
			<stop  offset="0.9" style="stop-color:#C8C7C7"/>
			<stop  offset="0.92" style="stop-color:#C3C2C3"/>
			<stop  offset="0.95" style="stop-color:#B4B4B6"/>
			<stop  offset="0.98" style="stop-color:#9B9EA0"/>
			<stop  offset="1" style="stop-color:#868B8F"/>
		</linearGradient>
		<path style="fill:url(#SVGID_00000109749342551395484890000015830944762043099015_);" d="M231.1,36.1L231.1,36.1
			c0,0.1,0,0.1,0,0.2V36.1z"/>
		
			<linearGradient id="SVGID_00000005260538625170284600000015138730528895773366_" gradientUnits="userSpaceOnUse" x1="153.7881" y1="778.7704" x2="68.5781" y2="728.4305" gradientTransform="matrix(0.9986 0.0523 -0.0523 0.9986 114.535 -740.4552)">
			<stop  offset="0.03" style="stop-color:#676767"/>
			<stop  offset="0.09" style="stop-color:#7E7E7D"/>
			<stop  offset="0.16" style="stop-color:#929291"/>
			<stop  offset="0.23" style="stop-color:#9E9E9D"/>
			<stop  offset="0.29" style="stop-color:#A2A2A1"/>
			<stop  offset="0.35" style="stop-color:#9A9A99"/>
			<stop  offset="0.44" style="stop-color:#838383"/>
			<stop  offset="0.52" style="stop-color:#676767"/>
			<stop  offset="0.53" style="stop-color:#6D6D6D"/>
			<stop  offset="0.59" style="stop-color:#979797"/>
			<stop  offset="0.64" style="stop-color:#B1B1B1"/>
			<stop  offset="0.67" style="stop-color:#BBBBBB"/>
			<stop  offset="0.71" style="stop-color:#B9B9B9"/>
			<stop  offset="0.73" style="stop-color:#B2B3B4"/>
			<stop  offset="0.74" style="stop-color:#A6A8AA"/>
			<stop  offset="0.75" style="stop-color:#95999C"/>
			<stop  offset="0.76" style="stop-color:#868B8F"/>
			<stop  offset="0.79" style="stop-color:#8B9093"/>
			<stop  offset="0.83" style="stop-color:#9A9DA0"/>
			<stop  offset="0.87" style="stop-color:#B3B4B5"/>
			<stop  offset="0.9" style="stop-color:#C8C7C7"/>
			<stop  offset="0.92" style="stop-color:#C3C2C3"/>
			<stop  offset="0.95" style="stop-color:#B4B4B6"/>
			<stop  offset="0.98" style="stop-color:#9B9EA0"/>
			<stop  offset="1" style="stop-color:#868B8F"/>
		</linearGradient>
		<path style="fill:url(#SVGID_00000005260538625170284600000015138730528895773366_);" d="M231.1,36.1L231.1,36.1v0.1
			c-0.3,2.2-2.5,4.5-5.8,6.9c-5.3-2-10.3-4.6-14.9-8c-12.4-8.9-20.3-23.8-30.7-24.5c-2.9-0.1-5.7,0.6-8.1,2.2
			c-2.3,1.5-4.2,3.4-5.7,5.6c-0.1,0.1-0.1,0.2-0.2,0.3l-0.1,0.1c-0.8,1.3-1.3,2.8-1.4,4.4v-0.1c0,0,0-0.1,0-0.2c0-0.4,0-0.9,0.1-1.4
			l0,0l0,0c0-0.1,0-0.1,0-0.2l0,0c1.5-10,11.9-21.5,20.4-21.3c10.3,0.3,19.1,12.5,27.1,19.9c6.9,6.3,12.4,9,15.9,11.3l0,0
			C229.9,32.8,231.2,34.1,231.1,36.1L231.1,36.1z"/>
	</g>
</g>
</svg>
