<?xml version="1.0" encoding="utf-8"?>
<!-- Generator: Adobe Illustrator 26.0.1, SVG Export Plug-In . SVG Version: 6.00 Build 0)  -->
<svg version="1.1" id="Layer_1" xmlns="http://www.w3.org/2000/svg" xmlns:xlink="http://www.w3.org/1999/xlink" x="0px" y="0px"
	 viewBox="0 0 294.8 183.6" style="enable-background:new 0 0 294.8 183.6;" xml:space="preserve">
<style type="text/css">
	.st0{fill:#F7941D;}
	.st1{fill:#148285;}
</style>
<g id="Layer_2_00000109007508170913813890000003514651805616029583_" transform="translate(0 0)">
	<g id="Layer_1_00000045582776086060337240000009726179142912298398_" transform="translate(0 0)">
		<g id="Group_8768" transform="translate(126.521)">
			<path id="Path_2114" class="st0" d="M124,80.8c-1.2-9.3-11.2-15.4-20.3-12.9c-7.3,1.9-12.4,8.5-12.3,16c0,2.5,0.1,5.1,0,7.6
				c-0.4,4.8-4.5,8.3-9.3,8c0,0,0,0,0,0H82c-1.7-0.2-3.3-0.8-4.6-1.9c-0.8,2.3-2,4.4-3.5,6.2c-0.4,0.4-0.3,0.7,0.2,1
				c2.4,1.5,5.1,2.4,7.9,2.5c9.1,0.4,16.8-6.5,17.2-15.6v-7.9c0.1-4.8,4-8.6,8.8-8.5c4.7,0.1,8.5,3.9,8.5,8.6v7
				c0,4.8-3.9,8.6-8.7,8.6c0,0,0,0,0,0c-0.3,0-0.7,0-1-0.1c-2-0.3-3.9-1.3-5.4-2.7c-0.4-0.4-0.8-0.8-1.3-1.1
				c-0.6,2.4-1.8,4.6-3.3,6.4c-0.4,0.4-0.3,0.7,0.1,1c4.8,4.1,10.3,5.3,16.3,3.3c6-2,9.6-6.4,10.9-12.6C124,93.8,125,88.9,124,80.8z
				"/>
			<path id="Path_2115" class="st1" d="M49,55.6c0.9,0,1.7,0.4,2.3,1c0.5,0.4,0.8,1,1,1.5c0.7,1.7,0.5,4.8-1.4,6
				c-0.4,0.2-0.3,0.4,0,0.7c0.5,0.5,1,1,1.6,1.7c-1.2-0.1-2.3,0.3-3-0.7c-0.4-0.6-1.1-0.9-1.8-0.9c-3.4-0.3-4.3-3.1-3.9-5.9
				c0.1-1.4,1-2.6,2.3-3.2c0.7-0.3,1.4-0.4,2.2-0.3L49,55.6z M48.2,63.5c0.9,0,1.8-0.5,2.1-1.3c0.6-1.2,0.6-2.6,0-3.8
				C50,57.5,49.1,57,48.2,57c-0.8,0-1.6,0.4-2,1.2c-0.7,1.3-0.7,2.8,0,4.1C46.6,63,47.4,63.5,48.2,63.5L48.2,63.5z"/>
			<path id="Path_2116" class="st0" d="M43.8,88.2c-0.2-3,0-6,0.7-8.9c0.9-3.2,2.7-6,5.1-8.2c1-0.9,2.2-1.5,3.5-0.9
				c1.6,0.7,2.9,2.1,3.4,3.8c0.3,0.8-0.3,1.3-0.9,1.8c-1.8,1.4-3.1,3.3-3.7,5.6c-0.3,1.2-0.4,2.4-0.4,3.6v6.8
				c-0.1,4.8,3.7,8.7,8.4,8.8c4.2,0.1,7.9-2.9,8.7-7c0.1-0.7,0.2-1.4,0.2-2.2c0-2.7-0.1-5.3,0.1-8c0.7-9,8.6-15.8,17.7-15
				c2.6,0.2,5.2,1.1,7.4,2.5c0.5,0.3,0.6,0.5,0.2,1c-1.4,1.7-2.5,3.6-3.3,5.6c-0.2,0.5-0.3,0.5-0.7,0.2c-3.9-2.7-9.2-1.8-11.9,2.1
				c-0.6,0.9-1.1,2-1.3,3.1c-0.2,0.7-0.3,1.5-0.2,2.2c0,2.6,0.1,5.1,0,7.7c-0.5,9.1-8.3,16-17.4,15.4c-7.3-0.4-13.5-5.7-15.1-12.8
				c-0.1-0.3-0.1-0.7-0.2-1c-0.1-0.5-0.2-1-0.2-1.5C43.8,91.4,43.8,89.8,43.8,88.2z"/>
			<path id="Path_2117" class="st1" d="M99.2,110.5c0.1,2-0.1,4-0.6,5.9c-1.4,4.9-5.4,8.6-10.4,9.8c-3.7,1.1-7.7,1-11.4-0.2
				c-1.6-0.6-3.1-1.5-4.3-2.6c-1.3-1-1.5-2.9-0.5-4.2c0,0,0,0,0,0c0.7-1,1.5-1.8,2.3-2.6c1-0.8,1.4-0.8,2.4,0.1
				c1.2,1.2,2.8,2,4.5,2.3c4.6,0.9,9-2.1,9.9-6.7c0-0.1,0-0.2,0.1-0.3c0.2-1.5,0.3-3,0.2-4.5c-0.1-0.5,0.2-0.9,0.6-1.1
				c1.1-0.5,2.1-1.3,2.9-2.2c0.3-0.3,0.5-0.4,0.9,0c0.8,1.1,1.8,1.9,3,2.5c0.3,0.1,0.5,0.4,0.4,0.8
				C99.2,108.1,99.2,109.1,99.2,110.5z"/>
			<path id="Path_2118" class="st1" d="M99.2,61.2v-2.7c-0.1-1.5,1-2.7,2.5-2.8c0,0,0,0,0,0h0.3c1.9-0.1,3.9,0,5.8,0
				c0.4,0,0.5,0.2,0.5,0.6v5.7c0.1,1.4-0.9,2.7-2.4,2.8c0,0,0,0,0,0l0,0c-2.1,0.2-4.2,0.1-6.3,0.1c-0.4,0-0.4-0.3-0.4-0.5L99.2,61.2
				z"/>
			<path id="Path_2119" class="st1" d="M118.9,59.2v2.6c0.2,1.4-0.9,2.7-2.3,2.9c-0.1,0-0.2,0-0.3,0c-2,0.1-4,0-6.1,0.1
				c-0.4,0-0.5-0.2-0.5-0.5c0.1-2.1-0.1-4.2,0.1-6.3c0.1-1.2,0.9-2.1,2.1-2.3c2.2-0.2,4.3-0.1,6.5-0.1c0.4,0,0.4,0.3,0.4,0.6
				L118.9,59.2z"/>
			<path id="Path_2120" class="st1" d="M61.7,62.5c0.4-2,0.9-3.9,1.2-5.9c0.1-0.7,0.4-0.9,1.1-0.9c1.6,0.1,1.7,0,2,1.6
				c0.4,1.6,0.7,3.4,1.1,5.1c0.3,0,0.3-0.3,0.3-0.5c0.4-1.9,0.9-3.8,1.4-5.7c0.1-0.5,0.8-0.7,1.6-0.5c0.6,0.2,0.2,0.6,0.1,0.8
				c-0.7,2.6-1.3,5.1-2,7.6c-0.1,0.5-0.3,0.6-0.8,0.6c-1.7,0-1.7,0-2.1-1.7s-0.7-3.3-1.1-5C64.2,58.5,64,59,64,59.6
				c-0.4,1.5-0.7,3.1-1,4.7c-0.1,0.4-0.2,0.6-0.7,0.6c-1.9,0.1-1.9,0.1-2.3-1.7c-0.6-2.3-1.2-4.5-1.8-6.8c-0.1-0.5,0-0.6,0.4-0.6
				c1.4,0,1.4-0.1,1.7,1.3c0.4,1.8,0.9,3.7,1.3,5.5L61.7,62.5z"/>
			<path id="Path_2121" class="st1" d="M78.9,64.8c-0.7,0.3-1.1-0.3-1.2-1c-0.2-1-0.7-1.2-1.7-1.1h-0.4c-1.4,0-2.4,0.1-2.6,1.7
				c0,0.2-0.2,0.4-0.5,0.4c0,0,0,0,0,0h-0.1c-0.5,0.1-0.9,0-1.4-0.1c-0.1-0.1,0-0.3,0.1-0.4c1.1-2.7,2.1-5.4,3.1-8.1
				c0.1-0.3,0.3-0.5,0.6-0.5c1.7-0.1,1.7-0.1,2.2,1.4c0.9,2.2,1.7,4.5,2.6,6.7C80.1,64.8,80.1,64.8,78.9,64.8z M75.5,57.6
				c-0.3,0.7-0.5,1.3-0.7,1.8c-0.7,1.9-0.7,1.9,1.4,1.8h0.1c0.3,0,0.4-0.1,0.3-0.4C76.3,59.8,76,58.8,75.5,57.6L75.5,57.6z"/>
			<path id="Path_2122" class="st1" d="M54.6,60.3v-4c0-0.5,0.2-0.7,0.6-0.6c1.5,0,1.2-0.1,1.2,1.2v7.2c0,0.9-0.6,0.7-1,0.7
				s-0.9,0-0.9-0.7C54.7,62.8,54.6,61.6,54.6,60.3z"/>
		</g>
		<g id="Group_8770" transform="translate(0 47.298)">
			<path id="Path_2171" class="st1" d="M56.2,67.6c-0.1-1.2,0.3-2.5,1.1-3.4c1-0.8,2.2-1.2,3.5-1.1h3v4.7c0,0.4,0,0.7,0.1,1.1
				c0,0.2,0.1,0.4,0.2,0.6c0.1,0.1,0.2,0.2,0.4,0.3c0.2,0,0.4,0.1,0.5,0.1h1.1c0.2,0,0.4,0,0.6,0.1C67,70,67,70.2,67,70.4v0.8
				c0,0.1,0,0.2-0.1,0.3c0,0.1-0.1,0.2-0.2,0.2c-0.1,0-0.2,0.1-0.3,0.1c-0.1,0-0.2,0-0.3,0h-1.4c-0.4,0-0.7-0.1-1.1-0.2
				c-0.3-0.1-0.7-0.3-0.9-0.6c-0.3-0.3-0.5-0.6-0.7-1c-0.2-0.5-0.3-1-0.2-1.5V65h-0.4c-0.4,0-0.9,0-1.3,0.1c-0.4,0.1-0.7,0.2-1,0.4
				c-0.3,0.2-0.5,0.5-0.6,0.9c-0.2,0.5-0.2,1-0.2,1.4v3.3c0,0.7-0.2,1.4-0.5,2.1c-0.3,0.7-0.8,1.3-1.4,1.8c-0.6,0.6-1.4,1-2.2,1.3
				c-0.9,0.3-1.9,0.5-2.9,0.5c-0.9,0-1.8-0.1-2.7-0.3c-0.7-0.2-1.4-0.4-2-0.8c-0.5-0.3-1-0.7-1.4-1.2c-0.3-0.4-0.6-0.8-0.9-1.3
				c-0.2-0.4-0.4-0.9-0.4-1.3c-0.1-0.4-0.1-0.7-0.1-1.1c0-0.4,0-0.8,0.1-1.2c0.1-0.4,0.2-0.8,0.3-1.2c0.1-0.4,0.3-0.7,0.4-1
				c0.2-0.3,0.3-0.6,0.5-0.8l1.7,0.9c-0.2,0.2-0.3,0.4-0.4,0.7c-0.1,0.3-0.2,0.5-0.3,0.8c-0.1,0.3-0.2,0.6-0.2,0.9
				c0,0.3-0.1,0.6-0.1,0.8c0,0.3,0,0.6,0.1,0.8c0.1,0.3,0.2,0.6,0.3,0.9c0.2,0.3,0.4,0.6,0.6,0.9c0.3,0.3,0.6,0.5,1,0.7
				c0.5,0.2,0.9,0.4,1.4,0.5c0.7,0.1,1.3,0.2,2,0.2c0.7,0,1.4-0.1,2-0.3c0.5-0.2,1.1-0.4,1.5-0.7c0.4-0.3,0.7-0.6,1-1.1
				c0.2-0.4,0.3-0.8,0.3-1.2L56.2,67.6z M48.6,79.5c0-0.2,0-0.3,0.1-0.5c0.1-0.1,0.1-0.3,0.3-0.4c0.1-0.1,0.2-0.2,0.4-0.3
				c0.1-0.1,0.3-0.1,0.5-0.1c0.2,0,0.3,0,0.5,0.1c0.3,0.1,0.5,0.4,0.6,0.6c0.1,0.1,0.1,0.3,0.1,0.5c0,0.2,0,0.3-0.1,0.5
				c-0.1,0.1-0.2,0.3-0.3,0.4c-0.1,0.1-0.2,0.2-0.4,0.3c-0.1,0.1-0.3,0.1-0.5,0.1c-0.3,0-0.6-0.1-0.9-0.3
				C48.7,80.1,48.6,79.8,48.6,79.5L48.6,79.5z M51.8,79.5c0-0.3,0.1-0.6,0.4-0.9c0.1-0.1,0.2-0.2,0.4-0.3c0.3-0.1,0.6-0.1,0.9,0
				c0.3,0.1,0.5,0.4,0.6,0.6c0.1,0.1,0.1,0.3,0.1,0.5c0,0.2,0,0.3-0.1,0.5c-0.1,0.1-0.2,0.3-0.3,0.4c-0.1,0.1-0.2,0.2-0.4,0.3
				c-0.1,0.1-0.3,0.1-0.5,0.1C52.4,80.7,51.8,80.2,51.8,79.5C51.8,79.5,51.8,79.5,51.8,79.5L51.8,79.5z"/>
			<path id="Path_2172" class="st1" d="M71.3,69.1c0.4,0.2,0.8,0.4,1.2,0.5c0.5,0.1,1.1,0.2,1.7,0.2h0.1c0.2,0,0.4,0,0.6,0.1
				c0.1,0.1,0.2,0.3,0.2,0.5v0.8c0,0.1,0,0.2-0.1,0.3c0,0.1-0.1,0.2-0.2,0.2c-0.1,0-0.2,0.1-0.3,0.1c-0.1,0-0.2,0-0.3,0h-0.1
				c-0.7,0-1.3-0.1-2-0.3c-0.5-0.2-0.9-0.4-1.3-0.8c-0.2,0.3-0.4,0.6-0.7,0.8c-0.4,0.2-0.8,0.3-1.2,0.3h-2.7c-0.2,0-0.4,0-0.6-0.1
				c-0.1-0.1-0.2-0.3-0.2-0.5v-0.8c0-0.1,0-0.2,0.1-0.3c0-0.1,0.1-0.2,0.2-0.2c0.1,0,0.2-0.1,0.3-0.1c0.1,0,0.2,0,0.3,0h2.3
				c0.2,0,0.5-0.1,0.6-0.3c0.2-0.3,0.2-0.6,0.2-1v-5.4h2L71.3,69.1z M69,75.2c0-0.2,0-0.3,0.1-0.5c0.1-0.1,0.1-0.3,0.3-0.4
				c0.1-0.1,0.2-0.2,0.4-0.3c0.1-0.1,0.3-0.1,0.5-0.1c0.2,0,0.3,0,0.5,0.1c0.1,0.1,0.3,0.1,0.4,0.3c0.5,0.5,0.5,1.2,0,1.7
				c0,0,0,0,0,0c-0.1,0.1-0.2,0.2-0.4,0.3c-0.1,0.1-0.3,0.1-0.5,0.1c-0.3,0-0.6-0.1-0.9-0.3C69.2,75.8,69,75.5,69,75.2L69,75.2z"/>
			<path id="Path_2173" class="st1" d="M74.2,71.8c-0.2,0-0.4,0-0.6-0.1c-0.1-0.1-0.2-0.3-0.2-0.5v-0.8c0-0.1,0-0.2,0.1-0.3
				c0-0.1,0.1-0.2,0.2-0.2c0.1,0,0.2-0.1,0.3-0.1c0.1,0,0.2,0,0.3,0H78v-6.7h2v8.7H74.2z M75.7,75.2c0-0.2,0-0.3,0.1-0.5
				c0.1-0.1,0.1-0.3,0.3-0.4c0.1-0.1,0.2-0.2,0.4-0.3c0.1-0.1,0.3-0.1,0.5-0.1c0.2,0,0.3,0,0.5,0.1c0.1,0.1,0.3,0.1,0.4,0.3
				c0.5,0.5,0.5,1.2,0,1.7c0,0,0,0,0,0c-0.1,0.1-0.2,0.2-0.4,0.3c-0.5,0.2-1,0.1-1.3-0.3C75.8,75.8,75.7,75.5,75.7,75.2L75.7,75.2z
				 M78.9,75.2c0-0.2,0-0.3,0.1-0.5c0.1-0.1,0.1-0.3,0.3-0.4c0.1-0.1,0.2-0.2,0.4-0.3C79.8,74,80,74,80.1,74c0.2,0,0.3,0,0.5,0.1
				c0.1,0.1,0.3,0.1,0.4,0.3c0.5,0.5,0.5,1.2,0,1.7c0,0,0,0,0,0c-0.1,0.1-0.2,0.2-0.4,0.3c-0.1,0.1-0.3,0.1-0.5,0.1
				c-0.3,0-0.6-0.1-0.9-0.3C79,75.8,78.9,75.5,78.9,75.2L78.9,75.2z"/>
			<path id="Path_2174" class="st1" d="M82.9,74.6c0.7-0.1,1.3-0.2,1.9-0.5c0.9-0.3,1.5-1.1,1.6-2c0.1-0.5,0.1-1,0.1-1.5V63h2v6.7
				h2.7c0.2,0,0.4,0,0.6,0.1c0.1,0.1,0.2,0.3,0.2,0.5v0.8c0,0.1,0,0.2-0.1,0.3c0,0.1-0.1,0.2-0.2,0.2c-0.1,0-0.2,0.1-0.3,0.1
				c-0.1,0-0.2,0-0.3,0h-2.8c-0.1,0.7-0.3,1.4-0.6,2c-0.3,0.5-0.6,1-1.1,1.4c-0.5,0.4-1,0.7-1.6,0.9c-0.7,0.2-1.4,0.4-2.1,0.5
				L82.9,74.6z"/>
			<path id="Path_2175" class="st1" d="M93.3,62.9c0.4-0.1,0.9-0.2,1.4-0.3c0.5-0.1,1-0.2,1.5-0.2c0.5,0,1.1,0.1,1.6,0.3
				c0.4,0.2,0.8,0.4,1.2,0.7c0.3,0.3,0.6,0.7,0.8,1.2c0.2,0.5,0.3,0.9,0.4,1.4c0.1,0.5,0.2,0.9,0.2,1.4c0.1,0.4,0.2,0.8,0.3,1.2
				c0.1,0.3,0.2,0.6,0.4,0.8c0.2,0.2,0.4,0.3,0.7,0.3h1.1c0.2,0,0.4,0,0.6,0.1c0.1,0.1,0.2,0.3,0.2,0.5v0.8c0,0.1,0,0.2-0.1,0.3
				c0,0.1-0.1,0.2-0.2,0.2c-0.1,0-0.2,0.1-0.3,0.1c-0.1,0-0.2,0-0.3,0H91.3c-0.2,0-0.4,0-0.6-0.1c-0.1-0.1-0.2-0.3-0.2-0.5v-0.7
				c0-0.1,0-0.2,0.1-0.3c0-0.1,0.1-0.1,0.2-0.2c0.1,0,0.2-0.1,0.3-0.1c0.1,0,0.2,0,0.3,0h8c-0.2-0.2-0.3-0.4-0.4-0.6
				c-0.1-0.4-0.2-0.7-0.3-1.1c-0.1-0.4-0.1-0.9-0.2-1.3c-0.1-0.4-0.2-0.8-0.5-1.2c-0.2-0.4-0.5-0.6-0.8-0.9
				c-0.4-0.2-0.9-0.3-1.4-0.3c-0.2,0-0.4,0-0.6,0l-0.6,0.1l-0.6,0.1c-0.2,0-0.3,0.1-0.5,0.2L93.3,62.9z M95.2,75.2
				c0-0.2,0-0.3,0.1-0.5c0.1-0.1,0.1-0.3,0.3-0.4c0.1-0.1,0.2-0.2,0.4-0.3c0.1-0.1,0.3-0.1,0.5-0.1c0.2,0,0.3,0,0.5,0.1
				c0.1,0.1,0.3,0.1,0.4,0.3c0.1,0.1,0.2,0.2,0.3,0.4c0.1,0.3,0.1,0.6,0,0.9c-0.1,0.1-0.1,0.3-0.3,0.4c-0.1,0.1-0.2,0.2-0.4,0.3
				c-0.1,0.1-0.3,0.1-0.5,0.1C95.8,76.4,95.2,75.9,95.2,75.2C95.2,75.2,95.2,75.2,95.2,75.2L95.2,75.2z"/>
			<path id="Path_2176" class="st1" d="M102.8,71.8c-0.2,0-0.4,0-0.6-0.1c-0.1-0.1-0.2-0.3-0.2-0.5v-0.8c0-0.1,0-0.2,0.1-0.3
				c0-0.1,0.1-0.2,0.2-0.2c0.1,0,0.2-0.1,0.3-0.1c0.1,0,0.2,0,0.3,0h3.7v-6.7h2v8.7H102.8z M104.5,59c0-0.2,0-0.3,0.1-0.5
				c0.1-0.1,0.2-0.3,0.3-0.4c0.1-0.1,0.2-0.2,0.4-0.3c0.1-0.1,0.3-0.1,0.5-0.1c0.2,0,0.3,0,0.5,0.1c0.3,0.1,0.5,0.4,0.6,0.6
				c0.1,0.3,0.1,0.6,0,0.9c-0.1,0.1-0.1,0.3-0.3,0.4c-0.1,0.1-0.2,0.2-0.4,0.3c-0.1,0.1-0.3,0.1-0.5,0.1
				C105.1,60.2,104.6,59.6,104.5,59C104.5,59,104.5,59,104.5,59L104.5,59z M107.8,59c0-0.2,0-0.3,0.1-0.5c0.1-0.1,0.1-0.3,0.3-0.4
				c0.2-0.2,0.5-0.3,0.8-0.3c0.2,0,0.3,0,0.5,0.1c0.3,0.1,0.5,0.4,0.6,0.6c0.1,0.3,0.1,0.6,0,0.9c-0.1,0.1-0.1,0.3-0.3,0.4
				c-0.2,0.2-0.5,0.3-0.9,0.4C108.3,60.2,107.8,59.7,107.8,59C107.8,59,107.8,59,107.8,59z"/>
			<path id="Path_2177" class="st1" d="M116.6,74.6c0.7-0.1,1.3-0.2,1.9-0.5c0.9-0.3,1.5-1.1,1.6-2c0.1-0.5,0.1-1,0.1-1.5v-7.5h2V70
				c0,1-0.1,2-0.3,2.9c-0.2,0.7-0.5,1.4-1,1.9c-0.5,0.5-1,0.9-1.7,1.2c-0.8,0.3-1.6,0.5-2.4,0.6L116.6,74.6z"/>
			<path id="Path_2178" class="st1" d="M126.1,55.5h2v16.3h-2V55.5z"/>
			<path id="Path_2179" class="st1" d="M131,71.8v-2h3.9c0.4,0,0.9,0,1.3-0.1c0.3,0,0.6-0.1,0.8-0.3c0.2-0.1,0.3-0.3,0.4-0.4
				c0.1-0.2,0.1-0.4,0.1-0.6c0-0.4-0.1-0.9-0.3-1.3c-0.2-0.5-0.5-0.9-0.8-1.3c-0.4-0.5-0.8-0.9-1.2-1.3c-0.4-0.4-0.9-0.8-1.3-1.2
				l1.5-1.4c0.5,0.4,1,0.9,1.4,1.4c0.5,0.5,0.9,1,1.3,1.6c0.4,0.5,0.7,1.1,0.9,1.7c0.2,0.5,0.3,1.1,0.3,1.7c0,0.3,0,0.5-0.1,0.8
				c0.4,0.3,0.8,0.5,1.3,0.6c0.6,0.1,1.2,0.2,1.7,0.2h0.1c0.2,0,0.4,0,0.6,0.1c0.1,0.1,0.2,0.3,0.2,0.5v0.8c0,0.1,0,0.2-0.1,0.3
				c0,0.1-0.1,0.2-0.2,0.2c-0.1,0-0.2,0.1-0.3,0.1c-0.1,0-0.2,0-0.3,0h-0.1c-0.4,0-0.8,0-1.2-0.1c-0.3-0.1-0.7-0.2-1-0.3
				c-0.3-0.1-0.5-0.3-0.8-0.4c-0.2-0.2-0.4-0.3-0.6-0.5c-0.4,0.4-0.8,0.8-1.4,1c-0.7,0.3-1.4,0.4-2.2,0.4L131,71.8z"/>
			<path id="Path_2180" class="st1" d="M150.5,71.8c-0.3,0-0.6,0-0.9-0.1c-0.3,0-0.6-0.1-0.9-0.2c-0.3-0.1-0.6-0.2-0.8-0.4
				c-0.3-0.1-0.5-0.3-0.7-0.5c-0.2,0.3-0.5,0.6-0.8,0.8c-0.4,0.2-0.8,0.4-1.2,0.3h-2.7c-0.2,0-0.4,0-0.6-0.1
				c-0.1-0.1-0.2-0.3-0.2-0.5v-0.8c0-0.1,0-0.2,0.1-0.3c0-0.1,0.1-0.2,0.2-0.2c0.1,0,0.2-0.1,0.3-0.1c0.1,0,0.2,0,0.3,0h2.3
				c0.2,0,0.5-0.1,0.6-0.3c0.2-0.3,0.2-0.6,0.2-1v-3.3h2V69c0.4,0.3,0.9,0.5,1.3,0.6c0.5,0.1,1.1,0.2,1.7,0.2c0.2-0.5,0.4-1,0.6-1.4
				c0.3-0.6,0.5-1.1,0.9-1.7c0.4-0.6,0.8-1.1,1.2-1.7c0.4-0.5,0.9-1,1.4-1.4c0.5-0.4,1.1-0.7,1.7-1c0.6-0.2,1.3-0.4,2-0.4
				c0.8,0,1.5,0.1,2.2,0.4c0.6,0.3,1.1,0.7,1.5,1.2c0.4,0.5,0.7,1.1,0.9,1.8c0.2,0.7,0.3,1.4,0.3,2.2v4L150.5,71.8z M161.2,68.1
				c0-0.6-0.1-1.2-0.2-1.8c-0.1-0.4-0.4-0.8-0.7-1.2c-0.3-0.3-0.6-0.5-1-0.6c-0.4-0.1-0.8-0.2-1.2-0.2c-0.5,0-0.9,0.1-1.3,0.2
				c-0.4,0.2-0.8,0.4-1.2,0.7c-0.4,0.3-0.7,0.6-1,1c-0.3,0.4-0.6,0.8-0.9,1.2c-0.3,0.4-0.5,0.8-0.7,1.3c-0.2,0.4-0.3,0.8-0.4,1.2
				h8.7L161.2,68.1z"/>
			<path id="Path_2181" class="st1" d="M169.3,74.5c-0.1,0-0.2,0-0.3-0.1c-0.1,0-0.3,0-0.4,0c-0.3,0-0.6,0.1-0.8,0.2
				c-0.2,0.1-0.3,0.4-0.3,0.6c0,0.3,0.2,0.6,0.4,0.8c0.2,0.1,0.3,0.2,0.5,0.3c0.2,0.1,0.5,0.1,0.7,0.1h0.3v1H166v-1h1.3
				c-0.1-0.1-0.2-0.1-0.2-0.2c-0.1-0.1-0.2-0.2-0.2-0.3c-0.1-0.1-0.2-0.3-0.2-0.4c-0.1-0.2-0.1-0.3-0.1-0.5c0-0.2,0-0.4,0.1-0.6
				c0.1-0.2,0.2-0.4,0.4-0.5c0.2-0.2,0.4-0.3,0.6-0.3c0.3-0.1,0.6-0.1,0.9-0.1h0.4c0.2,0,0.3,0,0.5,0.1L169.3,74.5z M167,55.5h2
				v16.3h-2V55.5z"/>
		</g>
	</g>
</g>
</svg>
