<?xml version="1.0" encoding="utf-8"?>
<!-- Generator: Adobe Illustrator 27.2.0, SVG Export Plug-In . SVG Version: 6.00 Build 0)  -->
<svg version="1.1" id="Layer_1" xmlns="http://www.w3.org/2000/svg" xmlns:xlink="http://www.w3.org/1999/xlink" x="0px" y="0px"
	 viewBox="0 0 1000 1000" style="enable-background:new 0 0 1000 1000;" xml:space="preserve">
<style type="text/css">
	.st0{fill:#575757;}
	.st1{fill:url(#SVGID_1_);}
	.st2{fill:url(#SVGID_00000045620602856990882360000008520729778097744524_);}
	.st3{fill:url(#SVGID_00000128446633241296010410000007043078056692336265_);}
	.st4{fill:url(#SVGID_00000114778368250695058000000001018695677817571750_);}
	.st5{fill:url(#SVGID_00000099633711961776824760000016159705332697177255_);}
	.st6{fill:url(#SVGID_00000067221233816294548980000009684201088190433450_);}
	.st7{fill:url(#SVGID_00000183207542557899075380000003460696296604610482_);}
	.st8{fill:url(#SVGID_00000116197421517574000190000016603635482167640986_);}
	.st9{fill:url(#SVGID_00000172442123903464362960000006768394796110960063_);}
	.st10{fill:url(#SVGID_00000023262255544621853240000014469728368947439277_);}
	.st11{fill:url(#SVGID_00000008140421870175281240000008445428457881689532_);}
	.st12{fill:url(#SVGID_00000040544914887519016660000011174415191426556333_);}
	.st13{fill:url(#SVGID_00000034072432729788285820000016345991824213696925_);}
	.st14{fill:url(#SVGID_00000061465646378777332960000011109930041418205359_);}
	.st15{fill:url(#SVGID_00000101081352928460399930000013274152010357118378_);}
	.st16{fill:url(#SVGID_00000165197638828746537870000007894855338250581419_);}
	.st17{fill:url(#SVGID_00000053531021740372238060000013583831213083425463_);}
	.st18{fill:url(#SVGID_00000180337736975077405870000005994483810483097508_);}
	.st19{fill:url(#SVGID_00000170241120501607329700000009952487328935129481_);}
	.st20{fill:url(#SVGID_00000011032546556767976620000001980133792423923610_);}
	.st21{fill:url(#SVGID_00000170979078470614552370000005285696474034659714_);}
	.st22{fill:url(#SVGID_00000114044275408257066730000013697840584848776352_);}
	.st23{fill:url(#SVGID_00000165221957952876210370000005076624745809604024_);}
	.st24{fill:url(#SVGID_00000092421025231879518010000004605744611298999992_);}
</style>
<g>
	<path class="st0" d="M165.6,706.6v5.5h-24.1v-4.3l15.6-24.2h-14.7v-5.4H165v4.4l-15.4,24H165.6z M172.6,691.9l-1-3.8
		c7.7-3.4,18.2-3.8,18.2,7V712H184v-3.1c-1.9,2.2-4.7,3.5-7.7,3.5c-3.5,0.1-6.3-2.7-6.4-6.1c0-0.2,0-0.5,0-0.7c0-5.6,5.3-9.5,14-9.1
		V695C184,689,178,689.7,172.6,691.9z M175.4,704.8c0,2.1,1.6,3,3.5,3c2,0,3.8-0.9,5.1-2.3v-5.6
		C178.2,699.3,175.4,702.4,175.4,704.8z M222.1,691.9l-1-3.8c7.7-3.4,18.2-3.8,18.2,7V712h-5.6v-3.1c-1.9,2.2-4.7,3.5-7.7,3.5
		c-3.5,0.1-6.4-2.7-6.4-6.2c0-0.2,0-0.5,0-0.7c0-5.6,5.3-9.5,14-9.1V695C233.7,689,227.6,689.7,222.1,691.9z M225,704.8
		c0,2.1,1.6,3,3.5,3c2,0,3.9-0.8,5.1-2.3v-5.6C227.8,699.3,225,702.4,225,704.8z M252.2,705.6c-0.2,1.2,0.7,2.3,1.9,2.5
		c0.2,0,0.4,0,0.5,0c0.7,0,1.4-0.1,2.2-0.2v4.3c-1.5,0.3-3,0.4-4.5,0.4c-4.4,0-5.8-2.4-5.8-6.5v-13.9h-3l0.7-4.4h2.3v-6.2l5.8-1.5
		v7.7h4.8l-0.7,4.5h-4.1V705.6z M265.6,720.3h-3.5c0.9-3.5,1.5-7.1,1.9-10.7v-1.8h4.3l-0.2,1.8C267.6,713.2,266.7,716.8,265.6,720.3
		z M291.3,683.6v28.5H285v-28.5h-9.1v-5.4H300v5.4H291.3z M307.4,691.9l-1-3.8c7.7-3.4,18.2-3.8,18.2,7V712h-5.8v-3.1
		c-1.9,2.2-4.7,3.5-7.7,3.5c-3.5,0.1-6.4-2.7-6.4-6.2c0-0.2,0-0.5,0-0.7c0-5.6,5.3-9.5,14-9.1V695
		C318.8,689,312.8,689.7,307.4,691.9L307.4,691.9z M310.2,704.8c0,2.1,1.6,3,3.5,3c2,0,3.8-0.9,5.1-2.3v-5.6
		C312.9,699.3,310.2,702.4,310.2,704.8L310.2,704.8z M336.2,687l3.4,5.3l1.9,3.8l0,0l2-3.8l3.3-5.2h5.9l-7.7,12.1l8,12.8h-6.9
		l-3.3-5.1l-2-3.8l0,0l-2,3.8l-3.2,5.2h-6.4l8.1-12.9l-8-12.2L336.2,687L336.2,687z M370.3,691.9l-1-3.8c7.7-3.4,18.2-3.8,18.2,7
		V712h-5.8v-3.1c-1.9,2.2-4.7,3.5-7.7,3.5c-3.5,0.1-6.4-2.7-6.4-6.2c0-0.2,0-0.5,0-0.7c0-5.6,5.3-9.5,14-9.1V695
		C381.8,689,375.8,689.7,370.3,691.9L370.3,691.9z M373.2,704.8c0,2.1,1.6,3,3.5,3c2,0,3.9-0.9,5.1-2.3v-5.6
		C375.8,699.3,373.1,702.4,373.2,704.8L373.2,704.8z M393.7,712v-24.9h5.8v2.3c2.2-1.8,4.9-2.8,7.7-2.8c4.8,0,7.2,2.9,7.2,8.1V712
		h-5.7v-15.4c0-2.8-1.2-4.3-3.8-4.3c-2,0.2-3.8,1-5.3,2.3V712H393.7z M429.1,712.4c-6.3,0-9.2-5.5-9.2-13c0-7.5,3.2-13,9.5-13
		c2.4,0,4.6,1,6.2,2.8v-11.3h5.5V712h-5.6v-2.6C433.9,711.3,431.5,712.3,429.1,712.4L429.1,712.4z M431.2,691.2
		c-3.4,0-5.3,2.9-5.3,8.1c0,5.2,2,8.1,5.3,8.1c1.6,0,3.2-0.6,4.4-1.7v-12.9C434.4,691.9,432.8,691.3,431.2,691.2L431.2,691.2z
		 M472.4,712.6c-10.4,0-14.7-7.1-14.7-17.5s4.3-17.5,14.7-17.5c3.8,0,7.5,0.8,10.9,2.5v5c-3.3-1.3-6.8-2-10.3-2.2
		c-6,0-9.1,4.1-9.1,12.1s3.2,12,9.1,12c3.5-0.1,7-0.8,10.3-2v5C480,711.7,476.2,712.6,472.4,712.6L472.4,712.6z M510.3,687v25h-5.8
		v-2.4c-2.1,1.9-4.9,2.9-7.7,2.9c-4.8,0-7.1-2.9-7.1-8.1V687h5.8v15.4c0,2.7,1.2,4.3,3.8,4.3c2-0.2,3.8-1,5.3-2.3V687H510.3z
		 M515.6,710.8v-4.6c2.6,1.3,5.4,2,8.3,2.1c3.6,0,4.5-1.8,4.5-3c0-2-2.3-2.7-4.9-3.8c-3.3-1.2-7.4-2.8-7.4-7.7s3.6-8.2,10.4-8.2
		c2.8,0,5.6,0.7,8.1,2v4.5c-2-1.2-4.3-1.9-6.6-2c-3.8,0-5.3,1.8-5.3,3.3s2.5,2.9,5.4,3.8s7.1,2.9,7.1,7.4c0,5.2-4.2,8.2-10,8.2
		C521.8,712.8,518.6,712.1,515.6,710.8z M546.9,705.7c-0.2,1.2,0.7,2.3,1.9,2.5c0.2,0,0.4,0,0.5,0c0.7,0,1.4-0.1,2.1-0.2v4.3
		c-1.5,0.3-3,0.4-4.5,0.4c-4.4,0-5.8-2.4-5.8-6.5v-14.1h-3.1l0.8-4.5h2.2v-6.1l5.8-1.5v7.7h4.8l-0.8,4.5h-4.1L546.9,705.7z
		 M555.6,699.3c0-7.4,3.5-13,11.2-13c7.6,0,11.1,5.6,11.1,13s-3.5,13-11.1,13C559.1,712.3,555.6,706.7,555.6,699.3z M560.9,699.3
		c0,4.8,1.8,8.7,5.8,8.7s5.7-3.8,5.7-8.7s-1.7-8.7-5.7-8.7S560.9,694.5,560.9,699.3z M618.8,694.6V712h-5.7v-15.4
		c0-2.8-1.2-4.3-3.8-4.3c-2,0.2-3.8,1-5.2,2.3c0,0.7,0,1.3,0,2V712h-5.7v-15.4c0-2.8-1.2-4.3-3.8-4.3c-1.9,0.1-3.7,1-5.1,2.3V712
		h-5.8v-24.9h5.8v3.3c1.9-2.4,4.7-3.8,7.7-3.8c2.8-0.3,5.5,1.4,6.4,4.1c2.1-2.5,5.1-4,8.3-4.1C616.4,686.5,618.8,689.4,618.8,694.6
		L618.8,694.6z M624.3,710.8v-4.6c2.6,1.3,5.4,2,8.3,2.1c3.6,0,4.5-1.8,4.5-3c0-2-2.3-2.7-4.9-3.8c-3.3-1.2-7.4-2.8-7.4-7.7
		s3.6-8.2,10.3-8.2c2.8,0,5.6,0.7,8.1,2v4.5c-2-1.2-4.3-1.9-6.6-2c-3.8,0-5.3,1.8-5.3,3.3s2.5,2.9,5.4,3.8c2.8,1,7,2.9,7,7.4
		c0,5.2-4.2,8.2-10,8.2C630.5,712.8,627.3,712.1,624.3,710.8z M666.8,704l-2.5,8.2h-6.1l12.1-34.2h5.2l11.7,34.2h-6.3l-2.6-8.2
		H666.8z M667.9,699.1h9.1l-4.6-14.3L667.9,699.1z M712.4,687.2v25h-5.7v-2.4c-2.1,1.9-4.9,2.9-7.7,2.9c-4.8,0-7.1-2.9-7.1-8.1V687
		h5.7v15.4c0,2.7,1.2,4.3,3.8,4.3c2-0.2,3.8-1,5.3-2.3V687L712.4,687.2z M725.4,705.6c-0.2,1.2,0.7,2.3,1.9,2.5c0.2,0,0.4,0,0.5,0
		c0.7,0,1.4-0.1,2.1-0.2v4.3c-1.5,0.3-3,0.4-4.5,0.4c-4.4,0-5.8-2.4-5.8-6.5v-13.9h-3.1l0.8-4.5h2.3v-6.1l5.8-1.5v7.7h4.8l-0.8,4.5
		h-4.1V705.6z M755.3,694.7V712h-5.8v-15.4c0-2.8-1.2-4.2-3.5-4.2c-2.1,0.1-4.1,0.9-5.7,2.2V712h-5.8v-33.8h5.8v11.1
		c2-1.7,4.6-2.7,7.2-2.8c4-0.2,7.5,2.9,7.7,6.9c0,0.4,0,0.9-0.1,1.3H755.3z M760.7,699.3c0-7.4,3.5-13,11.1-13s11.2,5.7,11.2,13
		c0,7.3-3.5,13-11.1,13S760.7,706.7,760.7,699.3z M766,699.3c0,4.8,1.8,8.7,5.8,8.7s5.7-3.8,5.7-8.7s-1.8-8.7-5.7-8.7
		S766,694.5,766,699.3L766,699.3z M788.7,711.9v-24.8h5.9v4.8c1.6-3,4.7-4.9,8.1-4.8v4.6c-3.4-0.1-6.5,1.7-8.1,4.7V712h-5.7
		L788.7,711.9z M806.5,681.6c0.1-1.7,1.5-2.9,3.1-2.9s2.9,1.5,2.9,3.1c-0.1,1.6-1.4,2.9-3,2.9C807.8,684.7,806.5,683.4,806.5,681.6
		L806.5,681.6z M812.4,711.9h-5.7v-24.1h5.7V711.9z M826.9,705.5c-0.2,1.2,0.7,2.3,1.9,2.5c0.2,0,0.4,0,0.5,0c0.7,0,1.4-0.1,2.1-0.2
		v4.3c-1.5,0.3-3,0.4-4.5,0.4c-4.4,0-5.8-2.4-5.8-6.5v-13.9h-3l0.8-4.5h2.3v-6.1l5.8-1.5v7.7h4.8l-0.8,4.5h-4.1V705.5z M858.5,687
		l-11.5,34h-5.5l2.4-7.2l-9.5-26.9h6.5l5.6,19.2l0,0l5.8-19.2L858.5,687z M215.9,712h-6.7l-7.7-11.5V712h-5.6v-33.8h5.7v19.2
		l7.1-10.9h6.5l-8.4,12.1L215.9,712z M412.8,651.6c-2.3,0.2-4,2.3-3.8,4.6c0.2,2,1.8,3.6,3.8,3.8c2.3-0.2,4-2.3,3.8-4.6
		C416.4,653.4,414.8,651.8,412.8,651.6z M168.4,620.4h-5.5c-1.2-0.7-2-1.9-2-3.3c0-1.5,0.8-2.1,2-2.1c1.2,0,2,0.8,2.3,2.4h3.3
		c-0.3-3.8-2.3-6-5.5-6c-2.7-0.1-4.9,1.9-5.1,4.6c0,0.2,0,0.5,0,0.7c-0.1,1.4,0.4,2.8,1.4,3.8H157v3.5h11.3V620.4z M178.3,634
		c0,2.7-1,4.9-4.4,4.9h-20.1c-3.1,0.1-5.7-2.3-5.8-5.4c0-0.2,0-0.4,0-0.6V624h-6.6v9c-0.3,6.8,4.9,12.6,11.7,12.9c0.2,0,0.4,0,0.7,0
		h22.5c4.7,0,8.5-3.8,8.5-8.5c0-0.1,0-0.3,0-0.4v-32.8h-6.6L178.3,634L178.3,634z M195.9,646.5c0.2,3.1-2.2,5.8-5.3,6.1
		c-0.2,0-0.3,0-0.5,0h-2.8v6.9h2.8c6.8,0,12.4-5.5,12.4-12.4c0-0.2,0-0.4,0-0.6v-29.6h-6.6V646.5z M274.8,650.6
		c-2.3-0.2-4.3,1.5-4.4,3.8c-0.2,2.3,1.5,4.3,3.8,4.4c2.3,0.2,4.3-1.5,4.4-3.8c0-0.1,0-0.2,0-0.3c-0.1-2.1-1.7-3.9-3.8-4V650.6z
		 M301.7,636.2c0.1,1.3-0.8,2.5-2.1,2.7c-0.1,0-0.2,0-0.2,0h-7.6c-1.2-0.2-2.6-0.3-5.8-8.1c-5.8-12.8-14.8-17.9-25.1-13.9v6.3
		c8.6-3.5,13.7,0,17.9,8.5c1.1,2.5,2.4,4.9,3.8,7.2h-25.7c-2,0-3.6-1.5-3.7-3.5c0-0.1,0-0.2,0-0.4v-6.6c0.3-7-5.1-12.8-12-13.2
		c-0.2,0-0.4,0-0.6,0h-0.6c-7,0-12.6,5.7-12.6,12.6c0,0.2,0,0.4,0,0.6v6.7c0.1,2-1.3,3.7-3.3,3.8c-0.1,0-0.2,0-0.4,0h-4.6
		c-1.3,0-2.4-1.1-2.4-2.4c0-0.1,0-0.2,0-0.3v-32h-6.6v34.6c-0.1,3.8,2.9,7.1,6.7,7.2c0.1,0,0.1,0,0.2,0h6.8c3,0.1,5.9-1.4,7.7-3.8
		c2.6,2.3,6.1,3.6,9.6,3.6c3.1-0.1,6-1.6,8-4.1c1.7,2.6,4.6,4.2,7.7,4.1h44.6c3.8,0,6.9-3.2,6.8-7c0-0.1,0-0.1,0-0.2v-34.6h-6.6
		L301.7,636.2z M246.7,632.3c0.1,3.3-2.4,6-5.6,6.2c-2.7,0.1-5.3-1.2-6.9-3.3v-6.9c-0.3-3.2,2.1-6,5.3-6.2c0.2,0,0.4,0,0.6,0h0.6
		c3.2-0.1,5.9,2.4,6,5.6c0,0.2,0,0.4,0,0.6V632.3z M322.8,604H316v41.9h6.6L322.8,604z M342.9,615.1h-0.6c-6.9,0-12.6,5.6-12.6,12.5
		c0,0.3,0,0.5,0,0.8v4.2c-0.3,7,5.1,12.8,12.1,13.2h7v1.1c0,4.8-3.5,7.5-14.8,5.4v6.4c13.9,3.4,21.4-1.7,21.4-10.1v-20.2
		c0.3-6.9-5-12.7-11.9-13.1c-0.2,0-0.5,0-0.7,0L342.9,615.1z M348.8,638.8h-7c-3.3-0.3-5.7-3-5.6-6.3v-4.2c-0.2-3.2,2.2-6,5.4-6.2
		c0.2,0,0.4,0,0.6,0h0.6c3.2-0.1,5.9,2.5,5.9,5.7c0,0.2,0,0.4,0,0.6L348.8,638.8z M380.7,610.3c2.3,0.2,4.3-1.5,4.4-3.8
		c0.2-2.3-1.5-4.3-3.8-4.4s-4.3,1.5-4.4,3.8c0,0.1,0,0.2,0,0.3c-0.1,2.2,1.5,4.1,3.7,4.3L380.7,610.3z M391.9,610.3
		c2.3,0,4.1-1.9,4.1-4.2c0-2.3-1.9-4.1-4.1-4.1c-2.3,0-4.1,1.9-4.1,4.2C387.8,608.4,389.7,610.3,391.9,610.3z M438.9,651.6
		c-2.2,0.2-3.8,2-3.8,4.1c0.2,2.1,2,3.7,4.1,3.5c2.1-0.2,3.7-2,3.5-4.1C442.5,653.1,440.9,651.6,438.9,651.6z M442.7,638.7v-21.2
		H436v18.8c0.1,1.4-0.9,2.6-2.2,2.7c-0.1,0-0.1,0-0.2,0h-11.9c-3.3,0-4.4-2.2-4.4-4.9v-1c0-0.6,0-1.1,0-1.7v-13.8h-6.6v16.7
		c0,2.6-1,4.7-4.3,4.7h-4.5c-2,0.1-3.7-1.4-3.8-3.4c0-0.2,0-0.3,0-0.5v-20h-13c-6.9,0-12.5,5.7-12.5,12.6c0,0.2,0,0.4,0,0.6v4.1
		c-0.2,7,5.2,12.9,12.2,13.2c3.4,0.1,6.7-1.3,8.9-3.8c2,2.5,5,3.9,8.2,3.8h4.5c2.9,0.1,5.8-1.1,7.7-3.3c1.7,2,4.2,3.2,6.8,3.3h15
		c3.8,0,6.9-3.1,6.8-6.9c0,0,0-0.1,0-0.1H442.7z M391.6,635.5c-1.6,2.1-4.1,3.4-6.8,3.3c-3.3-0.1-5.8-2.9-5.6-6.2c0,0,0,0,0-0.1
		v-4.1c-0.3-3.2,2.1-6,5.3-6.2c0.2,0,0.4,0,0.6,0h6.5V635.5z M427.8,651.6c-2.3,0.2-4,2.3-3.8,4.6c0.2,2,1.8,3.6,3.8,3.8
		c2.3-0.2,4-2.3,3.8-4.6C431.4,653.4,429.8,651.8,427.8,651.6z M497.1,611.7c2.3,0.2,4.3-1.5,4.5-3.8c0.2-2.3-1.5-4.3-3.8-4.5
		c-2.3-0.2-4.3,1.5-4.5,3.8c0,0.1,0,0.2,0,0.3C493.3,609.7,494.9,611.6,497.1,611.7z M520.9,636.3c0.1,1.3-0.8,2.5-2.1,2.7
		c-0.1,0-0.2,0-0.2,0H512v-5.3c0-12.3-4.8-18-14.6-18c-6.3,0-11.8,4.5-16.3,9.9v-7h-6.6V639h-9.1v-22h-6.7v29.6
		c0.3,3.1-2,5.8-5.1,6.1c-0.2,0-0.4,0-0.6,0h-2.8v6.9h2.8c6.8,0,12.4-5.5,12.4-12.4c0-0.2,0-0.4,0-0.6v-0.7h55.3
		c3.8,0,6.9-3.2,6.8-7c0-0.1,0-0.1,0-0.2v-34.6h-6.6V636.3z M505.6,639H481v-6.9c5.1-6.3,10.3-9.6,15.4-9.6c5.1,0,9.1,3.2,9.1,11.2
		L505.6,639z M541.8,604.4h-6.6v41.5h6.6V604.4z M562,615.5h-0.6c-6.9,0-12.6,5.6-12.6,12.5c0,0.2,0,0.4,0,0.6v4.2
		c-0.2,7,5.2,12.8,12.1,13.2h6.9v1.1c0,4.8-3.5,7.5-14.8,5.4v6.4c13.9,3.4,21.4-1.7,21.4-10.1v-20.4c0.3-6.9-5-12.8-11.9-13.1
		c-0.1,0-0.3,0-0.4,0L562,615.5z M567.9,639H561c-3.3-0.3-5.7-3-5.6-6.3v-4.2c-0.2-3.2,2.2-6,5.4-6.2c0.2,0,0.4,0,0.6,0h0.6
		c3.2-0.1,5.9,2.5,5.9,5.7c0,0.2,0,0.4,0,0.6V639z M610.9,611.3c2.3,0,4.1-1.9,4.1-4.2c0-2.3-1.9-4.1-4.1-4.1
		c-2.3,0-4.1,1.9-4.1,4.2C606.7,609.4,608.6,611.3,610.9,611.3z M599.7,611.3c2.3,0.2,4.3-1.5,4.4-3.8c0.2-2.3-1.5-4.3-3.8-4.4
		s-4.3,1.5-4.4,3.8c0,0.1,0,0.2,0,0.3c0,2.3,1.7,4.1,4,4.2H599.7z M604.6,615.1h-0.9c-6.9,0.1-12.4,5.8-12.3,12.7c0,0,0,0,0,0v5.1
		c-0.2,6.9,5.2,12.6,12.1,12.7c0.1,0,0.2,0,0.2,0h1.4c6.6-0.3,11.7-5.8,11.5-12.3V628c0.2-6.8-5.1-12.5-11.9-12.8L604.6,615.1z
		 M610.3,634c0.1,2.8-2.1,5.1-4.9,5.1h-1.7c-3.2-0.1-5.7-2.7-5.6-5.9V628c-0.2-3.1,2.2-5.7,5.3-5.9c0.1,0,0.2,0,0.4,0h0.9
		c3.1,0,5.6,2.4,5.6,5.5c0,0.1,0,0.2,0,0.4V634z M687,611.6c2.3,0.2,4.3-1.5,4.5-3.8c0.2-2.3-1.5-4.3-3.8-4.5
		c-2.3-0.2-4.3,1.5-4.5,3.8c0,0.1,0,0.2,0,0.3C683.1,609.6,684.8,611.4,687,611.6z M700.5,636.3c0.1,1.3-0.8,2.5-2.1,2.7
		c-0.1,0-0.2,0-0.2,0h-7.7v-22h-6.6v29.6c0.3,3.1-2,5.8-5.1,6.1c-0.2,0-0.4,0-0.6,0h-2.8v6.9h2.8c6.8,0,12.4-5.5,12.4-12.4
		c0-0.2,0-0.4,0-0.6v-0.7h9.9c3.8,0,6.8-3.1,6.8-6.9c0-0.1,0-0.2,0-0.2v-34.6h-6.8L700.5,636.3z M721.6,604.2H715v41.7h6.6V604.2z
		 M747.9,610.4c2.3,0.2,4.3-1.5,4.4-3.8s-1.5-4.3-3.8-4.4s-4.3,1.5-4.4,3.8c0,0.1,0,0.2,0,0.3c0,2.1,1.6,3.9,3.7,4.1H747.9z
		 M759.2,610.4c2.3,0,4.1-1.9,4.1-4.2c0-2.3-1.9-4.1-4.1-4.1c-2.3,0-4.1,1.9-4.1,4.2C755,608.6,756.9,610.4,759.2,610.4z
		 M786.1,608.3h-6c-1.3-0.7-2-2-2-3.4c0-1.5,0.7-2.2,2-2.2s2.2,0.9,2.4,2.5h3.4c-0.3-4.2-2.5-6.3-5.8-6.3c-2.8-0.2-5.2,1.9-5.4,4.8
		c0,0.3,0,0.6,0,0.9c0,1.4,0.4,2.8,1.3,3.8h-2v3.8h12.3V608.3z M796.1,651.5c-2.3-0.2-4.3,1.5-4.5,3.8c-0.2,2.3,1.5,4.3,3.8,4.5
		s4.3-1.5,4.5-3.8c0-0.1,0-0.2,0-0.4c0-2.3-1.8-4.1-4.1-4.1c0,0-0.1,0-0.1,0H796.1z M807.4,651.5c-2.3-0.2-4.3,1.5-4.5,3.8
		c-0.2,2.3,1.5,4.3,3.8,4.5s4.3-1.5,4.5-3.8c0-0.1,0-0.2,0-0.4c0-2.3-1.9-4.1-4.1-4.1H807.4z M829,616.3v3.5
		c-4.8,1.1-8.2,5.4-8.2,10.4v3.2c0,2,0.7,4,2,5.6h-12.6c-3.3,0-4.4-2.2-4.4-4.9v-1c0-0.6,0-1.2,0-1.7v-13.8h-6.6v16.7
		c0,2.6-1,4.7-4.3,4.7h-7.1c-3.4,0-4.4-2.2-4.4-4.9v-16.5h-6.5V634c0,2.7-0.9,4.9-4.3,4.9h-3.4c-2,0.2-3.7-1.3-3.8-3.3
		c0-0.2,0-0.4,0-0.6v-19.8h-13c-6.9,0-12.5,5.7-12.5,12.6c0,0.2,0,0.4,0,0.6v4.1c-0.2,7,5.2,12.9,12.2,13.2c3.4,0.2,6.7-1.3,8.9-3.8
		c2,2.5,5,3.9,8.2,3.8h3.4c2.9,0.1,5.8-1.1,7.7-3.3c1.7,2,4.1,3.3,6.8,3.3h7.7c2.9,0.1,5.8-1.1,7.7-3.3c1.7,2,4.2,3.3,6.8,3.3h36.7
		c6.9-0.1,12.5-5.8,12.3-12.8c0,0,0-0.1,0-0.1v-4c-0.1-9.8-11.8-17-29.5-12.5H829z M759.1,635.5c-1.6,2.2-4.2,3.4-6.8,3.3
		c-3.3-0.2-5.8-2.9-5.6-6.2c0,0,0,0,0,0v-4.2c-0.3-3.2,2.1-6,5.2-6.2c0.1,0,0.3,0,0.4,0h6.5L759.1,635.5z M837.8,639.1H832
		c-3-0.2-5.3-2.7-5.4-5.7v-2.7c-0.3-3.1,2-5.8,5.1-6c3.1-0.3,5.8,2,6,5.1c0,0.3,0,0.6,0,0.9V639.1z M846.2,639.1h-2.8v-8.3
		c0.3-4.3-2.5-8.2-6.7-9.2c8.6-0.9,15.4,2.7,15.4,7.4v3.8c0.2,3.3-2.4,6.1-5.7,6.3c-0.2,0-0.3,0-0.5,0L846.2,639.1z M671.6,634.5
		c0.2,6.1-4.6,11.3-10.7,11.5c0,0-0.1,0-0.1,0h-29.8c-3.8,0-6.9-3.2-6.8-7c0-0.1,0-0.1,0-0.2v-34.6h6.6v32c-0.1,1.4,0.9,2.6,2.2,2.7
		c0.1,0,0.1,0,0.2,0h27c2.8-0.1,4.9-2.4,4.8-5.2c0-0.1,0-0.2,0-0.3c0.1-3.1-2.4-5.7-5.5-5.7c-0.3,0-0.6,0-0.9,0h-17.2l-1.2-5.1
		l10.1-18.6l6.1,2.4l-7.7,14.3h10.1c7.2,0.1,13,6.1,12.8,13.4C671.6,634.3,671.6,634.4,671.6,634.5z"/>
	<g>
		
			<linearGradient id="SVGID_1_" gradientUnits="userSpaceOnUse" x1="556.1609" y1="1251.4901" x2="320.4435" y2="1450.6407" gradientTransform="matrix(1 0 0 1 0 -1022)">
			<stop  offset="0" style="stop-color:#62B34F"/>
			<stop  offset="0.46" style="stop-color:#51BAB4"/>
			<stop  offset="1" style="stop-color:#0094D3"/>
		</linearGradient>
		<path class="st1" d="M505.7,281.3l-1.5-2.2l-112.6,80.3l1.4,2.3L505.7,281.3z"/>
		
			<linearGradient id="SVGID_00000176027198332847124810000002656554010892597667_" gradientUnits="userSpaceOnUse" x1="548.2938" y1="1242.1545" x2="312.5239" y2="1441.3051" gradientTransform="matrix(1 0 0 1 0 -1022)">
			<stop  offset="0" style="stop-color:#62B34F"/>
			<stop  offset="0.46" style="stop-color:#51BAB4"/>
			<stop  offset="1" style="stop-color:#0094D3"/>
		</linearGradient>
		<path style="fill:url(#SVGID_00000176027198332847124810000002656554010892597667_);" d="M483.4,282.7l-1.5-2.3l-90.3,64.4
			l1.5,2.2L483.4,282.7z"/>
		
			<linearGradient id="SVGID_00000173152688257858538660000017747330248596305839_" gradientUnits="userSpaceOnUse" x1="540.1374" y1="1232.5245" x2="304.4199" y2="1431.675" gradientTransform="matrix(1 0 0 1 0 -1022)">
			<stop  offset="0" style="stop-color:#62B34F"/>
			<stop  offset="0.46" style="stop-color:#51BAB4"/>
			<stop  offset="1" style="stop-color:#0094D3"/>
		</linearGradient>
		<path style="fill:url(#SVGID_00000173152688257858538660000017747330248596305839_);" d="M456,287.5l-1.5-2.3l-63,45l1.5,2.2
			L456,287.5z"/>
		
			<linearGradient id="SVGID_00000021083045838883561890000000274247443993947565_" gradientUnits="userSpaceOnUse" x1="531.8346" y1="1222.6552" x2="296.0647" y2="1421.8055" gradientTransform="matrix(1 0 0 1 0 -1022)">
			<stop  offset="0" style="stop-color:#62B34F"/>
			<stop  offset="0.46" style="stop-color:#51BAB4"/>
			<stop  offset="1" style="stop-color:#0094D3"/>
		</linearGradient>
		<path style="fill:url(#SVGID_00000021083045838883561890000000274247443993947565_);" d="M419.3,299l-1.5-2.3l-26.2,19l1.5,2.2
			L419.3,299z"/>
		
			<linearGradient id="SVGID_00000182497344656813267710000003344254501416972949_" gradientUnits="userSpaceOnUse" x1="633.4457" y1="1342.9315" x2="397.7282" y2="1542.082" gradientTransform="matrix(1 0 0 1 0 -1022)">
			<stop  offset="0" style="stop-color:#62B34F"/>
			<stop  offset="0.46" style="stop-color:#51BAB4"/>
			<stop  offset="1" style="stop-color:#0094D3"/>
		</linearGradient>
		<path style="fill:url(#SVGID_00000182497344656813267710000003344254501416972949_);" d="M562.2,382.8L562.2,382.8l-18.5,13l0,0
			L450,462.7l1.9,2.9l-12.7,9.3l1,1.5L413,496.3l1.5,2.2l30-21.9l0,0l10.1-7.1l95.4-68.2l-1.9-3l16.8-12l-0.9-1.5l61.3-43.7
			l-1.4-2.2L562.2,382.8z"/>
		
			<linearGradient id="SVGID_00000165942080482208985090000005626431364874424492_" gradientUnits="userSpaceOnUse" x1="640.8864" y1="1351.7539" x2="405.169" y2="1550.9569" gradientTransform="matrix(1 0 0 1 0 -1022)">
			<stop  offset="0" style="stop-color:#62B34F"/>
			<stop  offset="0.46" style="stop-color:#51BAB4"/>
			<stop  offset="1" style="stop-color:#0094D3"/>
		</linearGradient>
		<path style="fill:url(#SVGID_00000165942080482208985090000005626431364874424492_);" d="M567.4,393.6L567.4,393.6l-19.6,13.9l0,0
			l-90.9,64.9l1.9,2.9l-13.7,10l1,1.4l-26.7,19.5l1.5,2.2l26.7-19.6l0,0l13.6-9.9l0,0l91.2-65.1l-1.9-3l19.5-13.6l-1-1.5l56.1-39.9
			l-1.5-2.2L567.4,393.6z"/>
		
			<linearGradient id="SVGID_00000031888596712662384510000002117498348502879143_" gradientUnits="userSpaceOnUse" x1="648.2114" y1="1360.3773" x2="412.494" y2="1559.5802" gradientTransform="matrix(1 0 0 1 0 -1022)">
			<stop  offset="0" style="stop-color:#62B34F"/>
			<stop  offset="0.46" style="stop-color:#51BAB4"/>
			<stop  offset="1" style="stop-color:#0094D3"/>
		</linearGradient>
		<path style="fill:url(#SVGID_00000031888596712662384510000002117498348502879143_);" d="M572.4,404.7L572.4,404.7l-16.2,11.5
			l-92.9,66.2l1.9,3l-12.5,9.1l1,1.4l-26.9,19.7l1.5,2.2l26.9-19.7l0,0l12.5-9.2l92.9-66.2l-1.9-3l16.2-11.5l-0.9-1.5l50.9-36.4
			l-1.5-2.2L572.4,404.7z"/>
		
			<linearGradient id="SVGID_00000150819741622097104090000009507822392246752672_" gradientUnits="userSpaceOnUse" x1="655.5417" y1="1369.0785" x2="419.8242" y2="1568.2815" gradientTransform="matrix(1 0 0 1 0 -1022)">
			<stop  offset="0" style="stop-color:#62B34F"/>
			<stop  offset="0.46" style="stop-color:#51BAB4"/>
			<stop  offset="1" style="stop-color:#0094D3"/>
		</linearGradient>
		<path style="fill:url(#SVGID_00000150819741622097104090000009507822392246752672_);" d="M580,413.7L580,413.7l-15.7,11.4l0,0
			l-94,66.6l2,3l-15.7,11.7l1,1.5l-22.2,16.3l1.5,2.2l25.4-18.6l17.1-12.4l90-64.2l-1.9-3l15.2-10.9l-1-1.5l43.2-30.8l-1.5-2.2
			L580,413.7z"/>
		
			<linearGradient id="SVGID_00000105419462301066722620000002106044500620277635_" gradientUnits="userSpaceOnUse" x1="663.4363" y1="1378.437" x2="427.7188" y2="1577.64" gradientTransform="matrix(1 0 0 1 0 -1022)">
			<stop  offset="0" style="stop-color:#62B34F"/>
			<stop  offset="0.46" style="stop-color:#51BAB4"/>
			<stop  offset="1" style="stop-color:#0094D3"/>
		</linearGradient>
		<path style="fill:url(#SVGID_00000105419462301066722620000002106044500620277635_);" d="M589.4,421.5L589.4,421.5L571.8,434l0,0
			l-81.4,58l1.9,2.9l-19.3,14.1l1,1.5l-30.1,22l1.5,2.2l32.7-23.9l0,0l16.5-12.1l0,0l81.9-58.4l-1.9-3l17.1-12.2l-0.9-1.5l33.8-23.9
			l-1.5-2.3L589.4,421.5z"/>
		
			<linearGradient id="SVGID_00000134221498878376425100000003596744429393974959_" gradientUnits="userSpaceOnUse" x1="671.8593" y1="1388.3867" x2="436.0894" y2="1587.5374" gradientTransform="matrix(1 0 0 1 0 -1022)">
			<stop  offset="0" style="stop-color:#62B34F"/>
			<stop  offset="0.46" style="stop-color:#51BAB4"/>
			<stop  offset="1" style="stop-color:#0094D3"/>
		</linearGradient>
		<path style="fill:url(#SVGID_00000134221498878376425100000003596744429393974959_);" d="M610.3,422.2l-0.5-0.7l-20.6,14.7
			l-78.7,56.2l2,3l-21.2,15.7l0.9,1.5L455,539.8l1.5,2.2l40-29.4l20.5-15l76.5-54.8l-1.9-2.9l20.6-14.7l-1.2-1.8l0.7,1.1l12.8-9.5
			l-1.5-2.2L610.3,422.2z"/>
		
			<linearGradient id="SVGID_00000155869090685936466260000013570787838394460546_" gradientUnits="userSpaceOnUse" x1="679.9317" y1="1397.9365" x2="444.1617" y2="1597.087" gradientTransform="matrix(1 0 0 1 0 -1022)">
			<stop  offset="0" style="stop-color:#62B34F"/>
			<stop  offset="0.46" style="stop-color:#51BAB4"/>
			<stop  offset="1" style="stop-color:#0094D3"/>
		</linearGradient>
		<path style="fill:url(#SVGID_00000155869090685936466260000013570787838394460546_);" d="M610.7,435.4L610.7,435.4l-11.6,8.2
			l-46.3,33.1l1.9,3L535,494.2l1,1.5l-70.7,51.7l1.5,2.2l73.4-53.7l0,0l17.2-12.5l0,0l45.9-32.7l-1.9-3l11.6-8.2l-0.9-1.5l12.1-8.7
			l-1.5-2.3L610.7,435.4z"/>
		
			<linearGradient id="SVGID_00000010996929254506283680000017348591846120133019_" gradientUnits="userSpaceOnUse" x1="687.5003" y1="1406.8622" x2="451.7305" y2="1606.0652" gradientTransform="matrix(1 0 0 1 0 -1022)">
			<stop  offset="0" style="stop-color:#62B34F"/>
			<stop  offset="0.46" style="stop-color:#51BAB4"/>
			<stop  offset="1" style="stop-color:#0094D3"/>
		</linearGradient>
		<path style="fill:url(#SVGID_00000010996929254506283680000017348591846120133019_);" d="M613,448.8v-0.4l-10.9,7.8l0,0
			l-36.7,26.2l2,3l-17.2,12.5l1,1.5l-74.5,54.5l1.5,2.2l78-57.2l15-11l35-25.2l-1.9-2.9l10.9-7.6l-1.2-1.8l8.5-6l-0.9-1.5L613,448.8
			z"/>
		
			<linearGradient id="SVGID_00000119096295455531953400000004623569938405684150_" gradientUnits="userSpaceOnUse" x1="564.3753" y1="1261.2218" x2="328.6578" y2="1460.3724" gradientTransform="matrix(1 0 0 1 0 -1022)">
			<stop  offset="0" style="stop-color:#62B34F"/>
			<stop  offset="0.46" style="stop-color:#51BAB4"/>
			<stop  offset="1" style="stop-color:#0094D3"/>
		</linearGradient>
		<path style="fill:url(#SVGID_00000119096295455531953400000004623569938405684150_);" d="M402.1,376.4l10.5-7.6l39.6-28.2l-1.9-3
			l17.4-12.4l-0.9-1.4l58.6-42l-1.4-2.2L465,321.5l0,0l-17.4,12.4l-42,29.9l1.9,3l-10,7.2l1,1.5l-7.3,5.2l1.5,2.2L402.1,376.4z"/>
		
			<linearGradient id="SVGID_00000159441875767317759210000008514995781189681041_" gradientUnits="userSpaceOnUse" x1="572.2666" y1="1270.5433" x2="336.5492" y2="1469.6938" gradientTransform="matrix(1 0 0 1 0 -1022)">
			<stop  offset="0" style="stop-color:#62B34F"/>
			<stop  offset="0.46" style="stop-color:#51BAB4"/>
			<stop  offset="1" style="stop-color:#0094D3"/>
		</linearGradient>
		<path style="fill:url(#SVGID_00000159441875767317759210000008514995781189681041_);" d="M408.5,386.3l10.5-7.6l48.9-34.9l-1.9-3
			l13.5-9.7l-0.9-1.4l63.6-45.9l-1.5-2.2L477,327.6l0,0l-13.5,9.7l-52.1,37.1l1.9,3l-9,6.6l0.9,1.5l-13.7,10l1.5,2.2L408.5,386.3z"
			/>
		
			<linearGradient id="SVGID_00000106831064252865629020000000039927403850217612_" gradientUnits="userSpaceOnUse" x1="580.0359" y1="1279.7203" x2="344.3185" y2="1478.9233" gradientTransform="matrix(1 0 0 1 0 -1022)">
			<stop  offset="0" style="stop-color:#62B34F"/>
			<stop  offset="0.46" style="stop-color:#51BAB4"/>
			<stop  offset="1" style="stop-color:#0094D3"/>
		</linearGradient>
		<path style="fill:url(#SVGID_00000106831064252865629020000000039927403850217612_);" d="M410.8,399.2l13.7-10l53.3-38l-1.9-3
			l14.3-10.2l-0.9-1.4l68.8-49.5l-1.5-2.3l-68.8,49.5l0,0l-15,10.5l0,0L417,384.7l1.9,3l-12.1,8.8l1,1.5l-16.6,12.3l1.5,2.2
			L410.8,399.2z"/>
		
			<linearGradient id="SVGID_00000062907130724084718280000005125195686659984820_" gradientUnits="userSpaceOnUse" x1="587.928" y1="1289.0471" x2="352.2106" y2="1488.2501" gradientTransform="matrix(1 0 0 1 0 -1022)">
			<stop  offset="0" style="stop-color:#62B34F"/>
			<stop  offset="0.46" style="stop-color:#51BAB4"/>
			<stop  offset="1" style="stop-color:#0094D3"/>
		</linearGradient>
		<path style="fill:url(#SVGID_00000062907130724084718280000005125195686659984820_);" d="M416.3,409.8l14.9-10.9l56.7-40.4l-1.9-3
			l15.1-10.8l-1-1.6l73.4-51.9l-1.5-2.2l-74.7,52.5l0,0l-14.2,10.2l0,0L422.3,395l2,3l-13.9,10.2l1,1.5l-19.8,15.1l1.5,2.3
			L416.3,409.8z"/>
		
			<linearGradient id="SVGID_00000034053607380057338600000010511542368312961959_" gradientUnits="userSpaceOnUse" x1="595.7303" y1="1298.3016" x2="360.0128" y2="1497.5046" gradientTransform="matrix(1 0 0 1 0 -1022)">
			<stop  offset="0" style="stop-color:#62B34F"/>
			<stop  offset="0.46" style="stop-color:#51BAB4"/>
			<stop  offset="1" style="stop-color:#0094D3"/>
		</linearGradient>
		<path style="fill:url(#SVGID_00000034053607380057338600000010511542368312961959_);" d="M423.1,419.5l9.7-7l65.3-46.6l-2-2.8
			l16.9-12l-0.9-1.5l74.1-53l-1.5-2.3l-74.1,53l0,0l-16.9,12.1l0,0l-65.3,46.3l1.9,3l-12.4,9.1l1,1.5l-26.2,19.1l1.5,2.3l29-21
			L423.1,419.5z"/>
		
			<linearGradient id="SVGID_00000151531802010535979730000000922822361377600418_" gradientUnits="userSpaceOnUse" x1="603.5522" y1="1307.541" x2="367.8348" y2="1506.744" gradientTransform="matrix(1 0 0 1 0 -1022)">
			<stop  offset="0" style="stop-color:#62B34F"/>
			<stop  offset="0.46" style="stop-color:#51BAB4"/>
			<stop  offset="1" style="stop-color:#0094D3"/>
		</linearGradient>
		<path style="fill:url(#SVGID_00000151531802010535979730000000922822361377600418_);" d="M429.5,429.4l11-8l67.5-48.2l-1.9-3
			l18.7-13.3l-0.9-1.4l76.1-54.3l-1.4-2.2l-76.1,54.2l0,0l-19.8,14.2l0,0L434,416.3l1.9,3l-11.8,8.6l0.9,1.5l-30.2,22.1l1.5,2.2
			L429.5,429.4L429.5,429.4z"/>
		
			<linearGradient id="SVGID_00000116235219390192940200000008012855665005019029_" gradientUnits="userSpaceOnUse" x1="611.3329" y1="1316.7316" x2="375.5631" y2="1515.9346" gradientTransform="matrix(1 0 0 1 0 -1022)">
			<stop  offset="0" style="stop-color:#62B34F"/>
			<stop  offset="0.46" style="stop-color:#51BAB4"/>
			<stop  offset="1" style="stop-color:#0094D3"/>
		</linearGradient>
		<path style="fill:url(#SVGID_00000116235219390192940200000008012855665005019029_);" d="M431.4,442.7l15.7-11.5l79.7-56.5l-2-3
			l17.6-12.6l-0.9-1.4l70.7-50.4l-1.5-2.2l-70.7,50.4l0,0l-18.2,12.9l0,0L439.2,427l1.9,3l-14.7,10.8l1,1.5l-29.3,21.4l1.5,2.3
			L431.4,442.7z"/>
		
			<linearGradient id="SVGID_00000075881788161049868550000002299937006348422272_" gradientUnits="userSpaceOnUse" x1="618.8463" y1="1325.6633" x2="383.1288" y2="1524.814" gradientTransform="matrix(1 0 0 1 0 -1022)">
			<stop  offset="0" style="stop-color:#62B34F"/>
			<stop  offset="0.46" style="stop-color:#51BAB4"/>
			<stop  offset="1" style="stop-color:#0094D3"/>
		</linearGradient>
		<path style="fill:url(#SVGID_00000075881788161049868550000002299937006348422272_);" d="M433.6,455.7l14-10.2l86.3-61.5l-1.9-2.9
			l17.7-12.8l-0.9-1.4l74.8-53.4l-1.5-2.3l-74.8,53.4l0,0l-17.7,12.6l0,0l-88.4,63l1.9,3l-15,11l1,1.5l-26.9,19.6l1.5,2.2
			L433.6,455.7z"/>
		
			<linearGradient id="SVGID_00000039109859798282227380000014273176828198059667_" gradientUnits="userSpaceOnUse" x1="626.1508" y1="1334.2817" x2="390.4333" y2="1533.4847" gradientTransform="matrix(1 0 0 1 0 -1022)">
			<stop  offset="0" style="stop-color:#62B34F"/>
			<stop  offset="0.46" style="stop-color:#51BAB4"/>
			<stop  offset="1" style="stop-color:#0094D3"/>
		</linearGradient>
		<path style="fill:url(#SVGID_00000039109859798282227380000014273176828198059667_);" d="M436.1,468.3l11.9-8.7l92.3-65.8l-1.9-3
			l16.8-12l-0.9-1.5l70.8-50.4l-1.5-2.3L552.9,375l0,0L536,387l-92.3,65.8l1.9,3l-14,10.2l1,1.5L407.3,486l1.5,2.3l27.5-19.9
			L436.1,468.3z"/>
		
			<linearGradient id="SVGID_00000170958675161030380010000003468313772274303422_" gradientUnits="userSpaceOnUse" x1="695.0747" y1="1415.8469" x2="459.3573" y2="1615.05" gradientTransform="matrix(1 0 0 1 0 -1022)">
			<stop  offset="0" style="stop-color:#62B34F"/>
			<stop  offset="0.46" style="stop-color:#51BAB4"/>
			<stop  offset="1" style="stop-color:#0094D3"/>
		</linearGradient>
		<path style="fill:url(#SVGID_00000170958675161030380010000003468313772274303422_);" d="M487,560.5l1.5,2.2l127.7-93l-1.5-2.2
			L487,560.5z"/>
		
			<linearGradient id="SVGID_00000011714946258270781190000000432174325278885530_" gradientUnits="userSpaceOnUse" x1="702.4225" y1="1424.5496" x2="466.6525" y2="1623.7001" gradientTransform="matrix(1 0 0 1 0 -1022)">
			<stop  offset="0" style="stop-color:#62B34F"/>
			<stop  offset="0.46" style="stop-color:#51BAB4"/>
			<stop  offset="1" style="stop-color:#0094D3"/>
		</linearGradient>
		<path style="fill:url(#SVGID_00000011714946258270781190000000432174325278885530_);" d="M497.8,567.6l1.5,2.2l107.5-78.7
			l-1.5-2.3L497.8,567.6z"/>
		
			<linearGradient id="SVGID_00000134928913835333232510000017118866035876135809_" gradientUnits="userSpaceOnUse" x1="710.1796" y1="1433.7316" x2="474.4096" y2="1632.9346" gradientTransform="matrix(1 0 0 1 0 -1022)">
			<stop  offset="0" style="stop-color:#62B34F"/>
			<stop  offset="0.46" style="stop-color:#51BAB4"/>
			<stop  offset="1" style="stop-color:#0094D3"/>
		</linearGradient>
		<path style="fill:url(#SVGID_00000134928913835333232510000017118866035876135809_);" d="M535.9,554.6l1.5,2.2l47.2-34.5l-1.5-2.2
			L535.9,554.6z"/>
	</g>
</g>
</svg>

